<?xml version="1.0" standalone="no"?>
<!DOCTYPE svg PUBLIC "-//W3C//DTD SVG 20010904//EN"
 "http://www.w3.org/TR/2001/REC-SVG-20010904/DTD/svg10.dtd">
<svg version="1.0" xmlns="http://www.w3.org/2000/svg"
 width="225.000000pt" height="225.000000pt" viewBox="0 0 225.000000 225.000000"
 preserveAspectRatio="xMidYMid meet">

<g transform="translate(0.000000,225.000000) scale(0.100000,-0.100000)"
fill="#000000" stroke="none">
<path d="M453 2032 c-70 -25 -129 -67 -170 -122 -65 -88 -64 -79 -61 -776 l3
-629 25 -50 c31 -64 101 -134 165 -165 l50 -25 645 0 645 0 50 25 c74 36 148
114 174 184 21 58 21 62 19 694 l-3 637 -23 46 c-36 74 -87 125 -160 161 l-67
33 -620 2 c-576 2 -624 1 -672 -15z m255 -302 c41 -25 72 -76 72 -118 0 -134
-174 -191 -269 -88 -34 37 -40 118 -11 164 38 61 142 82 208 42z m842 -377
c93 -42 154 -135 171 -261 5 -37 8 -173 7 -302 l-3 -235 -132 -3 -133 -3 -1
253 c-1 282 -5 309 -60 346 -27 19 -44 23 -80 20 -57 -6 -93 -31 -119 -84 -18
-37 -20 -60 -20 -287 l0 -247 -135 0 -135 0 0 405 0 405 135 0 135 0 0 -52 1
-53 20 27 c23 30 74 65 128 85 50 19 165 11 221 -14z m-790 -398 l0 -405 -135
0 -135 0 0 405 0 405 135 0 135 0 0 -405z"/>
</g>
</svg>
