<?xml version="1.0" standalone="no"?>
<!DOCTYPE svg PUBLIC "-//W3C//DTD SVG 20010904//EN"
 "http://www.w3.org/TR/2001/REC-SVG-20010904/DTD/svg10.dtd">
<svg version="1.0" xmlns="http://www.w3.org/2000/svg"
 width="800.000000pt" height="800.000000pt" viewBox="0 0 800.000000 800.000000"
 preserveAspectRatio="xMidYMid meet">

<g transform="translate(0.000000,800.000000) scale(0.100000,-0.100000)"
fill="#000000" stroke="none">
<path d="M3770 7494 c-482 -42 -870 -143 -1270 -331 -783 -369 -1428 -1055
-1749 -1861 -117 -293 -191 -591 -233 -932 -17 -139 -17 -581 0 -735 63 -571
254 -1099 567 -1570 126 -189 242 -332 410 -504 580 -595 1288 -940 2140
-1043 135 -16 591 -16 730 0 624 74 1178 284 1669 634 297 212 599 515 814
815 349 488 560 1044 634 1668 16 139 16 595 0 730 -68 564 -234 1040 -523
1504 -76 121 -207 298 -306 413 -106 124 -343 352 -468 452 -509 406 -1121
662 -1770 742 -123 15 -545 27 -645 18z m1889 -2019 c79 -40 68 -182 -60 -770
-156 -717 -498 -2133 -530 -2196 -55 -109 -176 -132 -284 -53 -29 22 -131 98
-226 170 -96 72 -256 188 -357 258 l-182 128 -57 -48 c-64 -55 -229 -207 -373
-343 -99 -94 -166 -137 -199 -126 -45 14 -45 36 -1 507 38 414 43 444 63 464
12 12 137 124 277 250 564 507 1047 964 1182 1119 99 113 103 139 17 95 -95
-49 -762 -461 -1632 -1008 -202 -128 -373 -232 -380 -232 -17 0 -848 270 -879
286 -62 32 -76 101 -32 154 15 17 52 44 83 59 178 90 1292 512 2766 1048 735
267 744 270 804 238z"/>
</g>
</svg>
