<?xml version="1.0" standalone="no"?>
<!DOCTYPE svg PUBLIC "-//W3C//DTD SVG 20010904//EN"
 "http://www.w3.org/TR/2001/REC-SVG-20010904/DTD/svg10.dtd">
<svg version="1.0" xmlns="http://www.w3.org/2000/svg"
 width="893.000000pt" height="889.000000pt" viewBox="0 0 893.000000 889.000000"
 preserveAspectRatio="xMidYMid meet">

<g transform="translate(0.000000,889.000000) scale(0.100000,-0.100000)"
fill="#555555" stroke="none">
<path d="M6250 7047 c-3 -3 -39 -8 -80 -10 -41 -3 -75 -7 -75 -8 0 -1 -13 -3
-30 -4 -16 -2 -32 -4 -35 -5 -3 -2 -9 -4 -15 -5 -5 -1 -30 -7 -55 -14 -25 -7
-52 -15 -60 -16 -84 -19 -300 -117 -384 -174 -25 -17 -47 -31 -50 -31 -3 0
-42 -35 -87 -77 -96 -92 -231 -253 -281 -338 -34 -57 -122 -228 -139 -270 -25
-59 -88 -358 -94 -440 -5 -74 -5 -314 0 -355 11 -89 36 -221 46 -248 6 -15 10
-28 10 -29 0 -2 1 -8 4 -15 2 -7 15 -49 29 -94 24 -77 36 -106 106 -254 97
-204 303 -445 472 -554 48 -31 90 -56 93 -56 2 0 42 -17 87 -39 46 -21 97 -43
113 -50 17 -6 44 -16 60 -22 17 -7 33 -13 38 -14 4 -2 8 -3 10 -4 1 -2 13 -4
27 -7 14 -2 32 -7 40 -11 8 -3 22 -7 30 -8 8 -1 42 -8 75 -14 161 -32 487 -31
615 3 14 3 34 8 45 10 11 1 27 6 35 9 8 3 29 9 45 13 36 9 35 9 57 18 9 4 22
9 30 10 7 1 28 10 46 19 17 10 32 14 32 11 0 -4 8 0 18 8 9 8 58 36 107 63
240 127 372 258 548 545 52 85 70 118 97 185 36 87 98 311 106 385 2 19 7 55
10 80 4 25 6 140 6 255 -1 235 -5 277 -32 385 -7 25 -13 50 -14 55 -10 48 -61
185 -95 255 -104 212 -322 476 -496 599 -79 56 -275 167 -275 156 0 -3 -10 0
-22 6 -21 11 -178 56 -223 63 -11 2 -36 6 -55 10 -19 4 -51 9 -70 11 -55 8
-364 18 -370 12z m300 -607 c11 -6 20 -9 20 -6 0 9 141 -43 200 -75 33 -17 73
-44 88 -58 15 -14 30 -26 34 -26 23 -1 208 -212 208 -238 0 -6 7 -18 16 -28 8
-9 16 -23 18 -31 1 -7 9 -24 18 -38 23 -33 48 -96 53 -129 2 -14 7 -37 10 -51
7 -35 15 -77 24 -130 11 -70 12 -268 1 -340 -17 -111 -26 -165 -29 -165 -1 0
-4 -11 -6 -25 -2 -14 -9 -38 -16 -55 -7 -16 -13 -35 -14 -41 -9 -41 -74 -151
-130 -222 -62 -77 -161 -168 -195 -180 -8 -3 -22 -11 -30 -17 -29 -24 -199
-94 -262 -109 -74 -17 -113 -20 -225 -18 -82 1 -197 24 -220 44 -7 6 -13 8
-13 4 0 -15 -142 67 -210 122 -93 75 -149 140 -215 251 -55 92 -109 217 -100
231 3 5 1 11 -4 14 -10 6 -34 134 -30 157 1 8 -1 22 -6 32 -15 34 2 356 24
447 30 127 93 267 161 355 40 51 189 190 238 221 94 61 254 123 285 111 7 -2
21 0 32 4 26 12 250 2 275 -11z"/>
<path d="M4415 7018 c-17 -4 -165 -8 -329 -7 -279 0 -302 -1 -325 -19 -24 -18
-70 -100 -136 -243 -16 -35 -38 -76 -48 -91 -10 -16 -15 -28 -11 -28 3 0 2 -6
-3 -12 -6 -7 -29 -49 -53 -93 -23 -44 -57 -107 -75 -140 -35 -64 -216 -415
-299 -580 -28 -55 -55 -107 -61 -115 -5 -8 -10 -21 -11 -28 -1 -7 -11 -25 -20
-40 -10 -15 -19 -29 -19 -32 -1 -12 -59 -127 -73 -142 -8 -10 -12 -18 -9 -18
5 0 -9 -33 -95 -220 -12 -25 -23 -56 -24 -69 -2 -13 -7 -28 -13 -34 -11 -11
-31 -1 -31 17 0 7 -26 60 -57 117 -31 57 -75 145 -98 194 -22 50 -55 117 -73
150 -18 33 -44 85 -58 115 -29 62 -34 71 -97 190 -25 47 -64 121 -87 165 -23
44 -59 109 -80 145 -21 36 -46 83 -57 105 -47 94 -146 281 -155 293 -6 6 -7
12 -3 12 4 0 1 7 -6 16 -8 9 -24 35 -36 58 -43 79 -103 196 -105 203 -4 17
-34 67 -55 92 l-21 26 -353 -3 c-375 -4 -380 -4 -396 -53 -5 -13 -5 -705 -2
-1538 l8 -1514 21 -21 c20 -20 28 -21 292 -19 221 2 275 5 286 17 13 12 15
151 15 964 l1 950 -36 55 c-40 59 -111 197 -103 197 3 0 -1 10 -9 23 -16 24
-67 152 -71 177 -1 8 -6 24 -10 34 -6 14 -2 25 19 43 15 12 33 23 40 23 29 0
91 -94 170 -262 31 -65 56 -120 56 -124 0 -4 14 -34 31 -68 17 -33 31 -62 31
-63 -1 -2 5 -17 12 -35 17 -42 25 -66 26 -76 1 -4 8 -14 16 -24 9 -9 17 -22
18 -30 5 -21 52 -123 136 -290 43 -87 76 -158 73 -158 -3 0 1 -7 8 -16 8 -9
43 -74 79 -144 36 -70 89 -172 118 -226 30 -55 55 -104 56 -110 1 -7 7 -18 12
-25 18 -24 54 -99 47 -99 -3 0 2 -9 12 -20 10 -11 14 -20 10 -20 -4 0 -1 -8 7
-17 9 -10 31 -49 50 -88 71 -143 156 -302 190 -355 19 -30 46 -78 60 -105 31
-62 74 -131 87 -139 9 -6 61 91 61 113 0 5 12 23 26 40 14 17 23 31 19 31 -3
0 3 13 14 29 12 16 21 35 21 43 0 8 4 18 9 24 5 5 54 97 109 204 54 107 114
222 132 255 18 33 64 121 102 195 175 343 260 507 272 525 7 11 13 22 13 25 0
3 14 32 31 65 44 88 113 234 113 240 0 12 52 142 65 163 8 12 12 22 9 22 -3 0
5 19 17 43 12 23 23 44 23 47 1 3 7 19 14 35 6 17 17 44 23 60 6 17 18 38 26
48 8 9 12 17 8 17 -13 0 85 175 116 207 24 25 38 31 60 29 79 -9 73 -63 -26
-246 -43 -80 -86 -153 -94 -162 -8 -10 -12 -18 -8 -18 4 0 1 -10 -6 -22 -6
-13 -13 -30 -15 -38 -2 -8 -6 -444 -9 -968 l-7 -953 23 -24 22 -24 277 6 c319
6 305 2 316 108 3 33 4 395 1 805 -2 410 -4 1068 -5 1462 l-1 716 -24 29 c-31
36 -72 52 -111 41z"/>
<path d="M7624 4217 c-8 -5 -26 -10 -40 -11 -37 -4 -128 -88 -154 -143 -31
-65 -35 -159 -10 -219 11 -24 18 -45 17 -47 -1 -1 12 -19 28 -39 79 -96 256
-108 367 -25 119 89 143 306 46 406 -26 27 -77 61 -98 66 -3 1 -12 5 -20 9
-23 10 -119 12 -136 3z m141 -84 c79 -39 121 -121 113 -218 -6 -66 -36 -109
-110 -156 -77 -50 -158 -46 -227 9 -66 53 -82 86 -77 161 5 71 7 82 24 122 12
29 81 91 93 83 4 -2 11 0 14 6 10 16 135 10 170 -7z"/>
<path d="M7559 4050 c-1 -14 -1 -34 0 -45 3 -34 1 -150 -4 -172 -5 -31 18 -48
39 -28 15 16 20 30 17 49 -1 5 1 16 5 25 4 9 8 19 8 23 1 3 4 10 8 14 12 12
38 -16 65 -73 28 -56 49 -66 77 -37 14 14 13 19 -15 53 -33 42 -34 52 -4 96
12 17 20 37 19 45 0 8 -2 23 -2 32 -4 39 -30 49 -123 46 -88 -2 -89 -3 -90
-28z m141 -31 c15 -28 -11 -69 -44 -69 -30 0 -58 48 -44 74 14 24 74 21 88 -5z"/>
<path d="M3818 3344 c-9 -8 -57 -13 -140 -13 l-88 -1 0 -705 0 -705 135 0 135
0 1 128 c1 161 2 167 24 192 11 12 20 28 21 37 2 9 9 23 17 31 13 12 21 5 63
-59 26 -40 68 -99 94 -130 43 -54 66 -90 106 -165 l16 -31 160 3 c88 2 163 5
166 8 3 4 -4 16 -15 29 -24 25 -138 199 -138 209 0 4 -7 13 -16 20 -14 11
-127 158 -154 200 -5 8 -23 33 -38 56 l-28 40 48 64 c63 84 125 163 251 320
73 91 98 128 85 128 -10 0 -83 1 -163 3 l-145 3 -38 -50 c-68 -93 -147 -191
-165 -206 -10 -8 -18 -19 -19 -23 -1 -19 -107 -147 -117 -144 -8 3 -12 116
-13 377 -2 205 -5 375 -8 378 -7 7 -32 11 -37 6z"/>
<path d="M1219 3329 c-8 -5 -53 -9 -101 -9 l-88 0 0 -573 c0 -316 3 -629 7
-695 l6 -122 123 0 122 0 9 36 c4 20 4 97 0 172 -4 76 -6 214 -3 307 2 94 5
184 5 202 1 54 29 50 46 -7 6 -23 125 -292 212 -480 19 -41 36 -79 37 -85 4
-20 64 -131 83 -154 l20 -24 7 29 c4 16 36 88 71 159 97 199 128 268 132 289
2 11 24 63 50 115 25 53 48 104 49 114 7 35 45 98 55 91 7 -4 9 -113 7 -323
-2 -174 -2 -346 0 -383 l4 -68 129 0 129 0 -2 703 -3 702 -136 3 -137 3 -55
-116 c-31 -63 -56 -118 -56 -120 -1 -3 -8 -20 -18 -38 -9 -17 -18 -36 -19 -42
-5 -22 -57 -141 -66 -152 -6 -7 -8 -13 -5 -13 3 0 -4 -24 -17 -52 -25 -58 -38
-92 -36 -96 0 -1 -7 -17 -17 -35 -9 -17 -17 -34 -18 -37 -1 -14 -39 -107 -48
-118 -7 -9 -13 -9 -22 -2 -12 10 -95 188 -99 214 -1 6 -7 20 -13 31 -6 11 -11
22 -11 25 1 3 -9 24 -21 47 -11 23 -23 50 -25 60 -1 10 -29 72 -60 138 -32 66
-67 143 -77 170 -36 91 -63 135 -84 136 -11 0 -27 2 -36 4 -9 1 -23 -1 -30 -6z"/>
<path d="M6285 3320 c-58 -12 -219 -77 -279 -112 -74 -44 -140 -102 -191 -168
-25 -32 -45 -61 -45 -65 0 -4 -9 -18 -20 -32 -11 -14 -20 -32 -20 -39 0 -7 -5
-25 -12 -41 -40 -98 -53 -296 -25 -405 8 -32 12 -58 9 -58 -2 0 1 -6 7 -13 6
-8 12 -23 14 -35 7 -44 83 -164 149 -236 57 -62 172 -149 193 -146 3 0 18 -6
33 -13 15 -8 48 -17 74 -21 26 -4 50 -11 53 -17 4 -5 17 -6 30 -3 13 3 29 3
36 -1 10 -7 149 -7 224 0 82 7 219 60 299 114 53 36 136 124 181 191 68 102
97 212 100 383 3 128 1 143 -24 215 -15 42 -34 89 -42 103 -43 79 -56 100
-108 163 -30 38 -78 86 -106 106 -51 39 -158 100 -175 100 -5 0 -21 5 -37 12
-15 6 -35 13 -43 15 -31 9 -237 11 -275 3z m269 -330 c44 -20 88 -52 119 -84
48 -50 104 -142 93 -154 -3 -3 0 -12 7 -20 8 -10 12 -54 12 -136 0 -117 -1
-123 -33 -188 -69 -139 -227 -229 -376 -215 -139 13 -222 52 -297 137 -30 33
-53 64 -52 68 1 4 -4 14 -11 22 -50 58 -58 262 -14 368 6 15 12 33 14 40 1 8
25 39 51 70 51 59 134 110 186 117 16 2 31 6 34 9 3 3 49 4 102 2 85 -2 104
-6 165 -36z"/>
<path d="M7535 3022 c-27 -7 -55 -14 -61 -15 -7 -2 -46 -20 -87 -40 -117 -58
-164 -134 -170 -275 -7 -142 79 -257 229 -306 27 -9 56 -19 64 -23 8 -3 26 -8
40 -10 24 -4 70 -22 119 -46 13 -7 33 -24 44 -38 17 -24 18 -30 6 -54 -47 -95
-164 -92 -315 6 l-78 51 -21 -24 c-11 -14 -47 -58 -79 -98 l-60 -74 45 -38
c45 -40 128 -84 177 -94 8 -1 21 -6 30 -10 9 -4 35 -9 57 -11 22 -2 47 -6 55
-10 28 -11 129 -5 215 14 126 27 239 139 266 263 4 19 10 45 13 58 3 13 1 31
-4 40 -5 9 -14 38 -20 64 -19 74 -84 130 -205 179 -16 7 -34 13 -40 14 -52 12
-186 58 -190 66 -4 5 -14 9 -24 9 -23 0 -61 41 -66 71 -7 36 28 87 67 97 43
12 125 7 143 -8 8 -7 15 -10 15 -6 0 9 70 -29 104 -57 l30 -24 59 79 c33 43
71 87 84 98 l24 18 -23 17 c-33 23 -142 87 -148 86 -3 -1 -26 6 -53 15 -72 24
-183 31 -242 16z"/>
<path d="M2835 3020 c-38 -4 -85 -13 -103 -18 -18 -6 -36 -12 -40 -13 -4 -1
-17 -5 -30 -10 -13 -5 -27 -9 -31 -9 -9 0 -96 -45 -123 -64 -18 -13 -17 -15
15 -35 19 -12 61 -54 93 -95 l58 -74 19 24 c30 39 85 62 162 69 17 1 38 6 48
10 14 6 65 0 97 -10 51 -17 106 -58 124 -93 7 -15 13 -49 12 -77 l-1 -50 -35
3 c-19 1 -46 8 -60 15 -97 49 -434 -43 -509 -139 -40 -50 -53 -106 -48 -196 6
-96 5 -95 40 -168 61 -127 176 -185 341 -169 88 9 149 33 206 85 33 30 45 36
58 27 16 -9 18 -19 21 -79 1 -19 9 -22 94 -27 50 -4 106 -9 124 -11 l32 -5 3
107 c4 130 -1 695 -7 737 -10 73 -31 111 -90 163 -38 33 -100 71 -120 73 -2 0
-28 7 -57 15 -65 18 -199 25 -293 14z m200 -634 c11 -2 21 -5 23 -6 3 -3 19
-7 32 -9 18 -2 31 -41 24 -77 -8 -42 -52 -96 -97 -119 -44 -22 -123 -30 -174
-16 -108 29 -127 157 -31 207 55 29 153 38 223 20z"/>
<path d="M4897 3018 c-6 -4 -34 -10 -62 -13 -71 -10 -173 -74 -210 -133 -94
-147 -35 -367 123 -459 26 -15 51 -28 57 -29 5 -1 33 -9 60 -17 28 -9 77 -24
110 -33 64 -19 135 -76 135 -109 0 -9 -16 -33 -35 -52 -35 -35 -36 -35 -104
-30 -76 6 -129 26 -215 81 -31 20 -58 36 -59 36 -2 0 -19 -21 -37 -47 -18 -27
-51 -67 -73 -90 l-40 -41 38 -34 c62 -55 165 -108 240 -124 129 -28 252 -28
318 -1 20 9 40 16 43 16 3 0 26 15 53 34 46 33 120 131 130 172 7 26 7 165 0
190 -23 92 -111 162 -260 209 -29 10 -61 20 -69 23 -8 3 -24 8 -34 10 -11 2
-25 8 -31 13 -7 5 -14 8 -17 5 -3 -3 -11 1 -18 10 -7 8 -18 15 -25 15 -20 0
-65 59 -65 85 0 25 60 84 88 86 9 1 28 3 42 4 14 2 37 -4 53 -11 15 -8 27 -12
27 -9 0 7 77 -32 113 -57 27 -19 64 -18 52 1 -3 6 2 14 11 19 9 5 15 12 13 17
-1 4 24 37 56 73 56 62 58 65 39 79 -24 18 -174 95 -194 100 -34 9 -243 17
-253 11z"/>
</g>
</svg>
