<?xml version="1.0" standalone="no"?>
<!DOCTYPE svg PUBLIC "-//W3C//DTD SVG 20010904//EN"
 "http://www.w3.org/TR/2001/REC-SVG-20010904/DTD/svg10.dtd">
<svg version="1.0" xmlns="http://www.w3.org/2000/svg"
 width="893.000000pt" height="889.000000pt" viewBox="0 0 893.000000 889.000000"
 preserveAspectRatio="xMidYMid meet">

<g transform="translate(0.000000,889.000000) scale(0.100000,-0.100000)"
fill="#000000" stroke="none">
<path d="M4150 8809 c-1146 -84 -2210 -612 -2969 -1474 -393 -447 -680 -946
-866 -1510 -95 -284 -152 -535 -190 -830 -147 -1152 184 -2342 904 -3250 161
-203 433 -484 621 -641 927 -776 2127 -1135 3325 -993 1176 138 2256 759 2974
1710 677 895 982 2025 850 3144 -85 724 -363 1441 -788 2030 -715 993 -1793
1634 -3006 1790 -269 34 -590 43 -855 24z m2475 -1765 c76 -9 270 -56 330 -79
190 -71 344 -175 502 -339 282 -292 429 -610 453 -981 11 -176 -2 -428 -29
-561 -23 -111 -88 -308 -127 -386 -32 -63 -93 -163 -156 -258 -190 -282 -550
-504 -933 -576 -115 -22 -382 -22 -515 0 -199 32 -470 136 -631 241 -128 84
-313 286 -412 451 -100 167 -208 459 -238 644 -18 111 -18 459 -1 560 35 194
72 313 147 465 82 166 160 276 293 416 109 115 190 175 332 249 164 83 347
135 580 164 42 5 348 -2 405 -10z m-2098 -58 l33 -36 1 -717 c1 -395 3 -1053
5 -1463 3 -410 2 -773 -1 -807 -5 -44 -13 -68 -29 -86 -22 -24 -23 -24 -297
-30 l-274 -6 -29 31 -29 31 6 954 c6 937 6 954 27 1000 11 26 57 114 101 195
87 160 101 204 74 231 -44 44 -93 5 -162 -128 -44 -84 -140 -306 -203 -465
-70 -176 -88 -214 -460 -930 -207 -397 -265 -511 -317 -614 -26 -50 -57 -108
-70 -129 -13 -20 -32 -60 -43 -87 -11 -28 -27 -62 -36 -76 -16 -24 -17 -24
-36 -7 -11 10 -35 47 -55 83 -19 36 -59 106 -88 155 -30 50 -133 245 -231 435
-97 190 -233 453 -301 585 -154 299 -222 443 -370 780 -75 170 -183 382 -211
415 -30 34 -31 35 -59 19 -22 -12 -28 -22 -26 -44 5 -66 119 -324 191 -432
l36 -54 -1 -950 c0 -923 -1 -951 -19 -970 -18 -18 -39 -19 -291 -21 l-272 -3
-26 26 -26 26 -7 1514 c-4 833 -4 1526 1 1541 17 54 23 55 404 59 412 5 368
18 445 -136 28 -55 79 -152 113 -215 34 -63 97 -182 140 -265 43 -82 81 -154
85 -160 20 -25 291 -550 426 -822 82 -166 151 -302 154 -302 3 0 23 45 44 102
53 139 408 851 607 1218 40 74 108 206 151 294 118 238 121 244 146 268 23 21
31 22 340 28 418 7 399 9 439 -35z m3260 -2777 c67 -28 129 -92 149 -152 31
-93 1 -231 -64 -300 -54 -57 -108 -80 -198 -85 -109 -6 -175 22 -222 94 -89
134 -80 267 28 375 87 88 202 113 307 68z m-3919 -1241 c1 -208 6 -378 10
-378 4 0 32 33 62 73 30 39 99 127 152 194 53 68 102 131 107 142 10 17 21 18
168 14 87 -2 164 -6 171 -9 8 -2 -23 -49 -86 -126 -138 -172 -210 -263 -260
-331 l-43 -58 23 -37 c12 -20 64 -91 114 -157 125 -166 256 -363 245 -370 -6
-3 -82 -7 -170 -8 l-161 -3 -34 60 c-19 34 -74 116 -123 183 -48 66 -93 129
-99 139 -9 15 -14 11 -40 -32 -28 -47 -29 -55 -34 -199 l-5 -150 -140 0 -140
0 0 710 0 710 105 6 c58 3 121 5 140 5 l35 -1 3 -377z m-2523 300 c68 -147
173 -386 211 -477 73 -176 119 -275 128 -274 5 1 53 109 106 240 104 256 160
385 218 503 l37 75 136 3 c107 2 139 0 148 -11 8 -11 10 -197 9 -713 l-3 -699
-129 -3 c-81 -2 -133 1 -140 8 -7 7 -10 137 -9 393 2 381 2 382 -17 342 -35
-74 -108 -239 -150 -340 -23 -55 -68 -152 -99 -215 -31 -63 -64 -134 -73 -157
-34 -88 -36 -85 -286 472 -49 110 -96 218 -103 240 l-13 40 -9 -70 c-4 -38 -5
-201 -2 -361 4 -187 2 -301 -5 -318 l-10 -27 -127 3 -128 3 -8 120 c-4 66 -6
381 -5 700 l3 580 95 6 c52 3 117 6 143 7 l48 2 34 -72z m5177 63 c242 -40
466 -244 559 -511 20 -56 23 -85 23 -205 0 -204 -36 -322 -141 -452 -94 -118
-215 -199 -353 -239 -50 -14 -99 -18 -210 -19 -165 0 -254 16 -360 68 -89 42
-231 184 -282 282 -186 357 -76 779 252 963 77 43 217 100 274 112 58 11 171
12 238 1z m-3388 -317 c116 -30 202 -93 246 -181 24 -46 25 -57 31 -333 4
-157 4 -355 0 -440 -6 -147 -7 -155 -26 -153 -11 1 -65 5 -120 9 -55 4 -106
11 -112 17 -7 5 -13 31 -13 58 0 27 -4 49 -9 49 -6 0 -31 -19 -58 -42 -81 -70
-121 -83 -253 -83 -103 0 -120 3 -164 25 -66 34 -118 96 -155 185 -57 136 -36
287 49 358 119 101 370 157 509 114 30 -9 58 -17 63 -17 4 0 8 21 8 48 0 61
-26 103 -87 138 -40 24 -58 28 -118 28 -97 -1 -182 -28 -221 -69 l-32 -34 -58
75 c-32 41 -76 86 -98 100 -38 26 -39 27 -20 41 70 53 226 110 339 123 90 11
222 4 299 -16z m4611 11 c66 -17 181 -73 234 -112 l33 -26 -28 -22 c-16 -13
-56 -59 -88 -103 l-60 -81 -37 30 c-78 62 -175 89 -247 69 -34 -9 -46 -18 -60
-46 -15 -32 -15 -38 -1 -62 19 -34 54 -51 229 -108 201 -66 266 -118 296 -234
50 -195 -93 -382 -319 -421 -178 -29 -414 37 -516 145 l-23 24 55 69 c30 37
68 84 85 103 l29 34 51 -36 c96 -69 196 -105 261 -92 60 12 94 75 62 116 -20
25 -66 45 -219 93 -127 39 -201 95 -246 183 -58 113 -24 301 69 379 38 33 134
78 205 97 73 19 162 20 235 1z m-2515 -46 c52 -25 106 -55 120 -66 l25 -21
-46 -49 c-26 -27 -63 -73 -84 -101 -20 -29 -39 -52 -41 -52 -2 0 -25 14 -51
30 -115 73 -203 84 -263 33 -73 -61 -16 -125 158 -179 145 -45 205 -75 260
-127 181 -176 49 -497 -227 -549 -155 -29 -382 37 -505 147 l-40 35 40 43 c22
23 58 66 79 95 22 28 41 52 43 52 2 0 23 -14 48 -31 77 -52 152 -82 225 -87
65 -4 69 -3 98 26 37 37 38 52 6 90 -24 29 -72 51 -155 72 -191 47 -298 136
-335 276 -50 193 41 341 245 396 49 14 94 17 185 15 119 -3 121 -3 215 -48z"/>
<path d="M6244 6441 c-141 -23 -286 -98 -408 -212 -98 -91 -156 -173 -207
-291 -57 -131 -79 -235 -86 -414 -9 -243 20 -412 98 -568 125 -246 304 -403
536 -468 96 -26 273 -29 373 -5 80 19 214 76 294 125 124 75 253 231 313 378
59 145 77 251 77 464 0 225 -21 347 -84 478 -155 324 -416 506 -740 517 -63 2
-138 0 -166 -4z"/>
<path d="M7572 4123 c-69 -34 -102 -100 -102 -204 0 -67 24 -108 87 -153 62
-43 123 -46 193 -8 31 16 69 48 88 71 28 37 32 50 32 99 -2 140 -70 212 -202
212 -37 0 -76 -7 -96 -17z m188 -53 c26 -26 26 -84 0 -117 -26 -33 -25 -49 5
-89 30 -39 30 -42 8 -66 -29 -32 -50 -22 -85 44 -18 34 -38 63 -45 65 -7 3
-16 -18 -23 -52 -12 -58 -30 -76 -55 -55 -11 9 -14 41 -14 143 1 73 2 134 4
137 2 3 44 7 94 8 79 2 93 0 111 -18z"/>
<path d="M7616 4014 c-9 -24 12 -54 38 -54 30 0 49 23 41 50 -8 25 -69 29 -79
4z"/>
<path d="M6257 3010 c-177 -45 -273 -187 -271 -405 1 -129 24 -192 100 -274
150 -162 417 -173 585 -23 67 60 101 141 107 258 10 201 -64 338 -224 415 -61
29 -80 33 -164 36 -52 1 -112 -2 -133 -7z"/>
<path d="M2883 2380 c-54 -11 -100 -35 -113 -59 -19 -36 -12 -96 13 -119 42
-40 124 -52 200 -31 81 22 145 116 119 173 -17 39 -120 55 -219 36z"/>
</g>
</svg>
