<svg xmlns="http://www.w3.org/2000/svg" width="348" height="348" viewBox="0 0 900 1443" version="1.1"><path d="M 225.824 97.750 C 247.453 97.900, 282.553 97.900, 303.824 97.750 C 325.096 97.599, 307.400 97.476, 264.500 97.476 C 221.600 97.476, 204.196 97.599, 225.824 97.750 M 366.458 98.250 C 366.195 98.938, 366.101 122.225, 366.249 150 L 366.519 200.500 366.759 149.256 L 367 98.012 444.750 97.750 L 522.500 97.488 444.719 97.244 C 383.235 97.051, 366.837 97.262, 366.458 98.250 M 585.750 97.750 C 607.338 97.900, 642.663 97.900, 664.250 97.750 C 685.838 97.599, 668.175 97.476, 625 97.476 C 581.825 97.476, 564.163 97.599, 585.750 97.750 M 522.423 119.500 C 522.424 131.050, 522.570 135.638, 522.747 129.696 C 522.924 123.753, 522.923 114.303, 522.745 108.696 C 522.567 103.088, 522.422 107.950, 522.423 119.500 M 410.365 150.500 C 410.368 156, 410.536 158.122, 410.738 155.216 C 410.941 152.311, 410.939 147.811, 410.734 145.216 C 410.528 142.622, 410.363 145, 410.365 150.500 M 522.463 212 C 522.463 239.225, 522.592 250.363, 522.749 236.750 C 522.906 223.137, 522.906 200.863, 522.749 187.250 C 522.592 173.637, 522.463 184.775, 522.463 212 M 366.426 241.500 C 366.427 253.600, 366.571 258.413, 366.747 252.195 C 366.923 245.977, 366.922 236.077, 366.746 230.195 C 366.569 224.313, 366.425 229.400, 366.426 241.500 M 33.776 341.733 C 36.128 341.945, 39.728 341.942, 41.776 341.727 C 43.824 341.512, 41.900 341.339, 37.500 341.343 C 33.100 341.346, 31.424 341.522, 33.776 341.733 M 63.776 341.733 C 66.128 341.945, 69.728 341.942, 71.776 341.727 C 73.824 341.512, 71.900 341.339, 67.500 341.343 C 63.100 341.346, 61.424 341.522, 63.776 341.733 M 93.776 341.733 C 96.128 341.945, 99.728 341.942, 101.776 341.727 C 103.824 341.512, 101.900 341.339, 97.500 341.343 C 93.100 341.346, 91.424 341.522, 93.776 341.733 M 123.776 341.733 C 126.128 341.945, 129.728 341.942, 131.776 341.727 C 133.824 341.512, 131.900 341.339, 127.500 341.343 C 123.100 341.346, 121.424 341.522, 123.776 341.733 M 153.776 341.733 C 156.128 341.945, 159.728 341.942, 161.776 341.727 C 163.824 341.512, 161.900 341.339, 157.500 341.343 C 153.100 341.346, 151.424 341.522, 153.776 341.733 M 183.776 341.733 C 186.128 341.945, 189.728 341.942, 191.776 341.727 C 193.824 341.512, 191.900 341.339, 187.500 341.343 C 183.100 341.346, 181.424 341.522, 183.776 341.733 M 213.776 341.733 C 216.128 341.945, 219.728 341.942, 221.776 341.727 C 223.824 341.512, 221.900 341.339, 217.500 341.343 C 213.100 341.346, 211.424 341.522, 213.776 341.733 M 243.776 341.733 C 246.128 341.945, 249.728 341.942, 251.776 341.727 C 253.824 341.512, 251.900 341.339, 247.500 341.343 C 243.100 341.346, 241.424 341.522, 243.776 341.733 M 273.776 341.733 C 276.128 341.945, 279.728 341.942, 281.776 341.727 C 283.824 341.512, 281.900 341.339, 277.500 341.343 C 273.100 341.346, 271.424 341.522, 273.776 341.733 M 303.776 341.733 C 306.128 341.945, 309.728 341.942, 311.776 341.727 C 313.824 341.512, 311.900 341.339, 307.500 341.343 C 303.100 341.346, 301.424 341.522, 303.776 341.733 M 333.776 341.733 C 336.128 341.945, 339.728 341.942, 341.776 341.727 C 343.824 341.512, 341.900 341.339, 337.500 341.343 C 333.100 341.346, 331.424 341.522, 333.776 341.733 M 363.776 341.733 C 366.128 341.945, 369.728 341.942, 371.776 341.727 C 373.824 341.512, 371.900 341.339, 367.500 341.343 C 363.100 341.346, 361.424 341.522, 363.776 341.733 M 393.776 341.733 C 396.128 341.945, 399.728 341.942, 401.776 341.727 C 403.824 341.512, 401.900 341.339, 397.500 341.343 C 393.100 341.346, 391.424 341.522, 393.776 341.733 M 423.776 341.733 C 426.128 341.945, 429.728 341.942, 431.776 341.727 C 433.824 341.512, 431.900 341.339, 427.500 341.343 C 423.100 341.346, 421.424 341.522, 423.776 341.733 M 453.776 341.733 C 456.128 341.945, 459.728 341.942, 461.776 341.727 C 463.824 341.512, 461.900 341.339, 457.500 341.343 C 453.100 341.346, 451.424 341.522, 453.776 341.733 M 483.776 341.733 C 486.128 341.945, 489.728 341.942, 491.776 341.727 C 493.824 341.512, 491.900 341.339, 487.500 341.343 C 483.100 341.346, 481.424 341.522, 483.776 341.733 M 513.776 341.733 C 516.128 341.945, 519.728 341.942, 521.776 341.727 C 523.824 341.512, 521.900 341.339, 517.500 341.343 C 513.100 341.346, 511.424 341.522, 513.776 341.733 M 543.776 341.733 C 546.128 341.945, 549.728 341.942, 551.776 341.727 C 553.824 341.512, 551.900 341.339, 547.500 341.343 C 543.100 341.346, 541.424 341.522, 543.776 341.733 M 573.776 341.733 C 576.128 341.945, 579.728 341.942, 581.776 341.727 C 583.824 341.512, 581.900 341.339, 577.500 341.343 C 573.100 341.346, 571.424 341.522, 573.776 341.733 M 603.776 341.733 C 606.128 341.945, 609.728 341.942, 611.776 341.727 C 613.824 341.512, 611.900 341.339, 607.500 341.343 C 603.100 341.346, 601.424 341.522, 603.776 341.733 M 633.776 341.733 C 636.128 341.945, 639.728 341.942, 641.776 341.727 C 643.824 341.512, 641.900 341.339, 637.500 341.343 C 633.100 341.346, 631.424 341.522, 633.776 341.733 M 663.776 341.733 C 666.128 341.945, 669.728 341.942, 671.776 341.727 C 673.824 341.512, 671.900 341.339, 667.500 341.343 C 663.100 341.346, 661.424 341.522, 663.776 341.733 M 693.776 341.733 C 696.128 341.945, 699.728 341.942, 701.776 341.727 C 703.824 341.512, 701.900 341.339, 697.500 341.343 C 693.100 341.346, 691.424 341.522, 693.776 341.733 M 723.776 341.733 C 726.128 341.945, 729.728 341.942, 731.776 341.727 C 733.824 341.512, 731.900 341.339, 727.500 341.343 C 723.100 341.346, 721.424 341.522, 723.776 341.733 M 753.776 341.733 C 756.128 341.945, 759.728 341.942, 761.776 341.727 C 763.824 341.512, 761.900 341.339, 757.500 341.343 C 753.100 341.346, 751.424 341.522, 753.776 341.733 M 783.776 341.733 C 786.128 341.945, 789.728 341.942, 791.776 341.727 C 793.824 341.512, 791.900 341.339, 787.500 341.343 C 783.100 341.346, 781.424 341.522, 783.776 341.733 M 813.776 341.733 C 816.128 341.945, 819.728 341.942, 821.776 341.727 C 823.824 341.512, 821.900 341.339, 817.500 341.343 C 813.100 341.346, 811.424 341.522, 813.776 341.733 M 843.776 341.733 C 846.128 341.945, 849.728 341.942, 851.776 341.727 C 853.824 341.512, 851.900 341.339, 847.500 341.343 C 843.100 341.346, 841.424 341.522, 843.776 341.733 M 873.776 341.733 C 876.128 341.945, 879.728 341.942, 881.776 341.727 C 883.824 341.512, 881.900 341.339, 877.500 341.343 C 873.100 341.346, 871.424 341.522, 873.776 341.733 M 449.917 419.416 C 449.688 419.645, 449.620 443.656, 449.767 472.773 L 450.034 525.714 588.015 525.688 C 663.904 525.673, 726.276 525.943, 726.619 526.286 C 726.962 526.629, 726.686 533.670, 726.006 541.932 C 725.325 550.194, 725.040 557.662, 725.373 558.529 C 725.749 559.509, 725.570 559.852, 724.898 559.437 C 724.156 558.978, 723.925 560.806, 724.160 565.293 C 724.347 568.880, 724.250 571.659, 723.944 571.468 C 723.638 571.277, 722.167 585.381, 720.675 602.811 C 719.183 620.240, 717.971 635.292, 717.981 636.259 C 717.994 637.436, 715.865 639.071, 711.556 641.196 C 708.012 642.944, 705.382 644.809, 705.711 645.341 C 706.040 645.874, 705.803 645.996, 705.184 645.614 C 704.565 645.231, 702.696 645.623, 701.029 646.485 C 699.363 647.346, 698 648.516, 698 649.085 C 698 649.653, 697.563 649.848, 697.029 649.518 C 696.496 649.188, 694.696 649.623, 693.029 650.485 C 691.363 651.346, 690 652.516, 690 653.085 C 690 653.653, 689.550 653.840, 689 653.500 C 688.450 653.160, 688 653.385, 688 654 C 688 654.615, 687.550 654.840, 687 654.500 C 686.450 654.160, 686 654.385, 686 655 C 686 655.615, 685.586 655.862, 685.081 655.550 C 684.575 655.237, 683.466 655.677, 682.616 656.527 C 681.767 657.376, 680.830 658.055, 680.536 658.036 C 680.241 658.016, 679.523 658, 678.941 658 C 678.359 658, 678.157 658.445, 678.493 658.989 C 678.831 659.536, 678.469 659.734, 677.681 659.431 C 676.898 659.131, 675.578 659.564, 674.748 660.395 C 673.918 661.225, 673.011 661.678, 672.734 661.401 C 672.457 661.123, 667.032 663.484, 660.678 666.647 C 654.325 669.809, 649.393 672.827, 649.718 673.353 C 650.043 673.879, 649.830 674.013, 649.245 673.651 C 648.659 673.290, 647.467 673.267, 646.596 673.602 C 645.725 673.936, 645.303 674.682, 645.660 675.259 C 646.019 675.841, 645.834 676.015, 645.245 675.651 C 644.659 675.290, 643.467 675.267, 642.596 675.602 C 641.725 675.936, 641.303 676.682, 641.660 677.259 C 642.031 677.860, 641.831 678.014, 641.192 677.619 C 640.578 677.239, 637.808 678.077, 635.037 679.481 C 632.267 680.885, 630 682.426, 630 682.906 C 630 683.385, 629.420 683.715, 628.711 683.639 C 628.002 683.562, 619.700 687.294, 610.263 691.931 C 600.826 696.567, 593.376 700.799, 593.707 701.335 C 594.038 701.871, 593.811 702.001, 593.203 701.626 C 592.595 701.250, 582.625 705.682, 571.049 711.476 C 559.472 717.269, 550 722.443, 550 722.973 C 550 723.503, 549.360 723.692, 548.577 723.391 C 547.795 723.091, 546.257 723.743, 545.161 724.839 C 544.064 725.936, 542.904 726.571, 542.583 726.250 C 542.262 725.929, 542 726.218, 542 726.892 C 542 727.566, 541.572 727.853, 541.049 727.530 C 540.526 727.207, 530.288 731.881, 518.299 737.918 C 506.309 743.954, 496.950 748.988, 497.500 749.104 C 498.050 749.220, 545.206 749.398, 602.291 749.499 C 663.023 749.606, 706.419 750.059, 706.894 750.591 C 707.341 751.091, 707.304 756, 706.813 761.500 C 706.321 767, 706.068 772.931, 706.251 774.680 C 706.433 776.429, 706.185 777.615, 705.701 777.315 C 705.214 777.014, 704.972 779.691, 705.160 783.293 C 705.347 786.880, 705.221 789.642, 704.881 789.429 C 704.540 789.217, 703.695 796.209, 703.003 804.967 C 702.310 813.725, 702.021 821.613, 702.360 822.497 C 702.700 823.381, 702.626 823.887, 702.196 823.621 C 701.766 823.356, 700.160 837.620, 698.626 855.319 C 697.093 873.019, 694.757 900.100, 693.436 915.500 C 692.115 930.900, 689.002 967.350, 686.518 996.500 C 684.035 1025.650, 681.903 1050.400, 681.782 1051.500 C 681.661 1052.600, 681.955 1054.132, 682.435 1054.905 C 682.998 1055.809, 682.940 1056.081, 682.273 1055.669 C 681.599 1055.252, 680.988 1058.676, 680.526 1065.460 C 680.135 1071.197, 680.108 1076.366, 680.466 1076.946 C 680.825 1077.526, 680.641 1078, 680.059 1078 C 679.477 1078, 679 1079.811, 679 1082.025 C 679 1085.314, 678.576 1086.211, 676.681 1086.931 C 675.405 1087.416, 668.993 1089.254, 662.431 1091.015 C 655.869 1092.776, 650.275 1094.505, 650 1094.858 C 649.725 1095.211, 648.154 1095.600, 646.510 1095.721 C 644.865 1095.843, 643.364 1096.408, 643.174 1096.977 C 642.984 1097.547, 642.441 1097.772, 641.966 1097.479 C 641.491 1097.185, 639.055 1097.461, 636.551 1098.091 C 634.048 1098.722, 632 1099.661, 632 1100.178 C 632 1100.695, 631.628 1100.888, 631.173 1100.607 C 630.718 1100.326, 624.755 1101.603, 617.923 1103.445 C 611.090 1105.287, 597.850 1108.910, 588.500 1111.496 C 579.150 1114.081, 571.366 1116.555, 571.202 1116.992 C 571.038 1117.430, 570.026 1117.558, 568.952 1117.277 C 567.833 1116.985, 567 1117.269, 567 1117.942 C 567 1118.589, 566.571 1118.853, 566.046 1118.528 C 565.521 1118.204, 563.949 1118.226, 562.553 1118.576 C 561.137 1118.931, 560.300 1119.677, 560.661 1120.261 C 561.048 1120.887, 560.825 1121.010, 560.107 1120.566 C 559.446 1120.158, 556.676 1120.358, 553.953 1121.011 C 551.229 1121.665, 548.999 1122.492, 548.998 1122.850 C 548.996 1123.207, 547.554 1123.553, 545.792 1123.617 C 544.030 1123.681, 542.418 1124.246, 542.209 1124.873 C 542 1125.500, 541.430 1125.766, 540.943 1125.465 C 540.456 1125.164, 527.557 1128.366, 512.278 1132.582 C 497 1136.797, 483.488 1140.468, 482.250 1140.740 C 481.012 1141.011, 480 1141.657, 480 1142.176 C 480 1142.694, 479.583 1142.860, 479.073 1142.545 C 478.563 1142.230, 471.925 1143.727, 464.323 1145.872 L 450.500 1149.771 450 1207.981 C 449.725 1239.997, 449.725 1266.297, 450 1266.426 C 450.275 1266.555, 462.650 1263.362, 477.500 1259.331 C 492.350 1255.300, 512.825 1249.722, 523 1246.936 C 533.175 1244.149, 546.225 1240.566, 552 1238.973 C 557.775 1237.380, 571.050 1233.782, 581.500 1230.977 C 591.950 1228.173, 609.666 1223.413, 620.870 1220.400 C 632.073 1217.387, 645.064 1213.814, 649.738 1212.459 C 654.413 1211.104, 659.196 1209.800, 660.369 1209.560 C 661.541 1209.320, 664.975 1208.447, 668 1207.620 C 671.025 1206.793, 687.618 1202.285, 704.873 1197.602 C 722.128 1192.919, 736.371 1188.955, 736.524 1188.794 C 736.677 1188.632, 737.093 1185.575, 737.449 1182 C 737.805 1178.425, 738.273 1173.925, 738.489 1172 C 738.705 1170.075, 739.142 1164.900, 739.459 1160.500 C 739.776 1156.100, 740.244 1150.475, 740.498 1148 C 740.752 1145.525, 741.181 1141.250, 741.450 1138.500 C 741.720 1135.750, 742.240 1129.900, 742.606 1125.500 C 742.972 1121.100, 743.386 1116.375, 743.526 1115 C 743.666 1113.625, 744.060 1109.125, 744.402 1105 C 744.745 1100.875, 745.269 1094.800, 745.566 1091.500 C 745.864 1088.200, 746.305 1083.475, 746.546 1081 C 746.787 1078.525, 747.191 1074.250, 747.444 1071.500 C 747.697 1068.750, 748.200 1063.125, 748.562 1059 C 748.924 1054.875, 749.360 1050.150, 749.530 1048.500 C 749.700 1046.850, 750.125 1041.675, 750.474 1037 C 750.823 1032.325, 751.294 1027.375, 751.521 1026 C 751.748 1024.625, 752.209 1019.675, 752.545 1015 C 752.881 1010.325, 753.340 1004.700, 753.564 1002.500 C 753.789 1000.300, 754.204 995.913, 754.486 992.750 C 754.769 989.587, 755.230 984.188, 755.512 980.750 C 755.793 977.313, 756.226 972.475, 756.474 970 C 756.721 967.525, 757.200 962.125, 757.538 958 C 757.876 953.875, 758.313 948.925, 758.510 947 C 758.707 945.075, 759.124 940.350, 759.436 936.500 C 759.749 932.650, 760.250 926.575, 760.551 923 C 760.851 919.425, 761.260 915.150, 761.458 913.500 C 761.657 911.850, 762.133 906.225, 762.517 901 C 762.901 895.775, 763.346 890.814, 763.507 889.976 C 763.667 889.137, 764.100 884.187, 764.469 878.976 C 764.838 873.764, 765.301 868.375, 765.497 867 C 765.694 865.625, 766.136 860.675, 766.480 856 C 766.823 851.325, 767.284 845.925, 767.504 844 C 767.724 842.075, 768.150 837.688, 768.452 834.250 C 768.753 830.813, 769.225 825.300, 769.500 822 C 769.775 818.700, 770.236 813.188, 770.524 809.750 C 770.812 806.313, 771.251 801.475, 771.500 799 C 771.749 796.525, 772.210 791.575, 772.524 788 C 772.839 784.425, 773.276 779.925, 773.495 778 C 773.714 776.075, 774.192 770.225, 774.558 765 C 774.923 759.775, 775.374 754.701, 775.559 753.724 C 775.744 752.747, 776.149 748.697, 776.460 744.724 C 776.771 740.751, 777.267 734.800, 777.562 731.500 C 777.858 728.200, 778.285 723.700, 778.511 721.500 C 778.737 719.300, 779.197 713.900, 779.533 709.500 C 779.869 705.100, 780.304 699.925, 780.500 698 C 780.696 696.075, 781.135 691.125, 781.476 687 C 781.817 682.875, 782.299 677.250, 782.546 674.500 C 782.794 671.750, 783.210 667.475, 783.472 665 C 783.733 662.525, 784.218 656.745, 784.549 652.157 C 784.880 647.568, 785.296 643.057, 785.475 642.132 C 785.653 641.208, 786.108 636.412, 786.486 631.476 C 786.864 626.539, 787.310 621.150, 787.477 619.500 C 787.643 617.850, 788.075 613.125, 788.436 609 C 788.796 604.875, 789.287 599.025, 789.526 596 C 789.766 592.975, 790.178 588.475, 790.442 586 C 790.707 583.525, 791.183 578.125, 791.500 574 C 791.817 569.875, 792.284 564.362, 792.538 561.750 C 792.792 559.138, 793.208 554.862, 793.462 552.250 C 793.716 549.638, 794.181 544.125, 794.495 540 C 794.810 535.875, 795.262 530.925, 795.500 529 C 795.738 527.075, 796.185 522.125, 796.493 518 C 796.801 513.875, 797.255 508.475, 797.502 506 C 797.750 503.525, 798.204 498.575, 798.512 495 C 798.820 491.425, 799.260 486.475, 799.490 484 C 799.720 481.525, 800.145 476.800, 800.435 473.500 C 800.725 470.200, 801.212 464.575, 801.517 461 C 801.822 457.425, 802.268 452.475, 802.509 450 C 802.750 447.525, 803.163 443.025, 803.428 440 C 803.693 436.975, 804.203 431.012, 804.561 426.750 L 805.211 419 627.772 419 C 530.181 419, 450.146 419.187, 449.917 419.416 M 236.750 638.750 C 267.137 638.897, 316.862 638.897, 347.250 638.750 C 377.637 638.603, 352.775 638.483, 292 638.483 C 231.225 638.483, 206.362 638.603, 236.750 638.750 M 263.172 862.750 C 297.092 862.896, 352.892 862.896, 387.172 862.750 C 421.453 862.604, 393.700 862.485, 325.500 862.485 C 257.300 862.484, 229.253 862.604, 263.172 862.750 M 449.923 948.500 C 449.881 995.800, 449.703 1035.242, 449.527 1036.150 C 449.236 1037.648, 449.817 1037.623, 455.853 1035.875 C 459.509 1034.816, 464.525 1033.438, 467 1032.813 C 469.475 1032.188, 471.725 1031.411, 472 1031.088 C 472.275 1030.765, 473.175 1030.500, 474 1030.500 C 474.825 1030.500, 483.681 1028.268, 493.679 1025.540 C 503.678 1022.812, 511.679 1020.290, 511.460 1019.935 C 511.240 1019.580, 512.239 1019.514, 513.679 1019.789 C 515.359 1020.111, 516.064 1019.913, 515.647 1019.238 C 515.242 1018.583, 515.751 1018.384, 516.999 1018.710 C 518.099 1018.998, 519 1018.773, 519 1018.210 C 519 1017.648, 519.970 1017.441, 521.156 1017.751 C 522.538 1018.112, 523.076 1017.933, 522.655 1017.251 C 522.241 1016.581, 522.738 1016.380, 523.999 1016.710 C 525.099 1016.998, 526 1016.773, 526 1016.210 C 526 1015.648, 526.900 1015.423, 528 1015.710 C 529.100 1015.998, 530 1015.745, 530 1015.148 C 530 1014.551, 530.675 1014.322, 531.500 1014.638 C 532.325 1014.955, 533 1014.758, 533 1014.201 C 533 1013.643, 533.900 1013.423, 535 1013.710 C 536.100 1013.998, 537 1013.773, 537 1013.210 C 537 1012.648, 537.970 1012.441, 539.156 1012.751 C 540.538 1013.112, 541.076 1012.933, 540.655 1012.251 C 540.234 1011.569, 540.772 1011.389, 542.155 1011.751 C 543.623 1012.135, 544.086 1011.949, 543.604 1011.169 C 543.154 1010.440, 543.431 1010.228, 544.365 1010.587 C 545.173 1010.897, 548.571 1010.382, 551.917 1009.443 C 555.263 1008.505, 558 1007.388, 558 1006.962 C 558 1006.536, 558.900 1006.423, 560 1006.710 C 561.100 1006.998, 562 1006.773, 562 1006.210 C 562 1005.648, 562.970 1005.441, 564.156 1005.751 C 565.763 1006.171, 566.106 1005.980, 565.502 1005.003 C 564.951 1004.112, 565.080 1003.931, 565.902 1004.440 C 566.569 1004.851, 568.174 1004.922, 569.469 1004.597 C 571.581 1004.067, 571.805 1003.495, 571.633 999.080 C 571.527 996.371, 571.840 994.401, 572.328 994.703 C 572.825 995.010, 573.051 991.944, 572.843 987.712 C 572.638 983.566, 572.848 980.406, 573.308 980.690 C 573.769 980.975, 574.061 978.349, 573.958 974.854 C 573.856 971.359, 574.095 967.716, 574.490 966.758 C 574.885 965.800, 575.032 962.120, 574.818 958.581 C 574.603 955.042, 574.806 952.380, 575.269 952.666 C 575.732 952.953, 576.147 950.107, 576.190 946.343 C 576.234 942.580, 576.322 936.012, 576.385 931.749 C 576.448 927.486, 576.861 923.999, 577.301 923.999 C 577.742 924, 578.099 921.638, 578.094 918.750 C 578.088 915.862, 578.224 910.077, 578.394 905.894 C 578.564 901.711, 579.019 897.779, 579.404 897.156 C 579.789 896.533, 580.084 893.655, 580.060 890.762 C 580.036 887.868, 580.218 881.650, 580.465 876.944 C 580.712 872.239, 581.200 867.641, 581.551 866.727 C 581.902 865.814, 582.008 864.524, 581.787 863.862 C 581.480 862.940, 565.974 862.639, 515.693 862.579 L 450 862.500 449.923 948.500" stroke="none" fill="#14a0db" fill-rule="evenodd"/><path d="M 186.523 180.250 L 186.545 262.500 264.273 262.756 L 342 263.012 342 241.006 L 342 219 286 219 L 230 219 230 180 L 230 141 286 141 L 342 141 342 119.500 L 342 98 264.250 98 L 186.500 98 186.523 180.250 M 367 149 L 367 200 423 200 L 479 200 479 209.500 L 479 219 423 219 L 367 219 367 241.006 L 367 263.012 444.519 262.756 L 522.038 262.500 522.038 212 L 522.039 161.500 466.269 161 L 410.500 160.500 410.214 150.750 L 409.928 141 466.214 141 L 522.500 141 522.500 119.500 L 522.500 98 444.750 98 L 367 98 367 149 M 547 149 L 547 200 603 200 L 659 200 659 209.500 L 659 219 603 219 L 547 219 547 241 L 547 263 625 263 L 703 263 703 212 L 703 161 647.107 161 C 603.280 161, 591.125 160.730, 590.800 159.750 C 590.572 159.063, 590.411 154.675, 590.443 150 L 590.500 141.500 646.750 141.242 L 703 140.983 703 119.492 L 703 98 625 98 L 547 98 547 149" stroke="none" fill="#010101" fill-rule="evenodd"/><path d="M 0 721.501 L 0 1443.002 450.250 1442.751 L 900.500 1442.500 900.751 721.250 L 901.001 0 450.501 0 L 0 0 0 721.501 M 0.497 722 C 0.497 1118.825, 0.611 1281.163, 0.750 1082.750 C 0.889 884.338, 0.889 559.663, 0.750 361.250 C 0.611 162.838, 0.497 325.175, 0.497 722 M 186.460 98.250 C 186.198 98.938, 186.100 136.293, 186.242 181.262 L 186.500 263.025 264.250 263.262 C 307.013 263.393, 342.113 263.167, 342.250 262.759 C 342.388 262.352, 342.370 252.339, 342.212 240.509 L 341.924 219 285.962 219 L 230 219 230 179.984 L 230 140.968 285.750 141.016 C 316.413 141.043, 341.613 140.825, 341.750 140.532 C 341.887 140.240, 342 130.325, 342 118.500 L 342 97 264.469 97 C 203.365 97, 186.836 97.265, 186.460 98.250 M 366.673 97.661 C 366.303 98.031, 366 121.208, 366 149.167 L 366 200 422.519 200 L 479.038 200 478.769 209.487 L 478.500 218.974 422.500 219.237 L 366.500 219.500 366.230 241.250 L 365.961 263 444.480 263 L 523 263 523 212 L 523 161 515.750 160.905 C 511.762 160.853, 486.563 160.788, 459.750 160.760 L 411 160.710 411 150.855 L 411 141 467.020 141 L 523.039 141 522.770 119.250 L 522.500 97.500 444.923 97.244 C 402.255 97.103, 367.043 97.291, 366.673 97.661 M 547 148.500 L 547 200 603 200 L 659 200 659 209.500 L 659 219 603 219 L 547 219 547 241 L 547 263 625 263 L 703 263 703 212 L 703 161 695.750 160.905 C 691.763 160.853, 666.563 160.788, 639.750 160.760 L 591 160.710 591 150.855 L 591 141 647 141 L 703 141 703 119 L 703 97 625 97 L 547 97 547 148.500 M 6.374 346.750 C 6.687 349.913, 7.389 357.225, 7.932 363 C 8.476 368.775, 9.180 376.650, 9.497 380.500 C 9.814 384.350, 10.718 394.925, 11.507 404 C 12.296 413.075, 13.395 426.125, 13.950 433 C 14.504 439.875, 18.782 489.600, 23.456 543.500 C 28.131 597.400, 32.646 649.375, 33.490 659 C 34.335 668.625, 36.808 697.650, 38.986 723.500 C 41.164 749.350, 43.397 775.225, 43.949 781 C 44.500 786.775, 45.211 794.650, 45.530 798.500 C 45.848 802.350, 46.311 807.525, 46.559 810 C 46.807 812.475, 49.469 842.850, 52.475 877.500 C 55.480 912.150, 59.538 959.400, 61.493 982.500 C 63.447 1005.600, 65.473 1029.450, 65.995 1035.500 C 66.517 1041.550, 68.078 1060, 69.466 1076.500 C 70.853 1093, 72.225 1108.525, 72.515 1111 C 72.805 1113.475, 73.708 1123.375, 74.522 1133 C 75.336 1142.625, 76.652 1157.700, 77.445 1166.500 C 78.239 1175.300, 80.059 1195.983, 81.490 1212.462 C 82.921 1228.942, 84.183 1242.487, 84.296 1242.563 C 84.408 1242.638, 86.300 1243.164, 88.500 1243.730 C 90.700 1244.296, 114.550 1250.916, 141.500 1258.440 C 168.450 1265.964, 197.700 1274.148, 206.500 1276.626 C 215.300 1279.103, 231.050 1283.549, 241.500 1286.505 C 251.950 1289.461, 272.875 1295.301, 288 1299.483 C 303.125 1303.665, 332.150 1311.786, 352.500 1317.531 C 372.850 1323.276, 403 1331.738, 419.500 1336.336 L 449.500 1344.695 456 1342.826 C 459.575 1341.798, 476.450 1337.107, 493.500 1332.402 C 510.550 1327.697, 534.400 1321.004, 546.500 1317.528 C 558.600 1314.052, 574.575 1309.539, 582 1307.499 C 589.425 1305.460, 608.325 1300.184, 624 1295.777 C 639.675 1291.369, 657 1286.516, 662.500 1284.993 C 668 1283.470, 683.075 1279.272, 696 1275.666 C 708.925 1272.059, 733.450 1265.234, 750.500 1260.499 C 767.550 1255.764, 788.700 1249.836, 797.500 1247.325 C 806.300 1244.814, 813.805 1242.477, 814.178 1242.130 C 814.552 1241.784, 815.560 1233.400, 816.418 1223.500 C 817.277 1213.600, 818.659 1197.850, 819.490 1188.500 C 820.320 1179.150, 823.454 1143.375, 826.453 1109 C 829.453 1074.625, 833.501 1027.825, 835.449 1005 C 837.397 982.175, 839.898 952.925, 841.007 940 C 842.116 927.075, 844.808 896.025, 846.988 871 C 849.169 845.975, 852.519 807.725, 854.432 786 C 856.345 764.275, 859.061 733, 860.466 716.500 C 861.872 700, 866.632 644.650, 871.044 593.500 C 875.455 542.350, 879.943 490.150, 881.017 477.500 C 882.090 464.850, 883.217 452.475, 883.521 450 C 883.825 447.525, 884.715 437.400, 885.500 427.500 C 886.285 417.600, 887.372 404.550, 887.915 398.500 C 888.459 392.450, 889.610 378.950, 890.473 368.500 C 891.336 358.050, 892.285 347.587, 892.582 345.250 L 893.123 341 449.463 341 L 5.804 341 6.374 346.750 M 172 528.931 C 172 530.543, 172.920 541.906, 174.044 554.181 C 175.169 566.457, 176.977 586.625, 178.062 599 C 179.148 611.375, 180.320 625.211, 180.666 629.746 L 181.296 637.991 293.205 638.246 L 405.113 638.500 298.306 691.869 C 239.563 721.221, 191.325 745.396, 191.112 745.590 C 190.898 745.784, 192.822 770.368, 195.388 800.222 C 197.953 830.075, 200.300 856.300, 200.603 858.500 L 201.154 862.500 391.172 862.500 C 495.682 862.500, 581.321 862.725, 581.481 863 C 581.641 863.275, 581.173 872.275, 580.440 883 C 579.708 893.725, 578.856 905.650, 578.547 909.500 C 578.238 913.350, 576.614 936.063, 574.937 959.973 C 573.260 983.883, 571.728 1003.605, 571.534 1003.799 C 571.339 1003.994, 568.102 1004.965, 564.340 1005.957 C 560.578 1006.949, 541.975 1012.076, 523 1017.349 C 504.025 1022.623, 479.725 1029.346, 469 1032.289 L 449.500 1037.639 443 1035.917 C 439.425 1034.971, 426.600 1031.467, 414.500 1028.133 C 402.400 1024.798, 377.975 1018.066, 360.222 1013.173 C 342.469 1008.281, 327.678 1004.011, 327.351 1003.685 C 327.025 1003.359, 325.727 988.559, 324.467 970.796 C 323.206 953.033, 321.852 933.438, 321.459 927.250 L 320.743 916 263.371 916 L 206 916 206.021 919.250 C 206.032 921.038, 206.712 929.925, 207.531 939 C 208.351 948.075, 209.482 961.125, 210.045 968 C 210.608 974.875, 211.917 989.950, 212.954 1001.500 C 213.990 1013.050, 215.377 1028.800, 216.034 1036.500 C 216.692 1044.200, 217.965 1058.595, 218.865 1068.488 L 220.500 1086.476 230.500 1089.262 C 236 1090.794, 261.650 1097.913, 287.500 1105.081 C 313.350 1112.250, 353.175 1123.245, 376 1129.514 C 398.825 1135.783, 424.662 1142.954, 433.416 1145.450 C 447.664 1149.512, 449.761 1149.874, 453.416 1148.909 C 455.662 1148.316, 466.050 1145.417, 476.500 1142.466 C 486.950 1139.516, 520.250 1130.284, 550.500 1121.951 C 580.750 1113.618, 610.900 1105.321, 617.500 1103.513 C 624.100 1101.705, 640.300 1097.220, 653.500 1093.546 C 666.700 1089.872, 677.800 1086.559, 678.166 1086.183 C 678.533 1085.807, 679.335 1079.425, 679.949 1072 C 680.563 1064.575, 681.273 1056.475, 681.527 1054 C 681.780 1051.525, 683.567 1030.825, 685.498 1008 C 687.429 985.175, 689.685 958.850, 690.511 949.500 C 691.337 940.150, 694.745 901, 698.083 862.500 C 701.422 824, 704.961 783.275, 705.948 772 C 706.936 760.725, 707.437 751.158, 707.063 750.741 C 706.688 750.323, 658.821 750.098, 600.691 750.241 C 542.561 750.383, 495 750.271, 495 749.992 C 495 749.713, 545.005 724.519, 606.122 694.007 C 667.239 663.494, 717.383 638.073, 717.553 637.515 C 717.724 636.957, 719.921 612.650, 722.437 583.500 C 724.952 554.350, 727.008 529.487, 727.005 528.250 L 727 526 449.500 526 L 172 526 172 528.931" stroke="none" fill="#f0f0f0" fill-opacity='0' fill-rule="evenodd"/><path d="M 6.632 341.701 C 6.521 341.812, 7.422 353.287, 8.634 367.201 C 9.845 381.116, 12.470 411.850, 14.468 435.500 C 16.465 459.150, 21.006 512.025, 24.560 553 C 28.113 593.975, 31.885 636.950, 32.942 648.500 C 33.999 660.050, 35.135 673.325, 35.467 678 C 35.799 682.675, 36.279 688.075, 36.533 690 C 36.788 691.925, 38.808 715.100, 41.023 741.500 C 43.238 767.900, 48.414 828.425, 52.526 876 C 56.638 923.575, 60.891 972.625, 61.976 985 C 63.061 997.375, 65.543 1026.175, 67.492 1049 C 69.440 1071.825, 71.701 1097.925, 72.515 1107 C 73.329 1116.075, 76.249 1149.600, 79.004 1181.500 C 81.759 1213.400, 84.122 1240.126, 84.256 1240.892 C 84.418 1241.817, 95.569 1245.371, 117.500 1251.486 C 135.650 1256.547, 165.350 1264.850, 183.500 1269.936 C 201.650 1275.022, 236.300 1284.742, 260.500 1291.535 C 284.700 1298.329, 321.600 1308.684, 342.500 1314.545 C 363.400 1320.407, 385.900 1326.677, 392.500 1328.479 C 399.100 1330.280, 414.264 1334.510, 426.198 1337.877 C 438.132 1341.245, 448.615 1344, 449.493 1344 C 450.371 1344, 470.982 1338.404, 495.295 1331.564 C 519.608 1324.725, 561.325 1313.030, 588 1305.575 C 614.675 1298.121, 651.125 1287.943, 669 1282.958 C 686.875 1277.972, 719.950 1268.706, 742.500 1262.366 C 765.050 1256.027, 790.025 1249.045, 798 1246.852 C 805.975 1244.659, 812.964 1242.722, 813.530 1242.548 C 814.144 1242.359, 816.719 1217.441, 819.904 1180.866 C 822.843 1147.115, 825.850 1112.750, 826.585 1104.500 C 827.321 1096.250, 829.759 1068.125, 832.003 1042 C 834.247 1015.875, 839.227 958.050, 843.069 913.500 C 846.912 868.950, 852.077 809.100, 854.549 780.500 C 857.020 751.900, 859.494 723.325, 860.048 717 C 860.601 710.675, 861.915 695.375, 862.968 683 C 864.021 670.625, 868.723 616.400, 873.417 562.500 C 878.111 508.600, 883.773 442.900, 885.998 416.500 C 888.224 390.100, 890.485 363.775, 891.022 358 C 891.559 352.225, 891.999 346.150, 891.999 344.500 L 892 341.500 449.417 341.500 C 205.996 341.500, 6.743 341.591, 6.632 341.701 M 449.983 419.750 C 449.974 420.163, 449.981 444.238, 450 473.250 L 450.033 526 310.612 526 L 171.190 526 171.633 529.750 C 171.877 531.813, 174.095 556.888, 176.562 585.474 C 179.029 614.059, 181.402 637.802, 181.837 638.237 C 182.271 638.671, 232.435 638.908, 293.313 638.763 C 354.191 638.618, 404 638.612, 404 638.749 C 404 638.886, 355.923 663.038, 297.161 692.419 C 190.794 745.605, 190.325 745.853, 190.677 748.670 C 190.871 750.227, 191.674 759.150, 192.460 768.500 C 193.247 777.850, 195.293 801.925, 197.007 822 C 198.722 842.075, 200.330 859.513, 200.581 860.750 L 201.038 863 325.530 863 L 450.021 863 449.989 950 C 449.966 1012.377, 449.647 1037, 448.862 1037 C 448.259 1037, 434.431 1033.365, 418.133 1028.923 C 401.835 1024.481, 379.275 1018.226, 368 1015.024 C 356.725 1011.822, 343 1007.989, 337.500 1006.507 C 332 1005.025, 327.389 1003.706, 327.253 1003.576 C 327.118 1003.446, 325.887 987.401, 324.519 967.920 C 323.151 948.439, 321.746 928.788, 321.398 924.250 L 320.763 916 262.870 916 L 204.976 916 205.518 919.750 C 205.816 921.813, 208.755 955.225, 212.050 994 C 215.344 1032.775, 218.543 1069.525, 219.158 1075.666 L 220.276 1086.832 224.888 1087.981 C 227.425 1088.613, 239.625 1092.003, 252 1095.515 C 264.375 1099.027, 294.975 1107.518, 320 1114.384 C 345.025 1121.250, 384.275 1132.073, 407.222 1138.434 C 430.169 1144.795, 449.188 1150, 449.487 1150 C 449.786 1150, 450.021 1176.213, 450.009 1208.250 C 449.998 1240.287, 450.328 1266.435, 450.744 1266.356 C 451.160 1266.276, 463.650 1262.960, 478.500 1258.986 C 493.350 1255.012, 512.475 1249.815, 521 1247.437 C 529.525 1245.059, 539.875 1242.233, 544 1241.158 C 548.125 1240.082, 562.525 1236.203, 576 1232.537 C 589.475 1228.871, 609.666 1223.408, 620.870 1220.397 C 632.073 1217.386, 645.064 1213.814, 649.738 1212.459 C 654.413 1211.104, 659.196 1209.800, 660.369 1209.560 C 661.541 1209.320, 664.975 1208.447, 668 1207.620 C 671.025 1206.793, 687.618 1202.285, 704.873 1197.602 C 722.128 1192.919, 736.371 1188.955, 736.524 1188.794 C 736.677 1188.632, 737.093 1185.575, 737.449 1182 C 737.805 1178.425, 738.273 1173.925, 738.489 1172 C 738.705 1170.075, 739.142 1164.900, 739.459 1160.500 C 739.776 1156.100, 740.244 1150.475, 740.498 1148 C 740.752 1145.525, 741.181 1141.250, 741.450 1138.500 C 741.720 1135.750, 742.240 1129.900, 742.606 1125.500 C 742.972 1121.100, 743.386 1116.375, 743.526 1115 C 743.666 1113.625, 744.060 1109.125, 744.402 1105 C 744.745 1100.875, 745.269 1094.800, 745.566 1091.500 C 745.864 1088.200, 746.305 1083.475, 746.546 1081 C 746.787 1078.525, 747.191 1074.250, 747.444 1071.500 C 747.697 1068.750, 748.200 1063.125, 748.562 1059 C 748.924 1054.875, 749.360 1050.150, 749.530 1048.500 C 749.700 1046.850, 750.125 1041.675, 750.474 1037 C 750.823 1032.325, 751.294 1027.375, 751.521 1026 C 751.748 1024.625, 752.209 1019.675, 752.545 1015 C 752.881 1010.325, 753.340 1004.700, 753.564 1002.500 C 753.789 1000.300, 754.204 995.913, 754.486 992.750 C 754.769 989.587, 755.230 984.188, 755.512 980.750 C 755.793 977.313, 756.226 972.475, 756.474 970 C 756.721 967.525, 757.200 962.125, 757.538 958 C 757.876 953.875, 758.313 948.925, 758.510 947 C 758.707 945.075, 759.124 940.350, 759.436 936.500 C 759.749 932.650, 760.250 926.575, 760.551 923 C 760.851 919.425, 761.260 915.150, 761.458 913.500 C 761.657 911.850, 762.133 906.225, 762.517 901 C 762.901 895.775, 763.346 890.814, 763.507 889.976 C 763.667 889.137, 764.100 884.187, 764.469 878.976 C 764.838 873.764, 765.301 868.375, 765.497 867 C 765.694 865.625, 766.136 860.675, 766.480 856 C 766.823 851.325, 767.284 845.925, 767.504 844 C 767.724 842.075, 768.150 837.688, 768.452 834.250 C 768.753 830.813, 769.225 825.300, 769.500 822 C 769.775 818.700, 770.236 813.188, 770.524 809.750 C 770.812 806.313, 771.251 801.475, 771.500 799 C 771.749 796.525, 772.210 791.575, 772.524 788 C 772.839 784.425, 773.276 779.925, 773.495 778 C 773.714 776.075, 774.192 770.225, 774.558 765 C 774.923 759.775, 775.374 754.701, 775.559 753.724 C 775.744 752.747, 776.149 748.697, 776.460 744.724 C 776.771 740.751, 777.267 734.800, 777.562 731.500 C 777.858 728.200, 778.285 723.700, 778.511 721.500 C 778.737 719.300, 779.197 713.900, 779.533 709.500 C 779.869 705.100, 780.304 699.925, 780.500 698 C 780.696 696.075, 781.135 691.125, 781.476 687 C 781.817 682.875, 782.299 677.250, 782.546 674.500 C 782.794 671.750, 783.210 667.475, 783.472 665 C 783.733 662.525, 784.218 656.745, 784.549 652.157 C 784.880 647.568, 785.296 643.057, 785.475 642.132 C 785.653 641.208, 786.108 636.412, 786.486 631.476 C 786.864 626.539, 787.310 621.150, 787.477 619.500 C 787.643 617.850, 788.075 613.125, 788.436 609 C 788.796 604.875, 789.287 599.025, 789.526 596 C 789.766 592.975, 790.178 588.475, 790.442 586 C 790.707 583.525, 791.183 578.125, 791.500 574 C 791.817 569.875, 792.284 564.362, 792.538 561.750 C 792.792 559.138, 793.208 554.862, 793.462 552.250 C 793.716 549.638, 794.181 544.125, 794.495 540 C 794.810 535.875, 795.262 530.925, 795.500 529 C 795.738 527.075, 796.185 522.125, 796.493 518 C 796.801 513.875, 797.255 508.475, 797.502 506 C 797.750 503.525, 798.204 498.575, 798.512 495 C 798.820 491.425, 799.260 486.475, 799.490 484 C 799.720 481.525, 800.145 476.800, 800.435 473.500 C 800.725 470.200, 801.212 464.575, 801.517 461 C 801.822 457.425, 802.268 452.475, 802.509 450 C 802.750 447.525, 803.163 443.025, 803.428 440 C 803.693 436.975, 804.203 431.012, 804.561 426.750 L 805.211 419 627.606 419 C 529.923 419, 449.992 419.337, 449.983 419.750" stroke="none" fill="#086eb0" fill-rule="evenodd"/></svg>