<svg xmlns="http://www.w3.org/2000/svg" width="348" height="348" viewBox="0 0 240 240" version="1.1"><path d="M 56.219 75.250 L 56.500 87.500 63.486 87.500 C 69.255 87.500, 70.529 87.205, 70.799 85.807 C 71.062 84.438, 70.205 84.056, 66.312 83.807 C 61.688 83.512, 61.488 83.373, 61.187 80.250 C 60.880 77.065, 60.955 77, 64.937 77 C 68.333 77, 69 76.672, 69 75 C 69 73.333, 68.333 73, 65 73 C 61.222 73, 61 72.833, 61 70 C 61 67.067, 61.111 67, 66 67 C 70.333 67, 71 66.733, 71 65 C 71 63.177, 70.333 63, 63.469 63 L 55.938 63 56.219 75.250 M 74.998 68.995 L 78.024 74.991 75.075 81.495 L 72.125 88 74.911 88 C 77.249 88, 77.976 87.317, 79.433 83.750 L 81.170 79.500 83.044 83.750 C 84.569 87.208, 85.411 88, 87.566 88 C 89.302 88, 90.030 87.569, 89.681 86.750 C 89.388 86.063, 88.124 83.133, 86.871 80.239 L 84.594 74.978 87.297 69.467 C 88.784 66.436, 90 63.741, 90 63.478 C 90 63.215, 88.743 63, 87.207 63 C 84.835 63, 84.174 63.642, 82.832 67.250 L 81.250 71.500 79.516 67.250 C 78.037 63.623, 77.357 63, 74.877 63 L 71.971 63 74.998 68.995 M 93 75.500 L 93 88 95.500 88 C 97.796 88, 98 87.633, 98 83.500 C 98 79.024, 98.019 79, 101.500 79 C 103.667 79, 105.762 78.238, 107 77 C 108.321 75.679, 109 73.667, 109 71.073 C 109 68.021, 108.413 66.683, 106.365 65.073 C 104.443 63.561, 102.279 63, 98.365 63 L 93 63 93 75.500 M 113 75.500 L 113 88 115.500 88 C 117.796 88, 118 87.633, 118 83.500 C 118 80.366, 118.414 79, 119.364 79 C 120.114 79, 121.502 81.025, 122.447 83.500 C 123.829 87.118, 124.639 88, 126.583 88 C 127.912 88, 129 87.599, 129 87.109 C 129 86.619, 128.125 84.264, 127.056 81.876 C 125.248 77.839, 125.227 77.406, 126.756 75.717 C 127.660 74.718, 128.400 72.290, 128.400 70.321 C 128.400 67.788, 127.725 66.195, 126.089 64.871 C 124.470 63.560, 122.165 63, 118.389 63 L 113 63 113 75.500 M 132 75.500 L 132 88 139 88 C 145.333 88, 146 87.810, 146 86 C 146 84.296, 145.333 84, 141.500 84 C 137.024 84, 137 83.981, 137 80.500 C 137 77.083, 137.095 77, 141 77 C 144.333 77, 145 76.667, 145 75 C 145 73.333, 144.333 73, 141 73 C 137.222 73, 137 72.833, 137 70 C 137 67.111, 137.167 67, 141.500 67 C 145.333 67, 146 66.704, 146 65 C 146 63.190, 145.333 63, 139 63 L 132 63 132 75.500 M 151.573 64.570 C 150.709 65.433, 149.739 67.191, 149.416 68.477 C 149.094 69.762, 149.303 71.697, 149.880 72.777 C 150.458 73.856, 152.459 75.465, 154.328 76.351 C 156.196 77.238, 158.287 78.641, 158.974 79.469 C 159.661 80.297, 159.963 81.655, 159.643 82.487 C 159.324 83.319, 158.107 84, 156.938 84 C 155.654 84, 154.606 83.208, 154.290 82 C 153.951 80.706, 152.926 80, 151.383 80 C 149.697 80, 149 80.563, 149 81.927 C 149 82.988, 150.186 84.788, 151.635 85.927 C 153.084 87.067, 155.579 88, 157.180 88 C 158.937 88, 161.064 87.027, 162.545 85.545 C 163.895 84.195, 165 82.271, 165 81.268 C 165 80.265, 164.291 78.432, 163.424 77.194 C 162.557 75.957, 160.194 74.165, 158.174 73.214 C 155.750 72.073, 154.500 70.806, 154.500 69.492 C 154.500 68.186, 155.277 67.390, 156.754 67.180 C 158.107 66.988, 159.250 67.488, 159.611 68.430 C 159.943 69.293, 161.291 70, 162.607 70 C 163.923 70, 165 69.611, 165 69.135 C 165 68.659, 164.067 67.084, 162.927 65.635 C 161.329 63.602, 159.973 63, 156.999 63 C 154.828 63, 152.457 63.686, 151.573 64.570 M 170 65 C 168.900 66.100, 168 67.930, 168 69.066 C 168 70.202, 168.465 72, 169.033 73.062 C 169.602 74.125, 171.821 75.889, 173.966 76.982 C 176.110 78.076, 178.121 79.387, 178.435 79.895 C 178.749 80.404, 178.732 81.535, 178.396 82.410 C 178.061 83.284, 176.950 84, 175.928 84 C 174.906 84, 173.589 83.100, 173 82 C 172.384 80.848, 170.906 80, 169.517 80 C 167.296 80, 167.183 80.228, 168.102 82.862 C 168.651 84.436, 170.223 86.236, 171.597 86.862 C 172.970 87.488, 175.148 88, 176.436 88 C 177.724 88, 179.689 87.213, 180.802 86.250 C 181.915 85.287, 183.080 83.600, 183.391 82.500 C 183.702 81.400, 183.404 79.404, 182.728 78.065 C 182.053 76.727, 179.700 74.698, 177.500 73.557 C 174.881 72.199, 173.500 70.800, 173.500 69.505 C 173.500 68.356, 174.297 67.374, 175.403 67.161 C 176.449 66.959, 177.709 67.516, 178.202 68.397 C 178.696 69.279, 180.188 70, 181.518 70 C 183.392 70, 183.797 69.605, 183.317 68.250 C 182.975 67.287, 182.020 65.713, 181.193 64.750 C 180.246 63.647, 178.268 63, 175.845 63 C 173.333 63, 171.306 63.694, 170 65 M 98 71 C 98 74.919, 98.143 75.116, 100.750 74.816 C 103.166 74.538, 103.500 74.075, 103.500 71 C 103.500 67.925, 103.166 67.462, 100.750 67.184 C 98.143 66.884, 98 67.081, 98 71 M 118 71 C 118 73.800, 118.429 75, 119.429 75 C 120.214 75, 121.564 74.293, 122.429 73.429 C 123.293 72.564, 124 71.304, 124 70.629 C 124 69.953, 123.460 68.860, 122.800 68.200 C 122.140 67.540, 120.790 67, 119.800 67 C 118.367 67, 118 67.815, 118 71 M 110.809 138.590 L 110.500 166.179 108.139 168.090 C 106.841 169.140, 104.255 170, 102.392 170 C 99.912 170, 97.945 169.042, 95.043 166.420 L 91.080 162.840 85.540 166.154 C 82.493 167.976, 80 170.124, 80 170.927 C 80 171.730, 82.443 174.753, 85.428 177.645 C 89.561 181.647, 92.223 183.300, 96.580 184.566 C 100.341 185.660, 103.881 186.017, 106.902 185.610 C 109.431 185.268, 113.512 183.959, 115.971 182.700 C 119.390 180.950, 121.095 179.160, 123.221 175.091 L 126 169.772 126 140.386 L 126 111 118.559 111 L 111.118 111 110.809 138.590 M 148.182 113.597 C 144.461 115.451, 142.260 117.406, 140.485 120.435 C 138.605 123.643, 138 126.099, 138 130.522 C 138 134.373, 138.700 137.815, 140.050 140.604 C 141.178 142.933, 143.626 146.003, 145.490 147.424 C 147.353 148.846, 153.141 151.988, 158.351 154.406 C 163.569 156.827, 168.313 159.715, 168.912 160.835 C 169.510 161.954, 170 163.819, 170 164.980 C 170 166.141, 168.895 168.195, 167.545 169.545 C 165.563 171.527, 164.081 172, 159.846 172 C 154.865 172, 154.373 171.756, 150.035 167.136 L 145.468 162.271 139.708 166.195 L 133.948 170.118 135.873 172.822 C 136.932 174.309, 139.081 176.824, 140.649 178.410 C 142.217 179.996, 145.525 182.221, 148 183.355 C 151.316 184.873, 154.605 185.426, 160.500 185.453 C 167.295 185.485, 169.367 185.066, 174.251 182.671 C 178.534 180.572, 180.622 178.785, 182.427 175.676 C 183.760 173.379, 185.157 169.825, 185.532 167.777 C 185.912 165.699, 185.666 161.776, 184.975 158.896 C 184.099 155.244, 182.624 152.624, 179.927 149.927 C 177.672 147.672, 171.896 144.100, 165.783 141.181 C 160.099 138.467, 154.842 135.515, 154.100 134.620 C 153.357 133.726, 152.750 131.855, 152.750 130.464 C 152.750 129.072, 153.551 127.049, 154.530 125.967 C 155.727 124.644, 157.602 124, 160.254 124 C 163.360 124, 164.802 124.647, 167.044 127.047 L 169.890 130.094 175.445 126.405 C 178.500 124.377, 181 122.422, 181 122.061 C 181 121.701, 179.313 119.762, 177.250 117.752 C 175.188 115.742, 171.827 113.401, 169.782 112.549 C 167.737 111.697, 163.213 111, 159.728 111 C 154.912 111, 152.143 111.623, 148.182 113.597" stroke="none" fill="#000000" fill-rule="evenodd"/><path d="M 96.500 1.993 C 91.550 2.997, 84.125 5.041, 80 6.535 C 75.875 8.030, 69.125 10.954, 65 13.034 C 60.875 15.114, 54.125 19.196, 50 22.104 C 45.875 25.013, 39.101 30.792, 34.946 34.946 C 30.792 39.101, 25.013 45.875, 22.104 50 C 19.196 54.125, 15.114 60.875, 13.034 65 C 10.954 69.125, 8.032 75.875, 6.540 80 C 5.048 84.125, 2.966 91.903, 1.913 97.285 C 0.626 103.869, -0 111.344, -0 120.128 C -0 129.281, 0.603 136.143, 2.016 143.077 C 3.124 148.517, 5.206 156.237, 6.642 160.234 C 8.078 164.230, 10.954 170.875, 13.034 175 C 15.114 179.125, 19.190 185.875, 22.092 190 C 24.995 194.125, 31.030 201.130, 35.504 205.566 C 39.978 210.002, 47.432 216.141, 52.069 219.206 C 56.706 222.272, 63.200 226.124, 66.500 227.765 C 69.800 229.407, 75.770 231.924, 79.766 233.359 C 83.763 234.795, 91.483 236.876, 96.923 237.984 C 103.886 239.403, 110.718 240, 120 240 C 129.282 240, 136.114 239.403, 143.077 237.984 C 148.517 236.876, 156.237 234.794, 160.234 233.358 C 164.230 231.922, 170.875 229.046, 175 226.966 C 179.125 224.886, 185.875 220.810, 190 217.908 C 194.125 215.005, 201.100 208.988, 205.500 204.537 C 209.900 200.085, 215.895 192.961, 218.821 188.705 C 221.748 184.449, 226.108 176.812, 228.509 171.734 C 230.911 166.655, 234.013 158.568, 235.402 153.763 C 236.791 148.957, 238.228 142.760, 238.596 139.990 C 238.963 137.221, 239.654 134.714, 240.132 134.419 C 240.609 134.123, 241 127.132, 241 118.882 C 241 110.582, 240.610 104.123, 240.126 104.422 C 239.646 104.719, 238.955 102.715, 238.590 99.968 C 238.226 97.221, 236.791 91.043, 235.402 86.237 C 234.013 81.432, 230.911 73.345, 228.509 68.266 C 226.108 63.188, 221.748 55.551, 218.821 51.295 C 215.895 47.039, 209.900 39.915, 205.500 35.463 C 201.100 31.012, 194.125 24.995, 190 22.092 C 185.875 19.190, 179.125 15.114, 175 13.034 C 170.875 10.954, 164.125 8.032, 160 6.540 C 155.875 5.048, 148.097 2.966, 142.715 1.913 C 135.772 0.556, 128.944 0.024, 119.215 0.084 C 110.207 0.140, 102.411 0.795, 96.500 1.993 M 56.219 75.250 L 56.500 87.500 63.486 87.500 C 69.255 87.500, 70.529 87.205, 70.799 85.807 C 71.062 84.438, 70.205 84.056, 66.312 83.807 C 61.688 83.512, 61.488 83.373, 61.187 80.250 C 60.880 77.065, 60.955 77, 64.937 77 C 68.333 77, 69 76.672, 69 75 C 69 73.333, 68.333 73, 65 73 C 61.222 73, 61 72.833, 61 70 C 61 67.067, 61.111 67, 66 67 C 70.333 67, 71 66.733, 71 65 C 71 63.177, 70.333 63, 63.469 63 L 55.938 63 56.219 75.250 M 74.998 68.995 L 78.024 74.991 75.075 81.495 L 72.125 88 74.911 88 C 77.249 88, 77.976 87.317, 79.433 83.750 L 81.170 79.500 83.044 83.750 C 84.569 87.208, 85.411 88, 87.566 88 C 89.302 88, 90.030 87.569, 89.681 86.750 C 89.388 86.063, 88.124 83.133, 86.871 80.239 L 84.594 74.978 87.297 69.467 C 88.784 66.436, 90 63.741, 90 63.478 C 90 63.215, 88.743 63, 87.207 63 C 84.835 63, 84.174 63.642, 82.832 67.250 L 81.250 71.500 79.516 67.250 C 78.037 63.623, 77.357 63, 74.877 63 L 71.971 63 74.998 68.995 M 93 75.500 L 93 88 95.500 88 C 97.796 88, 98 87.633, 98 83.500 C 98 79.024, 98.019 79, 101.500 79 C 103.667 79, 105.762 78.238, 107 77 C 108.321 75.679, 109 73.667, 109 71.073 C 109 68.021, 108.413 66.683, 106.365 65.073 C 104.443 63.561, 102.279 63, 98.365 63 L 93 63 93 75.500 M 113 75.500 L 113 88 115.500 88 C 117.796 88, 118 87.633, 118 83.500 C 118 80.366, 118.414 79, 119.364 79 C 120.114 79, 121.502 81.025, 122.447 83.500 C 123.829 87.118, 124.639 88, 126.583 88 C 127.912 88, 129 87.599, 129 87.109 C 129 86.619, 128.125 84.264, 127.056 81.876 C 125.248 77.839, 125.227 77.406, 126.756 75.717 C 127.660 74.718, 128.400 72.290, 128.400 70.321 C 128.400 67.788, 127.725 66.195, 126.089 64.871 C 124.470 63.560, 122.165 63, 118.389 63 L 113 63 113 75.500 M 132 75.500 L 132 88 139 88 C 145.333 88, 146 87.810, 146 86 C 146 84.296, 145.333 84, 141.500 84 C 137.024 84, 137 83.981, 137 80.500 C 137 77.083, 137.095 77, 141 77 C 144.333 77, 145 76.667, 145 75 C 145 73.333, 144.333 73, 141 73 C 137.222 73, 137 72.833, 137 70 C 137 67.111, 137.167 67, 141.500 67 C 145.333 67, 146 66.704, 146 65 C 146 63.190, 145.333 63, 139 63 L 132 63 132 75.500 M 151.573 64.570 C 150.709 65.433, 149.739 67.191, 149.416 68.477 C 149.094 69.762, 149.303 71.697, 149.880 72.777 C 150.458 73.856, 152.459 75.465, 154.328 76.351 C 156.196 77.238, 158.287 78.641, 158.974 79.469 C 159.661 80.297, 159.963 81.655, 159.643 82.487 C 159.324 83.319, 158.107 84, 156.938 84 C 155.654 84, 154.606 83.208, 154.290 82 C 153.951 80.706, 152.926 80, 151.383 80 C 149.697 80, 149 80.563, 149 81.927 C 149 82.988, 150.186 84.788, 151.635 85.927 C 153.084 87.067, 155.579 88, 157.180 88 C 158.937 88, 161.064 87.027, 162.545 85.545 C 163.895 84.195, 165 82.271, 165 81.268 C 165 80.265, 164.291 78.432, 163.424 77.194 C 162.557 75.957, 160.194 74.165, 158.174 73.214 C 155.750 72.073, 154.500 70.806, 154.500 69.492 C 154.500 68.186, 155.277 67.390, 156.754 67.180 C 158.107 66.988, 159.250 67.488, 159.611 68.430 C 159.943 69.293, 161.291 70, 162.607 70 C 163.923 70, 165 69.611, 165 69.135 C 165 68.659, 164.067 67.084, 162.927 65.635 C 161.329 63.602, 159.973 63, 156.999 63 C 154.828 63, 152.457 63.686, 151.573 64.570 M 170 65 C 168.900 66.100, 168 67.930, 168 69.066 C 168 70.202, 168.465 72, 169.033 73.062 C 169.602 74.125, 171.821 75.889, 173.966 76.982 C 176.110 78.076, 178.121 79.387, 178.435 79.895 C 178.749 80.404, 178.732 81.535, 178.396 82.410 C 178.061 83.284, 176.950 84, 175.928 84 C 174.906 84, 173.589 83.100, 173 82 C 172.384 80.848, 170.906 80, 169.517 80 C 167.296 80, 167.183 80.228, 168.102 82.862 C 168.651 84.436, 170.223 86.236, 171.597 86.862 C 172.970 87.488, 175.148 88, 176.436 88 C 177.724 88, 179.689 87.213, 180.802 86.250 C 181.915 85.287, 183.080 83.600, 183.391 82.500 C 183.702 81.400, 183.404 79.404, 182.728 78.065 C 182.053 76.727, 179.700 74.698, 177.500 73.557 C 174.881 72.199, 173.500 70.800, 173.500 69.505 C 173.500 68.356, 174.297 67.374, 175.403 67.161 C 176.449 66.959, 177.709 67.516, 178.202 68.397 C 178.696 69.279, 180.188 70, 181.518 70 C 183.392 70, 183.797 69.605, 183.317 68.250 C 182.975 67.287, 182.020 65.713, 181.193 64.750 C 180.246 63.647, 178.268 63, 175.845 63 C 173.333 63, 171.306 63.694, 170 65 M 98 71 C 98 74.919, 98.143 75.116, 100.750 74.816 C 103.166 74.538, 103.500 74.075, 103.500 71 C 103.500 67.925, 103.166 67.462, 100.750 67.184 C 98.143 66.884, 98 67.081, 98 71 M 118 71 C 118 73.800, 118.429 75, 119.429 75 C 120.214 75, 121.564 74.293, 122.429 73.429 C 123.293 72.564, 124 71.304, 124 70.629 C 124 69.953, 123.460 68.860, 122.800 68.200 C 122.140 67.540, 120.790 67, 119.800 67 C 118.367 67, 118 67.815, 118 71 M 0.402 120 C 0.402 128.525, 0.556 132.012, 0.743 127.750 C 0.931 123.487, 0.931 116.513, 0.743 112.250 C 0.556 107.987, 0.402 111.475, 0.402 120 M 110.809 138.590 L 110.500 166.179 108.139 168.090 C 106.841 169.140, 104.255 170, 102.392 170 C 99.912 170, 97.945 169.042, 95.043 166.420 L 91.080 162.840 85.540 166.154 C 82.493 167.976, 80 170.124, 80 170.927 C 80 171.730, 82.443 174.753, 85.428 177.645 C 89.561 181.647, 92.223 183.300, 96.580 184.566 C 100.341 185.660, 103.881 186.017, 106.902 185.610 C 109.431 185.268, 113.512 183.959, 115.971 182.700 C 119.390 180.950, 121.095 179.160, 123.221 175.091 L 126 169.772 126 140.386 L 126 111 118.559 111 L 111.118 111 110.809 138.590 M 148.182 113.597 C 144.461 115.451, 142.260 117.406, 140.485 120.435 C 138.605 123.643, 138 126.099, 138 130.522 C 138 134.373, 138.700 137.815, 140.050 140.604 C 141.178 142.933, 143.626 146.003, 145.490 147.424 C 147.353 148.846, 153.141 151.988, 158.351 154.406 C 163.569 156.827, 168.313 159.715, 168.912 160.835 C 169.510 161.954, 170 163.819, 170 164.980 C 170 166.141, 168.895 168.195, 167.545 169.545 C 165.563 171.527, 164.081 172, 159.846 172 C 154.865 172, 154.373 171.756, 150.035 167.136 L 145.468 162.271 139.708 166.195 L 133.948 170.118 135.873 172.822 C 136.932 174.309, 139.081 176.824, 140.649 178.410 C 142.217 179.996, 145.525 182.221, 148 183.355 C 151.316 184.873, 154.605 185.426, 160.500 185.453 C 167.295 185.485, 169.367 185.066, 174.251 182.671 C 178.534 180.572, 180.622 178.785, 182.427 175.676 C 183.760 173.379, 185.157 169.825, 185.532 167.777 C 185.912 165.699, 185.666 161.776, 184.975 158.896 C 184.099 155.244, 182.624 152.624, 179.927 149.927 C 177.672 147.672, 171.896 144.100, 165.783 141.181 C 160.099 138.467, 154.842 135.515, 154.100 134.620 C 153.357 133.726, 152.750 131.855, 152.750 130.464 C 152.750 129.072, 153.551 127.049, 154.530 125.967 C 155.727 124.644, 157.602 124, 160.254 124 C 163.360 124, 164.802 124.647, 167.044 127.047 L 169.890 130.094 175.445 126.405 C 178.500 124.377, 181 122.422, 181 122.061 C 181 121.701, 179.313 119.762, 177.250 117.752 C 175.188 115.742, 171.827 113.401, 169.782 112.549 C 167.737 111.697, 163.213 111, 159.728 111 C 154.912 111, 152.143 111.623, 148.182 113.597" stroke="none" fill="#f2c20c" fill-rule="evenodd"/></svg>