<svg xmlns="http://www.w3.org/2000/svg" width="348" height="348" viewBox="0 0 360 360" version="1.1"><path d="M 161 29.500 L 161 46 151 46 L 141 46 141 52 L 141 58 156.500 58 L 172 58 172 35.500 L 172 13 166.500 13 L 161 13 161 29.500 M 179 26.969 L 179 41 194 41 L 209 41 209 43.500 L 209 46 194 46 L 179 46 179 52.020 L 179 58.041 199.750 57.770 L 220.500 57.500 220.375 51.750 C 220.306 48.587, 220.194 42.400, 220.125 38 L 220 30 205.139 30 L 190.277 30 190.755 27.500 L 191.233 25 205.920 25 L 220.607 25 220.415 20.250 C 220.309 17.637, 220.172 14.970, 220.111 14.323 C 220.030 13.465, 214.432 13.117, 199.500 13.041 L 179 12.938 179 26.969" stroke="none" fill="#000000" fill-rule="evenodd"/><path d="M 0 180.003 L 0 360.005 180.250 359.753 L 360.500 359.500 360.753 179.750 L 361.005 0 180.503 0 L 0 0 0 180.003 M 0.489 180.500 C 0.489 279.500, 0.607 320.148, 0.750 270.829 C 0.893 221.510, 0.893 140.510, 0.750 90.829 C 0.607 41.148, 0.489 81.500, 0.489 180.500 M 160 29.500 L 160 46 150.500 46 L 141 46 141 52 L 141 58 157 58 L 173 58 173 35.500 L 173 13 166.500 13 L 160 13 160 29.500 M 178.913 13.250 C 178.865 13.387, 178.644 19.688, 178.423 27.250 L 178.022 41 193.261 41 L 208.500 41 208.500 43.500 L 208.500 46 193.456 46 L 178.412 46 178.478 51.750 L 178.544 57.500 199.772 57.770 L 221 58.040 221 44.020 L 221 30 206 30 L 191 30 191 27.587 L 191 25.173 205.750 25.313 L 220.500 25.453 220.798 19.226 L 221.095 13 200.048 13 C 188.471 13, 178.961 13.113, 178.913 13.250 M 62 80.202 C 62 80.863, 63.799 102.125, 65.998 127.452 C 68.196 152.778, 70.891 183.625, 71.987 196 C 73.082 208.375, 74.891 229.300, 76.006 242.500 C 77.121 255.700, 78.911 276.400, 79.984 288.500 C 81.056 300.600, 82.037 312.426, 82.164 314.779 C 82.392 319.008, 82.455 319.076, 87.447 320.519 C 90.226 321.322, 111.820 327.384, 135.433 333.990 C 159.046 340.595, 179.296 345.983, 180.433 345.962 C 181.570 345.941, 203.875 339.921, 230 332.585 L 277.500 319.246 280.218 288.373 C 281.713 271.393, 286.326 218.294, 290.468 170.376 C 294.611 122.458, 298 82.295, 298 81.126 L 298 79 180 79 C 88.798 79, 62 79.273, 62 80.202 M 145 194.067 C 145 256.533, 144.905 260.105, 143.250 259.582 C 142.287 259.278, 132.344 256.548, 121.154 253.515 C 109.964 250.482, 100.389 248, 99.876 248 C 99.331 248, 99.059 253.660, 99.222 261.611 L 99.500 275.221 135.250 284.947 L 171 294.673 171 211.336 L 171 128 158 128 L 145 128 145 194.067 M 189 178.861 L 189 229.723 191.250 229.355 C 192.488 229.153, 201.813 227.666, 211.974 226.051 C 222.134 224.436, 230.622 223.289, 230.835 223.502 C 231.048 223.715, 230.665 229.426, 229.983 236.194 C 229.302 242.962, 228.611 249.175, 228.449 250 C 228.286 250.825, 228.119 252.738, 228.077 254.250 C 228.034 255.762, 227.449 257, 226.776 257 C 226.103 257, 217.328 259.302, 207.276 262.116 L 189 267.232 189 280.616 C 189 290.845, 189.303 294, 190.284 294 C 190.990 294, 204.556 290.424, 220.430 286.054 C 236.305 281.683, 249.614 277.746, 250.006 277.304 C 250.399 276.862, 252.411 257.916, 254.478 235.202 C 256.545 212.487, 258.033 193.699, 257.784 193.450 C 257.534 193.201, 248.485 194.348, 237.673 195.999 C 226.861 197.649, 217.337 199, 216.508 199 C 215.209 199, 215 195.884, 215 176.500 L 215 154 237.955 154 L 260.909 154 261.458 150.750 C 261.759 148.963, 262.359 143.113, 262.791 137.750 L 263.576 128 226.288 128 L 189 128 189 178.861" stroke="none" fill="#eeefef" fill-opacity='0' fill-rule="evenodd"/><path d="M 180.433 99.901 C 180.211 100.122, 180.020 151.063, 180.009 213.102 L 179.987 325.900 182.744 325.024 C 184.260 324.542, 199.225 320.473, 216 315.982 C 232.775 311.491, 248.863 307.151, 251.750 306.337 C 256.371 305.035, 257.009 304.537, 257.077 302.179 C 257.119 300.706, 257.317 298.624, 257.517 297.554 C 257.717 296.484, 258.172 291.126, 258.528 285.647 C 258.884 280.168, 259.318 274.945, 259.492 274.040 C 259.667 273.135, 260.102 268.368, 260.459 263.447 C 260.816 258.526, 261.279 253.150, 261.487 251.500 C 261.695 249.850, 262.141 245.125, 262.477 241 C 262.813 236.875, 263.270 231.925, 263.492 230 C 263.714 228.075, 264.194 222.675, 264.558 218 C 264.922 213.325, 265.360 208.766, 265.530 207.868 C 265.700 206.971, 266.140 201.612, 266.508 195.961 C 266.875 190.309, 267.318 184.945, 267.492 184.040 C 267.667 183.135, 268.104 178.368, 268.464 173.447 C 268.825 168.526, 269.309 162.925, 269.541 161 C 269.773 159.075, 270.220 154.350, 270.534 150.500 C 270.848 146.650, 271.269 141.700, 271.470 139.500 C 271.671 137.300, 272.125 131.900, 272.477 127.500 C 272.830 123.100, 273.299 117.925, 273.520 116 C 273.742 114.075, 274.199 109.575, 274.537 106 L 275.151 99.500 227.993 99.499 C 202.056 99.498, 180.654 99.679, 180.433 99.901 M 189 179.019 L 189 230.038 191.250 229.531 C 192.488 229.252, 197.775 228.371, 203 227.574 C 208.225 226.777, 214.525 225.835, 217 225.481 C 219.475 225.127, 223.421 224.481, 225.769 224.044 C 228.146 223.603, 230.280 223.644, 230.585 224.137 C 230.886 224.624, 230.894 227.155, 230.604 229.761 C 230.314 232.368, 229.532 239.563, 228.866 245.750 C 227.974 254.033, 227.293 257, 226.282 257 C 225.527 257, 219.192 258.608, 212.204 260.573 C 205.217 262.537, 197.137 264.800, 194.250 265.600 L 189 267.056 189 281.135 C 189 294.133, 189.134 295.162, 190.750 294.542 C 191.713 294.172, 203.834 290.747, 217.687 286.930 C 231.540 283.113, 244.576 279.430, 246.657 278.745 L 250.440 277.500 251.639 266.660 C 252.299 260.698, 253.140 251.477, 253.509 246.170 C 253.877 240.863, 254.342 236.256, 254.541 235.933 C 254.741 235.610, 255.140 231.789, 255.428 227.442 C 255.715 223.096, 256.458 213.906, 257.077 207.020 C 257.697 200.134, 258.410 194.162, 258.661 193.750 C 258.912 193.338, 258.721 193, 258.235 193 C 257.750 193, 252.661 193.696, 246.926 194.548 C 241.192 195.399, 232.450 196.747, 227.500 197.544 C 222.550 198.340, 217.713 198.994, 216.750 198.996 C 215.135 199, 215 197.263, 215 176.500 L 215 154 238.352 154 L 261.705 154 262.413 144.750 C 262.803 139.662, 263.282 133.813, 263.478 131.750 L 263.834 128 226.417 128 L 189 128 189 179.019" stroke="none" fill="#fedd22" fill-rule="evenodd"/><path d="M 160.409 29.500 C 160.408 38.850, 160.558 42.810, 160.743 38.299 C 160.928 33.789, 160.929 26.139, 160.745 21.299 C 160.562 16.460, 160.410 20.150, 160.409 29.500 M 172.429 35.500 C 172.429 48.150, 172.573 53.187, 172.747 46.694 C 172.922 40.200, 172.921 29.850, 172.746 23.694 C 172.571 17.537, 172.428 22.850, 172.429 35.500 M 178.310 35.500 C 178.315 38.800, 178.502 40.029, 178.725 38.232 C 178.947 36.435, 178.943 33.735, 178.715 32.232 C 178.486 30.729, 178.304 32.200, 178.310 35.500 M 220.349 38 C 220.349 42.675, 220.522 44.587, 220.732 42.250 C 220.943 39.912, 220.943 36.087, 220.732 33.750 C 220.522 31.412, 220.349 33.325, 220.349 38 M 62 80.202 C 62 80.863, 63.799 102.125, 65.998 127.452 C 68.196 152.778, 70.891 183.625, 71.987 196 C 73.082 208.375, 74.891 229.300, 76.006 242.500 C 77.121 255.700, 78.911 276.400, 79.984 288.500 C 81.056 300.600, 82.037 312.426, 82.164 314.779 C 82.392 319.008, 82.455 319.076, 87.447 320.519 C 90.226 321.322, 111.820 327.384, 135.433 333.990 C 159.046 340.595, 179.296 345.983, 180.433 345.962 C 181.570 345.941, 203.875 339.921, 230 332.585 L 277.500 319.246 280.218 288.373 C 281.713 271.393, 286.326 218.294, 290.468 170.376 C 294.611 122.458, 298 82.295, 298 81.126 L 298 79 180 79 C 88.798 79, 62 79.273, 62 80.202 M 180.433 99.901 C 180.211 100.122, 180.020 151.063, 180.009 213.102 L 179.987 325.900 182.744 325.024 C 184.260 324.542, 199.225 320.473, 216 315.982 C 232.775 311.491, 248.863 307.151, 251.750 306.337 C 256.371 305.035, 257.009 304.537, 257.077 302.179 C 257.119 300.706, 257.317 298.624, 257.517 297.554 C 257.717 296.484, 258.172 291.126, 258.528 285.647 C 258.884 280.168, 259.318 274.945, 259.492 274.040 C 259.667 273.135, 260.102 268.368, 260.459 263.447 C 260.816 258.526, 261.279 253.150, 261.487 251.500 C 261.695 249.850, 262.141 245.125, 262.477 241 C 262.813 236.875, 263.270 231.925, 263.492 230 C 263.714 228.075, 264.194 222.675, 264.558 218 C 264.922 213.325, 265.360 208.766, 265.530 207.868 C 265.700 206.971, 266.140 201.612, 266.508 195.961 C 266.875 190.309, 267.318 184.945, 267.492 184.040 C 267.667 183.135, 268.104 178.368, 268.464 173.447 C 268.825 168.526, 269.309 162.925, 269.541 161 C 269.773 159.075, 270.220 154.350, 270.534 150.500 C 270.848 146.650, 271.269 141.700, 271.470 139.500 C 271.671 137.300, 272.125 131.900, 272.477 127.500 C 272.830 123.100, 273.299 117.925, 273.520 116 C 273.742 114.075, 274.199 109.575, 274.537 106 L 275.151 99.500 227.993 99.499 C 202.056 99.498, 180.654 99.679, 180.433 99.901 M 145 194.067 C 145 256.533, 144.905 260.105, 143.250 259.582 C 142.287 259.278, 132.344 256.548, 121.154 253.515 C 109.964 250.482, 100.389 248, 99.876 248 C 99.331 248, 99.059 253.660, 99.222 261.611 L 99.500 275.221 135.250 284.947 L 171 294.673 171 211.336 L 171 128 158 128 L 145 128 145 194.067" stroke="none" fill="#e6c72d" fill-rule="evenodd"/></svg>