<?xml version="1.0" standalone="no"?>
<!DOCTYPE svg PUBLIC "-//W3C//DTD SVG 20010904//EN"
 "http://www.w3.org/TR/2001/REC-SVG-20010904/DTD/svg10.dtd">
<svg version="1.0" xmlns="http://www.w3.org/2000/svg"
 width="900.000000pt" height="300.000000pt" viewBox="0 0 900.000000 300.000000"
 preserveAspectRatio="xMidYMid meet">

<g transform="translate(0.000000,300.000000) scale(0.100000,-0.100000)"
fill="#888" stroke="none">
<path d="M4355 2963 c-787 -25 -1556 -234 -2030 -552 -132 -88 -258 -193 -334
-278 l-56 -63 -295 0 c-162 -1 -421 -5 -575 -10 -154 -5 -457 -12 -673 -16
l-392 -7 0 -94 0 -93 293 -2 292 -2 -265 -7 c-146 -3 -277 -7 -292 -8 -24 -1
-28 -5 -28 -31 l0 -30 398 -2 c294 -1 362 -3 262 -9 -74 -3 -253 -7 -397 -8
l-263 -1 0 -36 0 -35 128 5 c167 7 655 -6 557 -15 -38 -4 -208 -7 -377 -8
-300 -1 -308 -1 -308 -21 0 -19 5 -20 227 -14 126 3 284 1 353 -3 116 -8 123
-9 100 -23 -20 -11 -90 -15 -353 -18 -180 -2 -326 -6 -323 -9 2 -3 156 -7 342
-9 328 -4 374 -6 374 -24 0 -17 -56 -20 -382 -20 -192 0 -338 -4 -338 -9 0 -5
150 -10 340 -12 254 -3 342 -7 352 -16 31 -32 -6 -36 -352 -34 -297 1 -340 -1
-340 -14 0 -13 45 -15 353 -15 327 0 395 -5 373 -27 -4 -4 -169 -9 -367 -11
-273 -2 -359 -6 -359 -15 0 -9 85 -13 357 -15 345 -3 401 -8 363 -32 -9 -6
-164 -10 -367 -10 -229 0 -353 -4 -353 -10 0 -5 3 -10 8 -10 4 0 157 -3 341
-5 183 -3 338 -8 342 -11 5 -3 9 -12 9 -20 0 -12 -52 -14 -350 -14 -301 0
-350 -2 -350 -15 0 -12 52 -15 364 -17 200 -2 368 -6 372 -11 4 -4 2 -13 -5
-20 -9 -9 -98 -12 -372 -11 -301 2 -359 0 -359 -12 0 -12 56 -14 338 -15 185
-1 348 -4 362 -9 56 -16 -62 -24 -377 -25 l-323 0 0 -29 0 -28 918 3 c504 1
929 -1 945 -5 26 -8 67 -58 102 -127 12 -23 23 -29 48 -30 17 0 26 -3 20 -6
-19 -7 -16 -21 13 -59 51 -66 209 -188 338 -259 67 -38 68 -38 51 -11 -10 15
-39 41 -64 58 -131 90 -272 223 -307 289 l-15 31 30 -23 c28 -20 37 -22 138
-16 59 3 131 2 158 -2 41 -7 44 -9 17 -10 -19 0 -32 -5 -30 -10 5 -14 163
-141 236 -190 82 -55 132 -77 142 -60 5 7 21 10 39 7 17 -2 30 -3 28 -2 -1 1
-42 29 -92 62 -49 33 -115 83 -145 112 -51 47 -51 49 -10 17 59 -45 134 -92
125 -77 -5 8 11 9 57 5 127 -11 253 -28 271 -37 37 -19 14 1 -49 42 -37 24
-89 63 -116 87 -27 23 -56 43 -65 43 -9 0 -13 3 -10 7 4 3 -1 15 -10 27 -10
11 19 -10 64 -46 86 -70 191 -135 261 -163 l42 -17 47 31 c30 20 59 31 82 31
l36 0 -55 -35 c-69 -44 -49 -46 27 -3 31 18 53 26 49 20 -6 -10 -1 -11 21 -6
l28 7 -20 -22 -20 -23 30 13 c17 7 34 16 40 21 5 4 16 8 24 8 12 0 11 -3 -2
-18 -34 -37 -12 -44 35 -11 29 21 52 19 30 -3 -7 -7 -12 -16 -12 -20 0 -14 27
-9 40 7 16 19 34 19 26 0 -7 -20 30 -20 69 1 l30 15 -30 -32 c-26 -27 -27 -30
-7 -20 13 7 28 10 35 8 7 -2 20 0 30 5 16 8 18 7 12 -12 -6 -20 -5 -21 16 -10
19 11 21 10 16 -4 -6 -14 -3 -15 13 -6 16 9 20 8 20 -6 0 -15 4 -14 25 6 l25
23 1 -29 c0 -16 3 -23 6 -16 6 15 63 16 63 0 0 -6 3 -8 7 -5 3 4 12 2 18 -3 9
-8 14 -6 19 5 9 24 26 17 26 -11 0 -22 2 -25 15 -14 8 7 15 9 15 5 0 -5 10 4
23 18 l23 27 -4 -40 c-2 -22 -2 -40 1 -40 3 0 16 18 28 40 15 26 26 37 32 31
7 -7 6 -15 0 -23 -12 -15 -22 -89 -12 -82 4 2 10 18 14 34 7 32 25 41 25 13 1
-10 8 2 17 27 22 64 27 63 19 -2 -4 -43 -3 -59 8 -65 7 -4 16 -15 19 -23 3 -8
6 1 6 20 1 19 8 55 15 80 l15 45 1 -55 c1 -30 5 -66 10 -80 l7 -25 7 30 c4 17
14 50 22 75 l14 45 -5 -60 c-3 -41 -1 -68 9 -84 13 -23 14 -21 30 45 24 99 37
113 30 34 -4 -36 -2 -81 4 -100 9 -32 10 -33 11 -8 1 15 5 29 10 32 4 3 11 27
15 53 9 71 27 91 25 28 -6 -161 13 -192 32 -54 6 41 13 76 15 78 4 4 7 -53 8
-151 l1 -33 -102 3 c-61 2 -103 -1 -103 -6 0 -6 81 -13 188 -17 716 -29 1392
122 1813 406 48 32 90 63 94 69 3 5 16 15 28 21 18 9 17 6 -7 -20 -96 -101
-407 -261 -659 -337 -210 -64 -450 -111 -702 -139 -159 -17 -580 -24 -760 -13
-75 5 -86 4 -43 -2 31 -5 85 -18 119 -30 75 -24 271 -50 384 -50 115 0 219
-11 203 -22 -30 -19 397 27 576 62 368 74 755 224 991 385 53 37 98 65 100 63
2 -2 -31 -27 -73 -57 -444 -313 -1130 -485 -1922 -484 -396 0 -715 35 -1085
118 -11 3 -14 2 -7 -1 18 -8 5 -24 -21 -25 -21 0 -21 -1 3 -10 43 -17 230 -59
357 -80 224 -36 396 -50 678 -56 238 -4 314 -2 508 16 126 12 296 33 379 47
585 99 1127 326 1363 572 28 29 60 59 73 68 22 14 23 14 13 -3 -14 -25 -116
-130 -171 -175 -40 -34 -41 -36 -10 -18 19 12 46 28 60 38 22 16 23 16 18 0
-8 -19 18 -33 36 -20 16 12 59 13 67 1 8 -14 98 58 192 155 81 83 100 93 45
22 -183 -233 -580 -476 -1010 -617 -843 -277 -1968 -290 -2865 -33 -13 3 -23
4 -23 1 0 -25 229 -84 525 -136 959 -170 2090 -45 2794 309 339 170 550 335
726 569 l70 93 340 -6 c187 -3 381 -10 430 -15 119 -12 955 -14 955 -2 0 5
-52 7 -122 4 -88 -3 -119 -2 -108 6 8 6 63 11 123 11 59 0 107 4 107 9 0 5
-150 11 -354 13 -195 1 -357 6 -361 10 -25 24 23 28 361 28 308 0 354 2 354
15 0 13 -47 15 -363 15 -200 0 -367 3 -370 7 -4 3 -2 12 4 20 9 10 72 13 298
14 157 1 320 4 361 8 l75 6 -95 7 c-52 4 -209 8 -349 8 -252 0 -270 2 -271 33
0 4 123 7 273 8 149 1 310 4 357 8 l85 6 -115 7 c-63 4 -212 8 -330 8 -121 1
-219 5 -225 11 -26 26 20 31 292 34 378 4 375 3 368 15 -4 6 -121 10 -320 10
-281 0 -314 2 -319 16 -4 9 -5 18 -3 20 2 2 148 7 325 10 177 4 322 11 322 16
0 4 -143 8 -317 8 -304 0 -370 6 -335 28 18 12 241 22 469 22 115 0 183 4 183
10 0 6 -113 10 -320 10 -267 0 -320 2 -320 14 0 8 6 16 14 19 8 3 153 9 323
14 l308 8 -275 7 c-268 6 -359 15 -332 32 7 4 146 10 307 13 238 5 295 9 295
20 0 10 -51 13 -267 14 -148 1 -317 5 -378 9 -92 5 -71 7 131 8 132 1 302 5
377 9 l137 6 0 29 0 28 -287 1 c-159 1 -299 5 -313 9 -14 4 115 8 288 9 l312
1 0 29 0 28 -112 6 c-62 4 -189 7 -283 7 -93 0 -171 3 -174 5 -2 3 125 5 282
5 l287 0 0 93 0 94 -277 7 c-153 3 -431 10 -618 15 -190 5 -726 5 -1215 1
-917 -9 -2607 -2 -2574 11 11 4 314 10 674 13 360 3 664 7 675 8 11 1 331 -2
710 -6 380 -4 687 -4 682 0 -6 6 -41 9 -194 13 -12 1 -39 16 -60 35 -157 139
-236 198 -351 263 -45 25 -66 31 -104 29 -27 -2 -51 -5 -54 -8 -2 -3 39 -35
93 -71 54 -36 112 -77 128 -92 22 -19 16 -17 -25 9 -30 20 -57 32 -60 27 -7
-11 -206 -34 -223 -26 -6 3 3 -7 22 -22 19 -15 55 -47 80 -71 l46 -43 -66 49
c-36 27 -91 63 -123 81 -56 33 -57 33 -92 16 -24 -11 -49 -15 -73 -11 -20 3
-56 8 -80 11 -162 21 -419 91 -429 117 -2 4 -14 8 -27 8 -13 0 -27 5 -30 10
-3 6 -15 10 -26 10 -11 0 -30 6 -42 12 -12 7 -29 13 -37 13 -22 1 -103 26
-115 35 -9 7 -77 23 -160 37 -16 3 -34 9 -40 13 -5 4 -38 8 -73 9 -34 1 -74 6
-88 11 -14 6 -36 7 -50 4 -16 -4 -26 -1 -30 9 -4 12 -12 13 -35 7 -23 -7 -40
-3 -80 18 -46 23 -64 26 -188 30 -371 11 -887 -83 -1211 -220 -25 -11 -40 -15
-35 -9 6 6 49 26 95 45 l85 35 -50 -1 c-95 -3 -240 5 -261 12 -31 12 -203 -63
-364 -158 l-25 -14 25 21 c14 11 77 48 140 80 338 174 685 271 1190 333 170
21 866 17 1055 -5 179 -22 410 -66 594 -112 114 -29 135 -32 147 -20 8 7 14
18 14 22 0 40 -372 125 -730 168 -186 23 -706 31 -936 16 -167 -12 -408 -43
-586 -76 -210 -39 -551 -143 -711 -216 -137 -63 -345 -177 -401 -221 -27 -21
-55 -38 -62 -38 -8 0 -14 -5 -14 -11 0 -7 -11 -8 -30 -4 -25 5 -29 4 -24 -9 5
-14 3 -14 -28 -1 -24 9 -38 11 -45 4 -6 -6 -22 -7 -37 -3 -23 5 -25 9 -14 23
10 14 10 14 -2 3 -8 -7 -16 -17 -16 -23 -3 -22 -5 -23 -13 -11 -6 10 -30 -7
-91 -65 -47 -44 -78 -67 -70 -53 21 41 179 187 280 259 398 284 984 481 1650
556 74 8 250 17 390 21 517 13 970 -32 1418 -141 153 -37 192 -43 158 -23 -65
37 -495 126 -761 157 -223 26 -519 35 -840 24z m-48 -409 c-9 -9 -28 6 -21 18
4 6 10 6 17 -1 6 -6 8 -13 4 -17z m98 16 c3 -5 -1 -10 -9 -10 -9 0 -16 5 -16
10 0 6 4 10 9 10 6 0 13 -4 16 -10z m85 6 c0 -3 -4 -8 -10 -11 -5 -3 -10 -1
-10 4 0 6 5 11 10 11 6 0 10 -2 10 -4z m140 -6 c0 -5 -2 -10 -4 -10 -3 0 -8 5
-11 10 -3 6 -1 10 4 10 6 0 11 -4 11 -10z m-410 -16 c0 -8 -5 -12 -10 -9 -6 4
-8 11 -5 16 9 14 15 11 15 -7z m-183 -20 c-3 -3 -12 -4 -19 -1 -8 3 -5 6 6 6
11 1 17 -2 13 -5z m-867 -179 c-14 -8 -29 -14 -35 -14 -5 0 1 6 15 14 14 8 30
14 35 14 6 0 -1 -6 -15 -14z m1429 -56 c38 -14 38 -39 -1 -53 -30 -11 -88 8
-88 29 0 8 12 18 28 23 15 6 27 11 28 11 1 1 15 -4 33 -10z m-859 -14 c18 -22
3 -35 -40 -35 -24 0 -40 5 -44 15 -11 30 61 48 84 20z m250 -9 c0 -27 -28 -43
-36 -21 -9 21 3 45 21 45 9 0 15 -9 15 -24z m294 8 c9 -24 -2 -34 -35 -34 -33
0 -51 26 -28 41 22 14 56 10 63 -7z m590 7 c10 -16 -5 -41 -25 -41 -14 0 -19
7 -19 25 0 18 5 25 19 25 11 0 22 -4 25 -9z m625 0 c7 -5 10 -14 7 -20 -9 -13
-92 -15 -101 -2 -13 23 64 41 94 22z m-2829 -5 c0 -2 -8 -10 -17 -17 -16 -13
-17 -12 -4 4 13 16 21 21 21 13z m2506 -7 c7 -12 -15 -31 -28 -23 -4 3 -8 12
-8 20 0 17 26 19 36 3z m919 -39 c3 -5 -3 -10 -15 -10 -12 0 -18 5 -15 10 3 6
10 10 15 10 5 0 12 -4 15 -10z m50 -40 c3 -5 -3 -10 -15 -10 -12 0 -18 5 -15
10 3 6 10 10 15 10 5 0 12 -4 15 -10z m62 -36 c-3 -3 -12 -4 -19 -1 -8 3 -5 6
6 6 11 1 17 -2 13 -5z m-1944 -101 c-7 -2 -19 -2 -25 0 -7 3 -2 5 12 5 14 0
19 -2 13 -5z m-170 -98 c150 -26 212 -76 219 -175 l3 -55 -126 -3 -125 -3 2
56 c2 45 -1 57 -16 65 -10 6 -26 7 -36 3 -13 -5 -15 -3 -9 7 12 19 -106 8
-139 -13 -21 -14 -26 -25 -26 -57 0 -51 22 -68 220 -164 94 -45 174 -91 203
-116 l47 -42 0 -83 c0 -96 -13 -120 -85 -155 -76 -37 -144 -50 -263 -50 -252
0 -372 65 -372 201 l0 59 48 0 c27 0 83 3 125 6 l77 7 0 -67 0 -67 37 -16 c49
-20 155 -13 183 12 22 20 26 56 10 85 -16 29 -81 70 -237 150 -128 65 -248
149 -215 150 9 0 10 5 2 19 -5 11 -10 44 -10 75 0 44 5 60 26 86 71 83 264
120 457 85z m3595 5 c186 -24 276 -97 260 -211 -3 -24 -5 -24 -134 -27 l-132
-3 -6 43 c-4 24 -10 49 -15 56 -9 15 -70 31 -118 32 -64 0 -95 -69 -54 -121
10 -14 100 -66 199 -117 99 -52 197 -108 219 -126 38 -33 38 -34 38 -108 0
-120 -29 -152 -170 -188 -135 -35 -354 -22 -477 27 -21 8 -49 29 -63 45 -21
25 -25 40 -25 98 l0 68 123 4 c67 3 123 4 124 4 1 -1 6 -31 10 -66 9 -76 26
-90 113 -90 77 0 104 16 108 63 3 33 -2 43 -31 70 -19 18 -95 63 -168 101
-247 127 -276 155 -264 254 4 31 13 69 21 84 21 40 106 85 183 97 142 23 153
24 259 11z m-6113 -105 c22 -55 50 -121 63 -147 12 -26 33 -76 47 -110 14 -35
36 -85 49 -113 21 -42 26 -47 32 -30 31 87 84 216 122 295 25 52 53 120 62
150 l18 55 148 0 149 0 3 -393 2 -393 -117 3 -117 3 0 205 c0 113 4 222 8 243
4 24 3 37 -4 37 -5 0 -10 -6 -10 -12 0 -7 -13 -40 -30 -73 -46 -93 -121 -285
-133 -340 -6 -27 -16 -53 -22 -57 -5 -4 -46 -8 -90 -8 -44 0 -85 4 -91 8 -5 4
-20 32 -33 62 -13 30 -38 87 -56 125 -19 39 -50 120 -71 180 -20 61 -40 113
-43 117 -3 4 -6 -104 -6 -240 l0 -247 -110 0 -110 0 -2 220 c-1 121 1 298 4
393 l6 173 146 -3 146 -3 40 -100z m1060 80 c45 -85 114 -220 136 -268 l26
-59 31 64 c17 34 57 113 90 173 l58 110 122 3 c67 1 122 1 122 -1 0 -4 -69
-119 -214 -357 -32 -52 -65 -103 -73 -112 -13 -14 -15 -43 -12 -165 l4 -148
-120 0 -120 0 -5 146 -5 145 -69 109 c-89 141 -216 372 -208 380 3 3 56 4 116
3 99 -3 112 -5 121 -23z m2087 -131 l3 -156 110 132 c61 72 119 143 130 156
20 23 26 24 150 24 l129 0 -50 -52 c-28 -29 -98 -107 -156 -174 -92 -104 -105
-123 -95 -140 19 -34 274 -368 295 -388 12 -10 19 -23 16 -27 -6 -11 -182 -11
-239 -1 -32 6 -48 18 -88 67 -26 33 -71 97 -98 143 -28 45 -54 82 -58 82 -4 0
-18 -12 -32 -26 -23 -24 -24 -33 -24 -147 l0 -122 -100 -3 c-158 -5 -140 -56
-137 398 l2 390 120 0 119 0 3 -156z m879 -239 l0 -390 -123 0 -123 0 0 365
c1 262 4 373 13 393 l12 28 110 -3 110 -3 1 -390z m429 60 l0 -335 183 0 183
0 0 -55 c-1 -40 -5 -56 -16 -59 -8 -3 -148 -4 -310 -3 l-295 2 -1 265 c0 146
2 322 4 393 l5 127 124 0 123 0 0 -335z m732 198 c1 -76 0 -227 -1 -335 l-3
-198 186 0 187 0 -3 -57 -3 -58 -305 0 c-168 0 -310 1 -316 3 -8 2 -12 102
-13 336 -2 362 2 433 28 439 9 3 67 5 129 6 l112 1 2 -137z m-2702 -5 c0 -6
-6 -5 -15 2 -8 7 -15 14 -15 16 0 2 7 1 15 -2 8 -4 15 -11 15 -16z m-1029
-677 c296 -40 846 -53 2576 -60 787 -3 1434 -9 1438 -13 4 -4 -649 -9 -1452
-11 -1705 -5 -2200 -16 -2605 -59 -96 -10 -132 -10 -195 1 -136 24 -133 24
-368 41 -149 11 -728 25 -1048 25 -119 0 -217 3 -217 8 0 4 188 7 418 7 422 0
686 14 1052 55 74 8 162 17 195 18 33 2 61 4 61 5 1 1 66 -7 145 -17z m5689
-81 c0 -5 -7 -10 -16 -10 -8 0 -12 5 -9 10 3 6 10 10 16 10 5 0 9 -4 9 -10z
m-4915 -143 c17 -13 17 -14 -4 -29 -36 -26 -86 -3 -61 27 15 19 41 19 65 2z
m259 -3 c21 -21 12 -34 -24 -34 -36 0 -49 19 -25 37 24 17 30 16 49 -3z m260
10 c22 -9 20 -31 -5 -44 -15 -9 -24 -8 -35 1 -33 27 -3 59 40 43z m280 0 c22
-8 20 -31 -3 -44 -24 -12 -71 3 -71 24 0 22 40 33 74 20z m275 -3 c23 -15 5
-41 -28 -41 -34 0 -48 25 -23 39 21 13 33 13 51 2z m260 0 c21 -13 5 -41 -23
-41 -29 0 -41 26 -18 39 21 13 24 13 41 2z m266 -4 c24 -18 11 -37 -26 -37
-33 0 -51 26 -28 41 19 12 32 11 54 -4z m-2667 -44 c-10 -2 -26 -2 -35 0 -10
3 -2 5 17 5 19 0 27 -2 18 -5z m292 -63 c0 -5 -8 -10 -17 -10 -15 0 -16 2 -3
10 19 12 20 12 20 0z m44 -25 c-22 -17 -34 -19 -34 -6 0 5 8 12 18 14 32 9 36
7 16 -8z m96 10 c0 -9 -82 -56 -88 -51 -7 8 -5 9 43 34 45 24 45 24 45 17z
m46 -23 c-10 -17 -87 -65 -93 -58 -8 7 -9 7 47 39 49 29 54 31 46 19z m3534
-52 c0 -5 -5 -10 -11 -10 -5 0 -7 5 -4 10 3 6 8 10 11 10 2 0 4 -4 4 -10z
m-1074 -148 c-8 -7 -25 8 -37 31 -11 21 -10 21 15 -2 14 -14 24 -26 22 -29z
m49 38 c3 -5 2 -10 -4 -10 -5 0 -13 5 -16 10 -3 6 -2 10 4 10 5 0 13 -4 16
-10z m-185 -55 c13 -14 19 -25 14 -25 -8 1 -50 50 -41 50 2 0 14 -11 27 -25z
m65 14 c11 -17 -1 -21 -15 -4 -8 9 -8 15 -2 15 6 0 14 -5 17 -11z m-1050 -74
c7 -79 3 -95 -22 -95 -13 0 -15 9 -9 53 3 28 6 67 6 85 0 62 18 32 25 -43z
m124 -37 c1 -38 -2 -48 -15 -48 -14 0 -16 8 -10 46 3 26 7 61 7 78 l1 31 8
-30 c4 -16 8 -51 9 -77z m653 60 c12 -17 17 -28 10 -25 -6 4 -21 22 -34 39
-12 17 -17 28 -10 25 6 -4 21 -22 34 -39z m-714 -71 c-2 -29 -8 -42 -18 -42
-16 0 -16 26 -3 110 l6 40 9 -33 c5 -19 8 -53 6 -75z m191 -9 c1 -10 -6 -18
-14 -18 -12 0 -15 14 -14 68 l1 67 13 -50 c7 -27 14 -58 14 -67z m672 95 c13
-15 12 -15 -8 -4 -24 12 -29 21 -14 21 5 0 15 -7 22 -17z m-991 -63 c0 -58 -3
-70 -16 -70 -14 0 -16 8 -10 53 3 28 6 60 6 70 0 9 5 17 10 17 6 0 10 -30 10
-70z m246 -52 c-21 -14 -28 11 -20 69 l8 58 11 -60 c8 -42 8 -62 1 -67z m260
67 c15 -21 19 -55 6 -55 -11 0 -32 62 -31 91 1 20 2 21 6 4 3 -11 12 -29 19
-40z m59 5 c10 -22 15 -43 12 -47 -10 -10 -16 -1 -31 50 -17 56 -7 54 19 -3z
m84 -17 c6 -13 8 -23 3 -23 -12 0 -37 37 -47 70 l-7 25 19 -25 c11 -14 25 -35
32 -47z m-262 -49 c-3 -4 -12 -4 -19 -1 -9 3 -12 19 -9 53 l4 49 15 -47 c9
-27 13 -51 9 -54z m323 44 c0 -18 -27 11 -33 35 -6 22 -6 22 14 -2 10 -13 19
-28 19 -33z m-264 -22 c5 -22 4 -28 -7 -24 -8 2 -15 20 -17 39 -4 40 13 30 24
-15z"/>
<path d="M7232 1760 c0 -14 2 -19 5 -12 2 6 2 18 0 25 -3 6 -5 1 -5 -13z"/>
<path d="M6630 2485 c0 -3 33 -26 73 -51 142 -92 327 -254 377 -332 13 -20 22
-23 60 -20 l45 3 -105 106 c-98 98 -143 132 -334 252 -24 15 -53 27 -64 27
-12 0 -24 5 -27 10 -6 10 -25 14 -25 5z"/>
<path d="M2140 851 c18 -26 25 -29 58 -24 20 3 51 12 69 20 28 13 35 13 65 -3
l33 -17 -24 27 c-23 25 -29 26 -123 26 l-99 0 21 -29z"/>
<path d="M6478 604 c-38 -20 -36 -28 2 -9 17 9 30 18 30 20 0 7 -1 6 -32 -11z"/>
<path d="M4133 413 c9 -2 23 -2 30 0 6 3 -1 5 -18 5 -16 0 -22 -2 -12 -5z"/>
</g>
</svg>
