<svg xmlns="http://www.w3.org/2000/svg" width="348" height="348" viewBox="0 0 920 738" version="1.1"><path d="M 571.349 67.163 C 567.965 67.545, 562.115 68.622, 558.349 69.557 C 554.582 70.492, 548.125 72.589, 544 74.217 C 539.875 75.844, 531.775 79.594, 526 82.549 C 520.225 85.505, 510.775 91.014, 505 94.792 C 499.225 98.571, 489.775 105.351, 484 109.859 C 478.225 114.368, 469.868 121.376, 465.428 125.432 L 457.356 132.808 450.428 126.590 C 446.618 123.170, 439.450 117.105, 434.500 113.112 C 429.550 109.118, 419.425 101.787, 412 96.820 C 404.575 91.852, 392.650 84.941, 385.500 81.462 C 378.350 77.982, 369.013 73.998, 364.752 72.607 C 360.491 71.216, 353.354 69.385, 348.892 68.539 C 344.430 67.693, 337.791 67.008, 334.140 67.017 C 330.488 67.027, 324.497 67.671, 320.826 68.449 C 317.156 69.227, 311.531 71.122, 308.326 72.660 C 304.763 74.370, 299.737 78.184, 295.387 82.479 C 290.225 87.574, 287.171 91.696, 284.255 97.500 C 282.046 101.900, 279.103 109.100, 277.717 113.500 C 276.331 117.900, 274.423 126.440, 273.478 132.477 C 272.072 141.453, 271.854 147.741, 272.281 166.977 C 272.657 183.905, 273.401 194.285, 274.935 204 C 276.107 211.425, 277.867 221.429, 278.846 226.231 L 280.624 234.962 274.062 237.109 C 270.453 238.291, 260.557 241.963, 252.070 245.269 C 243.584 248.576, 231.114 254.103, 224.359 257.552 C 217.605 261.001, 208.123 266.400, 203.289 269.549 C 198.455 272.698, 192.025 277.180, 189 279.509 C 185.975 281.838, 180.208 287.063, 176.184 291.122 C 172.160 295.180, 166.802 301.591, 164.277 305.370 C 161.753 309.148, 158.414 315.898, 156.857 320.370 C 154.610 326.826, 154.027 330.251, 154.027 337 C 154.027 343.749, 154.610 347.174, 156.857 353.630 C 158.414 358.102, 161.792 364.927, 164.365 368.798 C 166.938 372.668, 172.071 378.919, 175.772 382.689 C 179.472 386.459, 186.184 392.344, 190.687 395.768 C 195.190 399.192, 203.065 404.551, 208.187 407.677 C 213.309 410.802, 222.900 415.945, 229.500 419.104 C 236.100 422.264, 246.675 426.840, 253 429.274 C 259.325 431.708, 268.258 434.944, 272.852 436.466 L 281.204 439.232 280.552 442.366 C 280.193 444.090, 278.805 451.350, 277.467 458.500 C 276.128 465.650, 274.298 479.150, 273.399 488.500 C 272.262 500.321, 271.944 510.069, 272.353 520.500 C 272.677 528.750, 273.591 539.108, 274.384 543.518 C 275.176 547.927, 276.564 554.452, 277.467 558.018 C 278.370 561.583, 281.304 569, 283.987 574.500 C 286.694 580.050, 290.997 586.910, 293.655 589.916 C 296.289 592.894, 301.138 597.072, 304.431 599.200 C 307.723 601.328, 313.586 604.038, 317.458 605.222 C 322.773 606.847, 326.982 607.360, 334.623 607.317 C 340.191 607.286, 347.166 606.717, 350.123 606.053 C 353.080 605.390, 359.775 603.479, 365 601.809 C 370.225 600.138, 379.900 596.081, 386.500 592.793 C 393.100 589.505, 404.800 582.614, 412.500 577.481 C 420.200 572.347, 431.225 564.251, 437 559.490 C 442.775 554.728, 449.831 548.614, 452.679 545.903 L 457.859 540.975 463.679 546.285 C 466.881 549.206, 472.477 554.089, 476.116 557.136 C 479.755 560.183, 487.405 566.076, 493.116 570.232 C 498.827 574.387, 507.775 580.390, 513 583.572 C 518.225 586.753, 526.775 591.363, 532 593.815 C 537.225 596.267, 545.325 599.575, 550 601.167 C 554.675 602.758, 562.271 604.722, 566.881 605.530 C 571.491 606.339, 578.483 607, 582.421 607 C 586.358 607, 592.262 606.315, 595.540 605.478 C 598.818 604.641, 604.216 602.636, 607.536 601.021 C 611.095 599.290, 615.979 595.648, 619.441 592.143 C 622.670 588.875, 626.823 583.803, 628.671 580.873 C 630.518 577.942, 633.398 571.998, 635.070 567.663 C 636.742 563.328, 638.980 555.668, 640.044 550.640 C 641.108 545.613, 642.470 535.200, 643.071 527.500 C 643.671 519.800, 643.878 509.225, 643.530 504 C 643.181 498.775, 642.453 489.775, 641.911 484 C 641.368 478.225, 639.813 467.186, 638.455 459.468 C 637.097 451.750, 635.577 444.012, 635.078 442.272 L 634.171 439.108 645.335 435.393 C 651.476 433.349, 661.766 429.515, 668.202 426.872 C 674.638 424.229, 684.520 419.750, 690.163 416.918 C 695.806 414.086, 704.684 409.085, 709.891 405.805 C 715.098 402.524, 721.416 398.202, 723.930 396.200 C 726.443 394.198, 730.525 390.771, 733 388.584 C 735.475 386.396, 740.320 381.433, 743.768 377.553 C 747.215 373.674, 751.816 367.078, 753.992 362.896 C 756.169 358.714, 758.636 352.657, 759.475 349.436 C 760.314 346.215, 761 340.619, 761 337 C 761 333.381, 760.306 327.756, 759.458 324.500 C 758.610 321.244, 756.022 314.986, 753.708 310.595 C 750.722 304.928, 746.788 299.773, 740.159 292.838 C 735.021 287.463, 726.921 280.187, 722.159 276.669 C 717.396 273.151, 709.076 267.688, 703.668 264.530 C 698.261 261.371, 689.486 256.751, 684.168 254.263 C 678.851 251.775, 668.425 247.383, 661 244.503 C 653.575 241.623, 644.420 238.256, 640.655 237.020 C 634.161 234.889, 633.839 234.639, 634.384 232.137 C 634.699 230.687, 636.283 221.850, 637.904 212.500 C 639.525 203.150, 641.393 188.544, 642.056 180.043 C 642.760 171.004, 642.986 159.254, 642.599 151.745 C 642.235 144.683, 641.257 134.989, 640.426 130.202 C 639.594 125.416, 638.233 118.800, 637.402 115.500 C 636.571 112.200, 633.635 104.842, 630.878 99.148 C 626.872 90.875, 624.522 87.459, 619.182 82.141 C 614.851 77.828, 610.213 74.385, 606 72.357 C 602.425 70.636, 597.250 68.746, 594.500 68.157 C 591.750 67.567, 586.800 66.947, 583.500 66.777 C 580.200 66.608, 574.732 66.781, 571.349 67.163 M 570.105 95.504 C 566.587 96.290, 560.737 97.912, 557.105 99.108 C 553.472 100.305, 546.464 103.299, 541.531 105.762 C 536.598 108.225, 528.344 112.897, 523.189 116.145 C 518.035 119.392, 510.146 124.843, 505.659 128.257 C 501.171 131.672, 492.876 138.456, 487.224 143.334 L 476.949 152.202 483.224 158.864 C 486.676 162.528, 493.337 170.020, 498.027 175.513 C 502.717 181.006, 509.242 188.879, 512.527 193.008 C 515.812 197.137, 520.707 203.526, 523.404 207.205 C 528.243 213.806, 528.383 213.903, 533.904 214.535 C 536.982 214.887, 546.753 216.249, 555.617 217.562 C 564.481 218.875, 578.431 221.324, 586.617 223.003 C 594.803 224.683, 602.682 226.315, 604.126 226.629 C 606.579 227.163, 606.826 226.880, 607.858 222.350 C 608.466 219.683, 609.688 213.225, 610.572 208 C 611.456 202.775, 612.752 193.325, 613.451 187 C 614.150 180.675, 614.750 169.200, 614.782 161.500 C 614.815 153.800, 614.218 143.225, 613.455 138 C 612.692 132.775, 611.213 125.563, 610.169 121.974 C 609.124 118.385, 607.244 113.435, 605.990 110.974 C 604.737 108.513, 602.606 105.049, 601.256 103.275 C 599.905 101.501, 596.483 98.928, 593.650 97.557 C 590.698 96.129, 585.939 94.854, 582.500 94.570 C 579.038 94.284, 573.794 94.679, 570.105 95.504 M 323.627 96.403 C 321.498 97.198, 318.123 99.156, 316.127 100.755 C 313.963 102.489, 310.988 106.655, 308.751 111.081 C 306.690 115.161, 304.336 121.149, 303.520 124.387 C 302.705 127.625, 301.523 134.145, 300.893 138.876 C 300.170 144.314, 299.945 155.388, 300.283 168.989 C 300.707 186.067, 301.354 193.488, 303.426 205 C 304.861 212.975, 306.390 221.075, 306.822 223 C 307.468 225.871, 308.049 226.484, 310.055 226.410 C 311.400 226.361, 319.250 224.909, 327.500 223.184 C 335.750 221.459, 349.925 218.951, 359 217.612 C 368.075 216.272, 377.975 214.874, 381 214.507 L 386.500 213.838 395.656 201.669 C 400.692 194.976, 408.391 185.225, 412.766 180 C 417.140 174.775, 424.390 166.482, 428.876 161.572 L 437.033 152.644 434.267 149.710 C 432.745 148.096, 425.650 142.071, 418.500 136.321 C 411.350 130.571, 401.020 122.911, 395.545 119.300 C 390.069 115.688, 381.401 110.529, 376.282 107.834 C 371.163 105.140, 362.143 101.313, 356.237 99.329 C 347.908 96.530, 343.482 95.636, 336.500 95.340 C 330.273 95.076, 326.307 95.403, 323.627 96.403 M 448.571 181.342 C 443.941 186.379, 436.755 194.687, 432.602 199.805 C 428.448 204.923, 424.838 209.454, 424.578 209.874 C 424.318 210.294, 439.142 210.661, 457.520 210.690 L 490.934 210.741 486.238 205.121 C 483.656 202.029, 478.853 196.350, 475.566 192.500 C 472.278 188.650, 466.754 182.504, 463.289 178.842 L 456.990 172.184 448.571 181.342 M 434.500 239.121 C 422.950 239.463, 410.741 240.064, 407.369 240.456 L 401.237 241.169 393.286 253.334 C 388.913 260.025, 381.732 271.575, 377.329 279 C 372.926 286.425, 365.862 298.934, 361.631 306.797 C 357.401 314.661, 352.209 324.839, 350.095 329.417 L 346.250 337.739 356.422 357.620 C 362.017 368.554, 371.037 384.925, 376.465 394 C 381.894 403.075, 389.837 415.740, 394.116 422.143 L 401.897 433.787 416.698 434.643 C 424.839 435.115, 442.750 435.500, 456.500 435.500 C 470.250 435.500, 488.635 435.113, 497.356 434.640 L 513.212 433.779 522.472 419.640 C 527.565 411.863, 535.681 398.750, 540.508 390.500 C 545.334 382.250, 553.495 367.235, 558.642 357.134 C 563.789 347.032, 568 337.911, 568 336.864 C 568 335.817, 565.919 330.807, 563.375 325.730 C 560.832 320.654, 555.825 311.100, 552.250 304.500 C 548.675 297.900, 542.125 286.425, 537.694 279 C 533.263 271.575, 526.055 260.100, 521.676 253.500 C 517.296 246.900, 513.609 241.369, 513.483 241.210 C 513.356 241.050, 511.283 240.673, 508.876 240.372 C 506.469 240.070, 493.475 239.526, 480 239.162 C 466.525 238.798, 446.050 238.780, 434.500 239.121 M 353.500 246.642 C 349.100 247.398, 338.750 249.433, 330.500 251.162 C 322.250 252.892, 315.329 254.447, 315.121 254.617 C 314.912 254.787, 315.972 258.880, 317.477 263.713 C 318.981 268.546, 322.651 279.224, 325.633 287.443 C 328.614 295.662, 331.214 302.547, 331.411 302.744 C 331.608 302.941, 334.579 297.792, 338.013 291.301 C 341.447 284.810, 348.314 272.750, 353.273 264.500 C 358.232 256.250, 362.951 248.488, 363.759 247.250 C 365.105 245.192, 365.071 245.011, 363.365 245.133 C 362.339 245.207, 357.900 245.886, 353.500 246.642 M 550 245.321 C 550 245.585, 553.139 250.791, 556.975 256.891 C 560.812 262.990, 567.068 273.497, 570.879 280.240 C 574.690 286.983, 578.840 294.637, 580.103 297.250 C 581.366 299.863, 582.662 302, 582.984 302 C 583.305 302, 584.389 299.863, 585.392 297.250 C 586.394 294.637, 589.860 284.681, 593.092 275.124 C 596.325 265.568, 599.089 257.044, 599.235 256.183 C 599.435 254.999, 597.671 254.184, 592 252.842 C 587.875 251.866, 577.975 249.913, 570 248.501 C 562.025 247.089, 554.263 245.687, 552.750 245.387 C 551.237 245.087, 550 245.057, 550 245.321 M 278.500 265.083 C 274.100 266.671, 266.225 269.617, 261 271.629 C 255.775 273.641, 245.425 278.348, 238 282.090 C 230.575 285.832, 220.225 291.709, 215 295.150 C 209.775 298.591, 201.634 305.253, 196.909 309.953 C 190.905 315.927, 187.367 320.430, 185.159 324.910 C 182.701 329.898, 182 332.621, 182 337.188 C 182 341.764, 182.688 344.428, 185.121 349.279 C 187.240 353.504, 191.010 358.242, 196.871 364.045 C 201.617 368.745, 210.029 375.574, 215.564 379.220 C 221.099 382.865, 230.999 388.541, 237.564 391.833 C 244.129 395.125, 252.200 398.937, 255.500 400.304 C 258.800 401.672, 267.262 404.875, 274.304 407.421 C 281.347 409.967, 287.534 411.788, 288.054 411.466 C 288.574 411.145, 289 410.247, 289 409.471 C 289 408.695, 291.462 400.707, 294.471 391.720 C 297.480 382.732, 302.919 367.981, 306.558 358.939 C 310.197 349.898, 313.670 341.301, 314.274 339.835 C 315.224 337.533, 314.751 335.698, 310.790 326.335 C 308.269 320.376, 303.275 307.625, 299.693 298 C 296.111 288.375, 291.945 276.337, 290.435 271.250 C 288.926 266.163, 287.423 262.044, 287.095 262.098 C 286.768 262.151, 282.900 263.495, 278.500 265.083 M 626.519 263.274 C 626.300 263.948, 623.195 273.275, 619.619 284 C 616.043 294.725, 610.809 309.125, 607.988 316 C 605.166 322.875, 602.117 330.415, 601.211 332.755 C 599.905 336.130, 599.797 337.577, 600.686 339.755 C 601.303 341.265, 604.578 349.250, 607.964 357.500 C 611.350 365.750, 617.069 381.275, 620.673 392 C 624.277 402.725, 627.316 411.604, 627.426 411.730 C 627.537 411.857, 634.573 409.483, 643.063 406.456 C 651.554 403.428, 664.538 398.025, 671.918 394.449 C 679.298 390.872, 688.703 385.901, 692.820 383.402 C 696.936 380.903, 703.773 376.218, 708.013 372.990 C 712.253 369.763, 718.267 364.310, 721.377 360.873 C 724.487 357.436, 728.375 351.937, 730.016 348.652 C 732.277 344.127, 733 341.304, 733 337 C 733 332.696, 732.277 329.873, 730.016 325.348 C 728.375 322.063, 724.487 316.564, 721.377 313.127 C 718.267 309.690, 712.297 304.295, 708.111 301.139 C 703.925 297.982, 697.545 293.554, 693.933 291.300 C 690.322 289.045, 682.326 284.672, 676.164 281.582 C 670.003 278.492, 661.538 274.604, 657.354 272.942 C 653.170 271.280, 644.610 268.149, 638.333 265.984 C 630.216 263.185, 626.803 262.403, 626.519 263.274 M 446.072 281.491 C 442.537 282.292, 436.295 284.538, 432.201 286.482 C 426.681 289.103, 422.908 291.887, 417.598 297.258 C 413.578 301.325, 409.041 307.166, 407.251 310.581 C 405.497 313.926, 403.373 319.308, 402.531 322.542 C 401.689 325.775, 401 332.281, 401 337 C 401 341.719, 401.689 348.225, 402.531 351.458 C 403.373 354.692, 405.511 360.062, 407.281 363.392 C 409.052 366.722, 413.136 372.268, 416.359 375.717 C 419.581 379.166, 424.756 383.526, 427.859 385.406 C 430.961 387.286, 436.425 389.834, 440 391.069 C 445.057 392.815, 448.831 393.327, 457 393.375 C 464.720 393.420, 468.956 392.944, 473 391.579 C 476.025 390.557, 481.022 388.461, 484.105 386.920 C 487.188 385.378, 492.187 381.854, 495.213 379.088 C 498.240 376.322, 502.341 371.683, 504.327 368.780 C 506.314 365.876, 509.119 360.350, 510.560 356.500 C 512.381 351.637, 513.339 346.752, 513.697 340.500 C 514.064 334.093, 513.742 329.502, 512.578 324.565 C 511.679 320.750, 509.541 314.783, 507.829 311.303 C 506.116 307.824, 502.138 302.170, 498.988 298.739 C 495.839 295.307, 490.391 290.801, 486.881 288.724 C 483.372 286.646, 477.669 284.068, 474.209 282.994 C 470.750 281.919, 464.450 280.814, 460.209 280.537 C 455.295 280.217, 450.170 280.562, 446.072 281.491 M 574.983 386.226 C 570.417 394.627, 562.964 407.574, 558.421 414.997 C 553.878 422.420, 550.297 428.631, 550.464 428.798 C 550.632 428.965, 554.983 428.398, 560.134 427.538 C 565.285 426.678, 576.250 424.561, 584.500 422.834 C 592.750 421.106, 599.659 419.565, 599.854 419.409 C 600.048 419.254, 598.765 414.710, 597.003 409.313 C 595.240 403.916, 591.538 393.200, 588.775 385.500 C 586.011 377.800, 583.646 371.377, 583.518 371.226 C 583.390 371.075, 579.549 377.825, 574.983 386.226 M 326.703 384.250 C 324.229 390.988, 320.583 401.637, 318.602 407.916 C 316.620 414.195, 315.112 419.414, 315.250 419.512 C 315.387 419.611, 322.250 421.101, 330.500 422.823 C 338.750 424.544, 349.686 426.690, 354.803 427.590 C 359.920 428.491, 364.264 429.064, 364.458 428.864 C 364.651 428.664, 360.784 421.975, 355.863 414 C 350.942 406.025, 343.537 393.313, 339.406 385.750 C 335.276 378.188, 331.740 372, 331.549 372 C 331.358 372, 329.177 377.512, 326.703 384.250 M 604.500 446.993 C 603.400 447.405, 594.400 449.357, 584.500 451.330 C 574.600 453.304, 560.200 455.805, 552.500 456.888 C 544.800 457.971, 536.250 459.148, 533.500 459.502 C 528.778 460.111, 528.250 460.490, 524 466.322 C 521.525 469.719, 515.188 477.899, 509.917 484.499 C 504.647 491.100, 496.322 500.927, 491.417 506.338 C 486.513 511.749, 481.461 517.446, 480.190 518.999 L 477.881 521.822 486.690 529.545 C 491.536 533.793, 499.775 540.501, 505 544.451 C 510.225 548.402, 517.875 553.806, 522 556.461 C 526.125 559.116, 533.550 563.451, 538.500 566.094 C 543.450 568.737, 552.450 572.579, 558.500 574.632 C 568.341 577.972, 570.606 578.372, 580 578.432 C 589.003 578.490, 591.090 578.185, 594.636 576.288 C 596.911 575.071, 600.113 572.371, 601.753 570.288 C 603.392 568.205, 605.652 564.686, 606.775 562.470 C 607.898 560.253, 609.543 555.941, 610.431 552.886 C 611.319 549.831, 612.678 543.770, 613.450 539.416 C 614.347 534.368, 614.847 524.436, 614.831 512 C 614.817 501.275, 614.393 489.125, 613.889 485 C 613.385 480.875, 611.804 470.975, 610.375 463 C 608.946 455.025, 607.489 447.992, 607.138 447.372 C 606.757 446.697, 605.696 446.545, 604.500 446.993 M 307.579 448.750 C 307.274 449.712, 305.883 457.235, 304.489 465.466 C 303.095 473.697, 301.460 486.072, 300.857 492.966 C 300.249 499.921, 300.029 512.176, 300.363 520.500 C 300.712 529.188, 301.792 539.444, 302.930 544.872 C 304.010 550.027, 306.513 557.653, 308.491 561.819 C 310.486 566.019, 313.805 571.026, 315.940 573.058 C 318.726 575.708, 321.635 577.220, 326.454 578.525 C 332.340 580.118, 334.048 580.186, 341.116 579.104 C 345.515 578.430, 352.540 576.761, 356.725 575.395 C 360.911 574.029, 369.097 570.470, 374.918 567.487 C 380.738 564.503, 389.550 559.424, 394.500 556.200 C 399.450 552.975, 408.052 546.774, 413.615 542.419 C 419.178 538.063, 426.937 531.637, 430.857 528.138 L 437.985 521.777 432.097 515.638 C 428.858 512.262, 422.433 505.118, 417.819 499.763 C 413.205 494.408, 404.270 483.331, 397.965 475.147 L 386.500 460.268 377 459.082 C 371.775 458.430, 360.677 456.804, 352.337 455.468 C 343.998 454.132, 330.764 451.680, 322.929 450.020 C 315.094 448.359, 308.560 447, 308.409 447 C 308.258 447, 307.885 447.788, 307.579 448.750 M 428.163 468.486 C 430.339 471.244, 437.822 479.972, 444.792 487.883 L 457.464 502.266 463.883 495.383 C 467.413 491.597, 474.409 483.550, 479.431 477.500 C 484.452 471.450, 489.071 465.825, 489.695 465 C 490.698 463.674, 486.965 463.498, 457.518 463.486 L 424.206 463.473 428.163 468.486 M 641.571 657.571 C 640.707 658.436, 640 660.670, 640 662.536 C 640 664.868, 640.605 666.254, 641.934 666.965 C 642.998 667.534, 644.998 668, 646.378 668 C 647.837 668, 649.538 667.070, 650.443 665.777 C 651.299 664.555, 652 662.755, 652 661.777 C 652 660.800, 651.100 659.100, 650 658 C 648.900 656.900, 646.907 656, 645.571 656 C 644.236 656, 642.436 656.707, 641.571 657.571 M 152 696.890 L 152 737 157.500 737 L 163 737 163 721 L 163 705 172.250 705.008 L 181.500 705.015 190 720.989 L 198.500 736.964 204.357 736.982 C 208.639 736.995, 210.084 736.664, 209.731 735.750 C 209.465 735.063, 205.367 727.543, 200.624 719.039 C 195.881 710.536, 192.024 703.336, 192.054 703.039 C 192.084 702.743, 194.214 701.150, 196.787 699.500 C 199.370 697.844, 202.440 694.750, 203.642 692.592 C 204.840 690.443, 206.103 686.799, 206.448 684.495 C 206.794 682.190, 206.587 678.099, 205.988 675.402 C 205.389 672.706, 203.739 668.817, 202.321 666.761 C 200.698 664.407, 197.660 662, 194.121 660.266 C 188.724 657.621, 187.774 657.497, 170.250 657.146 L 152 656.781 152 696.890 M 464 697 L 464 737 469.500 737 L 475 737 475 706.755 L 475 676.509 484.157 690.505 C 489.193 698.202, 497.472 710.855, 502.554 718.623 C 507.636 726.391, 512.306 733.703, 512.932 734.873 C 513.880 736.644, 514.985 737, 519.535 737 L 525 737 525 698 C 525 676.550, 525 658.663, 525 658.250 C 525 657.837, 522.692 657.500, 519.871 657.500 L 514.741 657.500 514.687 687.767 C 514.657 704.413, 514.336 717.688, 513.972 717.267 C 513.609 716.845, 509.513 710.650, 504.870 703.500 C 500.228 696.350, 491.532 682.962, 485.547 673.750 L 474.664 657 469.332 657 L 464 657 464 697 M 401.794 670.250 L 401.500 677.500 396.250 677.802 L 391 678.105 391 682.052 L 391 686 396.500 686 L 402 686 402 707.352 C 402 727.922, 402.083 728.828, 404.280 732.088 C 405.534 733.948, 407.672 736.033, 409.030 736.721 C 410.389 737.408, 413.601 737.977, 416.168 737.985 C 418.736 737.993, 421.447 737.766, 422.193 737.480 C 423.116 737.125, 423.428 735.689, 423.169 732.980 C 422.799 729.097, 422.696 729, 418.952 729 C 416.119 729, 414.706 728.418, 413.557 726.777 C 412.278 724.953, 412 721.107, 412 705.277 L 412 686 417.500 686 L 423 686 423 682 L 423 678 417.500 678 L 412 678 412 670.500 L 412 663 407.044 663 L 402.088 663 401.794 670.250 M 606.860 663.750 C 606.783 664.163, 606.670 667.425, 606.610 671 L 606.500 677.500 601.250 677.802 L 596 678.105 596 682.052 L 596 686 601.250 686 L 606.500 686 606.535 706.750 C 606.565 724.860, 606.805 727.983, 608.420 731.294 C 609.437 733.381, 611.537 735.743, 613.085 736.544 C 614.634 737.345, 617.911 738, 620.369 738 C 622.826 738, 625.548 737.727, 626.418 737.393 C 627.486 736.983, 628 735.520, 628 732.893 C 628 729.030, 627.970 729, 624.071 729 C 621.833 729, 619.467 728.324, 618.571 727.429 C 617.248 726.105, 617 722.712, 617 705.929 L 617 686 622.500 686 L 628 686 628 682 L 628 678 622.500 678 L 617 678 617 670.500 L 617 663 612 663 C 609.250 663, 606.937 663.337, 606.860 663.750 M 163 680.892 L 163 696 172.980 696 C 179.830 696, 184.224 695.494, 186.993 694.386 C 189.211 693.499, 192.025 691.369, 193.246 689.654 C 194.904 687.326, 195.462 685.137, 195.448 681.018 C 195.435 677.331, 194.810 674.571, 193.566 672.699 C 192.541 671.158, 190.307 669.152, 188.602 668.240 C 186.415 667.072, 182.180 666.465, 174.250 666.184 L 163 665.784 163 680.892 M 238.336 677.150 C 236.046 677.544, 232.331 679.029, 230.081 680.449 C 227.831 681.869, 224.638 684.898, 222.985 687.179 C 221.332 689.461, 219.310 693.585, 218.490 696.345 C 217.671 699.105, 217 704.350, 217 708 C 217 711.650, 217.665 716.876, 218.477 719.612 C 219.290 722.349, 221.588 726.496, 223.585 728.828 C 225.581 731.161, 229.024 733.992, 231.235 735.120 C 233.446 736.248, 237.626 737.416, 240.523 737.715 C 243.421 738.014, 247.818 737.955, 250.294 737.583 C 252.770 737.212, 256.877 735.529, 259.422 733.844 C 261.966 732.159, 264.525 729.887, 265.109 728.796 C 265.963 727.200, 265.729 726.340, 263.911 724.406 C 262.668 723.083, 261.308 722, 260.887 722 C 260.467 722, 258.676 723.322, 256.908 724.937 C 255.114 726.575, 251.565 728.385, 248.885 729.028 C 245.230 729.904, 243.223 729.899, 240.514 729.004 C 238.553 728.357, 235.594 726.688, 233.939 725.295 C 232.283 723.902, 230.329 721.578, 229.598 720.131 C 228.866 718.684, 227.970 715.855, 227.606 713.843 L 226.944 710.187 246.972 710.343 L 267 710.500 267 704.432 C 267 701.094, 266.306 696.025, 265.457 693.167 C 264.608 690.310, 262.517 686.380, 260.809 684.435 C 259.101 682.489, 256.307 680.162, 254.602 679.263 C 252.896 678.363, 249.475 677.359, 247 677.031 C 244.525 676.702, 240.626 676.756, 238.336 677.150 M 296.723 677.140 C 294.095 677.526, 289.972 678.999, 287.560 680.412 C 285.148 681.826, 282.242 684.490, 281.103 686.333 C 279.964 688.176, 278.913 690.699, 278.766 691.940 C 278.525 693.986, 278.949 694.213, 283.310 694.372 C 287.808 694.536, 288.219 694.340, 289.638 691.351 C 290.479 689.578, 292.635 687.452, 294.478 686.577 C 296.307 685.710, 299.211 685, 300.933 685 C 302.655 685, 305.641 685.659, 307.568 686.464 C 309.950 687.459, 311.541 689.050, 312.536 691.432 C 313.341 693.359, 314 696.249, 314 697.854 L 314 700.773 303.737 701.153 C 295.070 701.474, 292.622 701.954, 287.987 704.240 C 284.705 705.859, 281.561 708.339, 280.163 710.412 C 278.878 712.318, 277.588 715.653, 277.297 717.822 C 277.006 719.992, 277.296 723.366, 277.941 725.321 C 278.586 727.276, 280.065 730.085, 281.228 731.563 C 282.391 733.042, 285.178 735.085, 287.421 736.104 C 289.709 737.142, 293.820 737.966, 296.782 737.978 C 299.687 737.990, 303.731 737.304, 305.768 736.452 C 307.806 735.601, 310.431 734.004, 311.602 732.904 L 313.731 730.904 314.340 733.952 C 314.933 736.917, 315.103 737, 320.592 737 C 325.995 737, 326.202 736.905, 325.492 734.750 C 325.085 733.513, 324.470 722.825, 324.126 711 C 323.540 690.884, 323.352 689.262, 321.200 685.800 C 319.934 683.766, 317.342 681.139, 315.440 679.963 C 313.537 678.787, 309.622 677.513, 306.740 677.132 C 303.858 676.751, 299.350 676.755, 296.723 677.140 M 358.723 677.134 C 356.095 677.524, 351.898 679.042, 349.395 680.509 C 346.748 682.060, 343.640 685.075, 341.966 687.715 C 340.382 690.213, 338.556 694.624, 337.908 697.519 C 337.258 700.423, 336.946 706.305, 337.211 710.641 C 337.539 715.994, 338.430 720.049, 340.007 723.358 C 341.280 726.030, 343.864 729.714, 345.748 731.544 C 347.633 733.374, 351.240 735.575, 353.765 736.436 C 356.290 737.296, 360.470 738, 363.052 738 C 365.635 738, 369.612 737.342, 371.890 736.539 C 374.168 735.735, 377.577 733.899, 379.466 732.458 C 381.354 731.018, 383.822 727.933, 384.950 725.604 C 386.077 723.274, 387 720.611, 387 719.684 C 387 718.340, 386.041 718.002, 382.250 718.010 C 377.655 718.020, 377.445 718.151, 375.812 722.039 C 374.481 725.207, 373.144 726.491, 369.495 728.105 C 365.983 729.659, 363.856 729.985, 360.683 729.456 C 357.665 728.954, 355.478 727.690, 352.830 724.921 C 350.100 722.067, 348.859 719.640, 347.991 715.457 C 347.285 712.055, 347.105 707.395, 347.535 703.666 C 347.927 700.275, 348.670 696.375, 349.187 695 C 349.704 693.625, 351.298 691.273, 352.729 689.773 C 354.159 688.273, 356.860 686.541, 358.730 685.924 C 360.600 685.307, 363.686 685.094, 365.587 685.450 C 367.487 685.807, 370.577 687.445, 372.451 689.091 C 374.326 690.737, 376.142 693.370, 376.487 694.942 C 377.030 697.413, 377.657 697.853, 381.103 698.181 C 383.297 698.390, 385.603 698.246, 386.228 697.859 C 387.068 697.340, 387.027 696.030, 386.069 692.829 C 385.357 690.448, 383.877 687.238, 382.780 685.695 C 381.683 684.152, 378.988 681.755, 376.792 680.368 C 374.595 678.982, 370.706 677.528, 368.149 677.137 C 365.592 676.746, 361.350 676.745, 358.723 677.134 M 554.500 678.504 C 552.300 679.282, 548.587 681.936, 546.250 684.401 C 543.526 687.275, 542 689.802, 542 691.442 C 542 693.834, 542.315 694, 546.839 694 C 551.032 694, 551.831 693.666, 552.819 691.498 C 553.446 690.121, 555.431 688.098, 557.230 687.001 C 559.028 685.905, 562.210 685.006, 564.300 685.004 C 566.389 685.002, 569.400 685.672, 570.989 686.494 C 572.578 687.316, 574.581 688.991, 575.439 690.217 C 576.298 691.442, 577 694.370, 577 696.723 L 577 701 568.682 701 C 563.957 701, 558.028 701.693, 554.959 702.605 C 551.456 703.645, 548.260 705.504, 545.874 707.891 C 543.743 710.021, 541.722 713.319, 541.076 715.718 C 540.348 718.420, 540.272 721.254, 540.856 723.854 C 541.349 726.048, 542.711 729.190, 543.883 730.836 C 545.055 732.482, 547.953 734.767, 550.323 735.914 C 553.113 737.265, 556.599 738, 560.214 738 C 564.444 738, 567.137 737.295, 571.324 735.092 C 574.364 733.493, 577.110 732.443, 577.426 732.759 C 577.742 733.075, 578 734.158, 578 735.167 C 578 736.740, 578.848 737, 583.975 737 L 589.950 737 588.818 734.250 C 588.172 732.682, 587.427 722.258, 587.085 710 C 586.713 696.719, 586.044 687.735, 585.334 686.500 C 584.701 685.400, 583.124 683.509, 581.828 682.298 C 580.533 681.086, 577.806 679.399, 575.768 678.548 C 573.607 677.645, 569.239 677.018, 565.282 677.044 C 561.552 677.068, 556.700 677.725, 554.500 678.504 M 640.416 677.917 C 640.187 678.146, 640 691.533, 640 707.667 L 640 737 645.500 737 L 651 737 651 707.597 L 651 678.193 645.916 677.847 C 643.120 677.656, 640.645 677.688, 640.416 677.917 M 660.999 678.203 C 660.999 678.590, 661.433 679.940, 661.962 681.203 C 662.491 682.466, 666.566 693.625, 671.016 706 C 675.467 718.375, 679.820 730.413, 680.690 732.750 C 682.203 736.815, 682.453 737, 686.429 737 C 690.374 737, 690.642 736.808, 691.671 733.250 C 692.267 731.188, 696.581 718.925, 701.258 706 C 705.934 693.075, 710.056 681.532, 710.416 680.349 C 711.019 678.371, 710.663 678.170, 705.986 677.849 L 700.900 677.500 693.626 699.881 C 686.887 720.612, 686.270 722.049, 685.247 719.381 C 684.640 717.796, 681.320 707.874, 677.868 697.331 L 671.593 678.162 666.295 677.831 C 663.381 677.649, 660.998 677.816, 660.999 678.203 M 733.500 678.819 C 731.300 679.853, 728.035 682.204, 726.245 684.044 C 724.454 685.885, 722.095 689.238, 721.002 691.497 C 719.908 693.755, 718.627 697.672, 718.155 700.201 C 717.682 702.730, 717.431 706.757, 717.596 709.150 C 717.761 711.542, 718.165 715.367, 718.494 717.648 C 718.823 719.929, 720.395 723.762, 721.987 726.166 C 723.579 728.569, 726.275 731.566, 727.978 732.826 C 729.681 734.085, 732.914 735.764, 735.163 736.558 C 737.412 737.351, 742.007 737.990, 745.376 737.978 C 749.353 737.964, 753.077 737.243, 756 735.921 C 758.475 734.802, 761.962 732.474, 763.750 730.747 C 765.538 729.020, 767 727.331, 767 726.992 C 767 726.653, 765.630 725.363, 763.954 724.124 L 760.909 721.873 757.468 724.894 C 755.575 726.556, 752.214 728.404, 749.998 729 C 747.783 729.597, 744.391 729.789, 742.461 729.427 C 740.531 729.065, 737.525 727.807, 735.780 726.631 C 734.036 725.455, 731.819 723.142, 730.855 721.492 C 729.891 719.841, 728.805 716.631, 728.442 714.360 L 727.781 710.229 746.141 710.215 C 756.238 710.207, 765.354 710.156, 766.397 710.100 C 768.146 710.008, 768.244 709.396, 767.656 702.250 C 767.198 696.689, 766.235 692.958, 764.246 689.039 C 762.449 685.497, 759.957 682.511, 757.157 680.542 C 753.397 677.900, 751.846 677.471, 745.169 677.224 C 739.308 677.008, 736.557 677.384, 733.500 678.819 M 237.500 686.350 C 235.850 687.107, 233.730 688.592, 232.788 689.650 C 231.847 690.708, 230.384 693.230, 229.538 695.254 C 228.692 697.279, 228 699.625, 228 700.468 C 228 701.774, 230.154 702, 242.611 702 L 257.223 702 256.526 698.285 C 256.142 696.241, 255.183 693.320, 254.393 691.794 C 253.604 690.268, 251.860 688.299, 250.517 687.419 C 249.175 686.540, 246.372 685.630, 244.288 685.397 C 242.205 685.164, 239.150 685.593, 237.500 686.350 M 738.500 685.911 C 737.400 686.401, 735.492 687.759, 734.261 688.930 C 733.029 690.100, 731.405 692.282, 730.651 693.779 C 729.897 695.276, 728.984 697.737, 728.621 699.250 L 727.962 702 742.481 702 L 757 702 757 698.950 C 757 697.273, 756.368 694.686, 755.595 693.200 C 754.822 691.715, 753.050 689.435, 751.657 688.134 C 750.029 686.613, 747.584 685.635, 744.812 685.394 C 742.441 685.188, 739.600 685.421, 738.500 685.911 M 302 708.615 C 301.175 708.754, 298.762 709.152, 296.638 709.500 C 294.514 709.848, 291.702 711.207, 290.388 712.521 C 288.599 714.310, 288 716.006, 288 719.280 C 288 722.602, 288.577 724.193, 290.402 725.908 C 291.723 727.149, 294.595 728.404, 296.785 728.698 C 298.975 728.992, 302.366 728.704, 304.320 728.059 C 306.275 727.414, 309.271 725.458, 310.978 723.711 C 313.851 720.773, 314.062 720.085, 313.792 714.518 L 313.500 708.500 308.500 708.432 C 305.750 708.394, 302.825 708.477, 302 708.615 M 561.622 709.053 C 558.442 709.586, 555.744 710.829, 553.872 712.622 C 551.819 714.590, 551 716.338, 551 718.753 C 551 720.611, 551.463 722.997, 552.030 724.055 C 552.596 725.114, 554.374 726.659, 555.980 727.490 C 557.586 728.320, 560.386 728.990, 562.200 728.978 C 564.015 728.966, 567.353 728.115, 569.617 727.086 C 571.882 726.058, 574.470 724.168, 575.367 722.886 C 576.457 721.331, 577 718.465, 577 714.277 L 577 708 571.750 708.118 C 568.862 708.182, 564.305 708.603, 561.622 709.053" stroke="none" fill="#62dcfc" fill-rule="evenodd"/><path d="M 0 369 L 0 738 119.250 737.914 C 184.838 737.867, 237.372 737.485, 235.994 737.066 C 234.615 736.646, 232.073 735.572, 230.344 734.678 C 228.615 733.784, 225.564 731.140, 223.563 728.803 C 221.481 726.371, 219.250 722.229, 218.346 719.118 C 217.257 715.372, 216.903 711.168, 217.207 705.591 C 217.486 700.450, 218.388 695.841, 219.679 692.949 C 220.797 690.446, 223.085 686.834, 224.763 684.923 C 226.441 683.011, 229.896 680.407, 232.440 679.137 C 235.886 677.416, 238.707 676.839, 243.500 676.876 C 247.856 676.909, 251.185 677.564, 253.811 678.904 C 255.944 679.992, 259.090 682.477, 260.802 684.427 C 262.514 686.377, 264.608 690.310, 265.457 693.167 C 266.306 696.025, 267 701.094, 267 704.432 L 267 710.500 246.972 710.343 L 226.944 710.187 227.606 713.843 C 227.970 715.855, 228.866 718.684, 229.598 720.131 C 230.329 721.578, 232.283 723.902, 233.939 725.295 C 235.594 726.688, 238.553 728.357, 240.514 729.004 C 243.223 729.899, 245.230 729.904, 248.885 729.028 C 251.565 728.385, 255.114 726.575, 256.908 724.937 C 258.676 723.322, 260.467 722, 260.887 722 C 261.308 722, 262.643 723.055, 263.854 724.345 C 265.156 725.731, 265.805 727.344, 265.441 728.292 C 265.103 729.174, 263.218 731.121, 261.253 732.620 C 259.288 734.119, 256.065 735.923, 254.090 736.629 C 250.955 737.749, 253.101 737.915, 271 737.934 L 291.500 737.956 287.421 736.104 C 285.178 735.085, 282.391 733.042, 281.228 731.563 C 280.065 730.085, 278.586 727.276, 277.941 725.321 C 277.296 723.366, 277.006 719.992, 277.297 717.822 C 277.588 715.653, 278.878 712.318, 280.163 710.412 C 281.561 708.339, 284.705 705.859, 287.987 704.240 C 292.622 701.954, 295.070 701.474, 303.737 701.153 L 314 700.773 314 697.854 C 314 696.249, 313.341 693.359, 312.536 691.432 C 311.541 689.050, 309.950 687.459, 307.568 686.464 C 305.641 685.659, 302.655 685, 300.933 685 C 299.211 685, 296.307 685.710, 294.478 686.577 C 292.635 687.452, 290.479 689.578, 289.638 691.351 C 288.219 694.340, 287.808 694.536, 283.310 694.372 C 278.890 694.211, 278.523 694.006, 278.782 691.848 C 278.938 690.557, 280.152 687.857, 281.481 685.849 C 283.006 683.545, 285.911 681.212, 289.352 679.528 C 293.744 677.380, 296.206 676.864, 301.990 676.883 C 307.280 676.899, 310.353 677.477, 313.652 679.074 C 316.384 680.396, 319.179 682.824, 320.816 685.294 C 323.460 689.285, 323.509 689.671, 324.126 710.923 C 324.470 722.790, 325.085 733.513, 325.492 734.750 C 326.202 736.905, 325.995 737, 320.592 737 C 315.103 737, 314.933 736.917, 314.340 733.952 L 313.731 730.904 311.608 732.898 C 310.441 733.995, 307.914 735.574, 305.993 736.407 C 302.765 737.807, 304.586 737.919, 330 737.882 C 355.437 737.845, 357.189 737.732, 353.353 736.372 C 351.072 735.563, 347.657 733.398, 345.764 731.559 C 343.871 729.721, 341.274 726.030, 339.994 723.358 C 338.301 719.827, 337.543 716.152, 337.218 709.902 C 336.902 703.848, 337.240 699.686, 338.359 695.838 C 339.233 692.832, 341.277 688.538, 342.901 686.295 C 344.762 683.727, 347.875 681.230, 351.315 679.547 C 355.561 677.469, 358.250 676.875, 363.403 676.875 C 368.319 676.875, 371.221 677.470, 374.640 679.177 C 377.175 680.443, 380.498 682.994, 382.024 684.846 C 383.551 686.697, 385.365 690.232, 386.056 692.701 C 386.969 695.962, 387.009 697.376, 386.202 697.875 C 385.591 698.253, 383.297 698.390, 381.103 698.181 C 377.657 697.853, 377.030 697.413, 376.487 694.942 C 376.142 693.370, 374.326 690.737, 372.451 689.091 C 370.577 687.445, 367.487 685.807, 365.587 685.450 C 363.686 685.094, 360.600 685.307, 358.730 685.924 C 356.860 686.541, 354.159 688.273, 352.729 689.773 C 351.298 691.273, 349.704 693.625, 349.187 695 C 348.670 696.375, 347.927 700.275, 347.535 703.666 C 347.105 707.395, 347.285 712.055, 347.991 715.457 C 348.859 719.640, 350.100 722.067, 352.830 724.921 C 355.478 727.690, 357.665 728.954, 360.683 729.456 C 363.856 729.985, 365.983 729.659, 369.495 728.105 C 373.144 726.491, 374.481 725.207, 375.812 722.039 C 377.445 718.151, 377.655 718.020, 382.250 718.010 C 386.041 718.002, 387 718.340, 387 719.684 C 387 720.611, 386.077 723.274, 384.950 725.604 C 383.822 727.933, 381.345 731.025, 379.446 732.473 C 377.547 733.922, 374.307 735.726, 372.247 736.483 C 368.860 737.727, 370.563 737.864, 390 737.915 C 407.823 737.961, 411.078 737.757, 409.030 736.721 C 407.672 736.033, 405.534 733.948, 404.280 732.088 C 402.083 728.828, 402 727.922, 402 707.352 L 402 686 396.500 686 L 391 686 391 682.052 L 391 678.105 396.250 677.802 L 401.500 677.500 401.794 670.250 L 402.088 663 407.044 663 L 412 663 412 670.500 L 412 678 417.500 678 L 423 678 423 682 L 423 686 417.500 686 L 412 686 412 705.277 C 412 721.107, 412.278 724.953, 413.557 726.777 C 414.706 728.418, 416.119 729, 418.952 729 C 422.698 729, 422.799 729.096, 423.171 732.991 C 423.380 735.187, 423.090 737.176, 422.526 737.413 C 421.962 737.649, 451.425 737.877, 488 737.920 L 554.500 737.998 550.240 735.890 C 547.897 734.730, 545.029 732.445, 543.866 730.812 C 542.704 729.179, 541.349 726.048, 540.856 723.854 C 540.272 721.254, 540.348 718.420, 541.076 715.718 C 541.722 713.319, 543.743 710.021, 545.874 707.891 C 548.260 705.504, 551.456 703.645, 554.959 702.605 C 558.028 701.693, 563.957 701, 568.682 701 L 577 701 577 696.723 C 577 694.370, 576.298 691.442, 575.439 690.217 C 574.581 688.991, 572.578 687.316, 570.989 686.494 C 569.400 685.672, 566.389 685.002, 564.300 685.004 C 562.210 685.006, 559.028 685.905, 557.230 687.001 C 555.431 688.098, 553.446 690.121, 552.819 691.498 C 551.831 693.666, 551.032 694, 546.839 694 C 542.274 694, 542 693.850, 542 691.357 C 542 689.537, 543.478 687.238, 546.750 683.970 C 549.712 681.011, 553.005 678.809, 555.500 678.118 C 557.700 677.509, 562.327 677.009, 565.782 677.006 C 569.237 677.003, 573.731 677.696, 575.768 678.548 C 577.806 679.399, 580.533 681.086, 581.828 682.298 C 583.124 683.509, 584.701 685.400, 585.334 686.500 C 586.044 687.735, 586.713 696.719, 587.085 710 C 587.427 722.258, 588.172 732.682, 588.818 734.250 L 589.950 737 583.975 737 C 578.727 737, 578 736.764, 578 735.059 C 578 733.991, 577.663 732.933, 577.250 732.708 C 576.837 732.482, 574.086 733.580, 571.136 735.149 L 565.772 738 590.636 737.960 C 612.714 737.924, 615.207 737.760, 612.881 736.497 C 611.441 735.714, 609.432 733.370, 608.416 731.287 C 606.806 727.984, 606.565 724.847, 606.535 706.750 L 606.500 686 601.250 686 L 596 686 596 682.052 L 596 678.105 601.250 677.802 L 606.500 677.500 606.500 670.500 L 606.500 663.500 611.750 663.198 L 617 662.895 617 670.448 L 617 678 622.500 678 L 628 678 628 682 L 628 686 622.500 686 L 617 686 617 705.929 C 617 722.712, 617.248 726.105, 618.571 727.429 C 619.467 728.324, 621.833 729, 624.071 729 C 627.974 729, 628 729.026, 628 732.917 C 628 735.114, 627.451 737.055, 626.750 737.338 C 626.063 737.615, 650.925 737.846, 682 737.851 C 730.726 737.858, 737.992 737.672, 734.807 736.502 C 732.776 735.755, 729.712 734.107, 727.998 732.840 C 726.284 731.573, 723.579 728.569, 721.987 726.166 C 720.395 723.762, 718.823 719.929, 718.494 717.648 C 718.165 715.367, 717.761 711.542, 717.596 709.150 C 717.431 706.757, 717.682 702.730, 718.155 700.201 C 718.627 697.672, 719.918 693.735, 721.023 691.452 C 722.129 689.168, 724.662 685.672, 726.652 683.681 C 728.643 681.690, 732.212 679.321, 734.583 678.415 C 737.605 677.261, 740.992 676.887, 745.904 677.164 C 751.709 677.492, 753.649 678.077, 757.194 680.569 C 759.957 682.510, 762.458 685.515, 764.246 689.039 C 766.235 692.958, 767.198 696.689, 767.656 702.250 C 768.244 709.396, 768.146 710.008, 766.397 710.100 C 765.354 710.156, 756.238 710.207, 746.141 710.215 L 727.781 710.229 728.442 714.360 C 728.805 716.631, 729.891 719.841, 730.855 721.492 C 731.819 723.142, 734.036 725.455, 735.780 726.631 C 737.525 727.807, 740.531 729.065, 742.461 729.427 C 744.391 729.789, 747.783 729.597, 749.998 729 C 752.214 728.404, 755.575 726.556, 757.468 724.894 L 760.909 721.873 763.954 724.124 C 765.630 725.363, 767 726.653, 767 726.992 C 767 727.331, 765.538 729.020, 763.750 730.747 C 761.962 732.474, 758.475 734.804, 756 735.925 L 751.500 737.962 836 737.731 L 920.500 737.500 920.751 368.750 L 921.003 -0 460.501 -0 L 0 0 0 369 M 0.495 369.500 C 0.495 572.450, 0.610 655.326, 0.750 553.669 C 0.890 452.011, 0.890 285.961, 0.750 184.669 C 0.610 83.376, 0.495 166.550, 0.495 369.500 M 571.349 67.163 C 567.965 67.545, 562.115 68.622, 558.349 69.557 C 554.582 70.492, 548.125 72.589, 544 74.217 C 539.875 75.844, 531.775 79.594, 526 82.549 C 520.225 85.505, 510.775 91.014, 505 94.792 C 499.225 98.571, 489.775 105.351, 484 109.859 C 478.225 114.368, 469.868 121.376, 465.428 125.432 L 457.356 132.808 450.428 126.590 C 446.618 123.170, 439.450 117.105, 434.500 113.112 C 429.550 109.118, 419.425 101.787, 412 96.820 C 404.575 91.852, 392.650 84.941, 385.500 81.462 C 378.350 77.982, 369.013 73.998, 364.752 72.607 C 360.491 71.216, 353.354 69.385, 348.892 68.539 C 344.430 67.693, 337.791 67.008, 334.140 67.017 C 330.488 67.027, 324.497 67.671, 320.826 68.449 C 317.156 69.227, 311.531 71.122, 308.326 72.660 C 304.763 74.370, 299.737 78.184, 295.387 82.479 C 290.225 87.574, 287.171 91.696, 284.255 97.500 C 282.046 101.900, 279.103 109.100, 277.717 113.500 C 276.331 117.900, 274.423 126.440, 273.478 132.477 C 272.072 141.453, 271.854 147.741, 272.281 166.977 C 272.657 183.905, 273.401 194.285, 274.935 204 C 276.107 211.425, 277.867 221.429, 278.846 226.231 L 280.624 234.962 274.062 237.109 C 270.453 238.291, 260.557 241.963, 252.070 245.269 C 243.584 248.576, 231.114 254.103, 224.359 257.552 C 217.605 261.001, 208.123 266.400, 203.289 269.549 C 198.455 272.698, 192.025 277.180, 189 279.509 C 185.975 281.838, 180.208 287.063, 176.184 291.122 C 172.160 295.180, 166.802 301.591, 164.277 305.370 C 161.753 309.148, 158.414 315.898, 156.857 320.370 C 154.610 326.826, 154.027 330.251, 154.027 337 C 154.027 343.749, 154.610 347.174, 156.857 353.630 C 158.414 358.102, 161.792 364.927, 164.365 368.798 C 166.938 372.668, 172.071 378.919, 175.772 382.689 C 179.472 386.459, 186.184 392.344, 190.687 395.768 C 195.190 399.192, 203.065 404.551, 208.187 407.677 C 213.309 410.802, 222.900 415.945, 229.500 419.104 C 236.100 422.264, 246.675 426.840, 253 429.274 C 259.325 431.708, 268.258 434.944, 272.852 436.466 L 281.204 439.232 280.552 442.366 C 280.193 444.090, 278.805 451.350, 277.467 458.500 C 276.128 465.650, 274.298 479.150, 273.399 488.500 C 272.262 500.321, 271.944 510.069, 272.353 520.500 C 272.677 528.750, 273.591 539.108, 274.384 543.518 C 275.176 547.927, 276.564 554.452, 277.467 558.018 C 278.370 561.583, 281.304 569, 283.987 574.500 C 286.694 580.050, 290.997 586.910, 293.655 589.916 C 296.289 592.894, 301.138 597.072, 304.431 599.200 C 307.723 601.328, 313.586 604.038, 317.458 605.222 C 322.773 606.847, 326.982 607.360, 334.623 607.317 C 340.191 607.286, 347.166 606.717, 350.123 606.053 C 353.080 605.390, 359.775 603.479, 365 601.809 C 370.225 600.138, 379.900 596.081, 386.500 592.793 C 393.100 589.505, 404.800 582.614, 412.500 577.481 C 420.200 572.347, 431.225 564.251, 437 559.490 C 442.775 554.728, 449.831 548.614, 452.679 545.903 L 457.859 540.975 463.679 546.285 C 466.881 549.206, 472.477 554.089, 476.116 557.136 C 479.755 560.183, 487.405 566.076, 493.116 570.232 C 498.827 574.387, 507.775 580.390, 513 583.572 C 518.225 586.753, 526.775 591.363, 532 593.815 C 537.225 596.267, 545.325 599.575, 550 601.167 C 554.675 602.758, 562.271 604.722, 566.881 605.530 C 571.491 606.339, 578.483 607, 582.421 607 C 586.358 607, 592.262 606.315, 595.540 605.478 C 598.818 604.641, 604.216 602.636, 607.536 601.021 C 611.095 599.290, 615.979 595.648, 619.441 592.143 C 622.670 588.875, 626.823 583.803, 628.671 580.873 C 630.518 577.942, 633.398 571.998, 635.070 567.663 C 636.742 563.328, 638.980 555.668, 640.044 550.640 C 641.108 545.613, 642.470 535.200, 643.071 527.500 C 643.671 519.800, 643.878 509.225, 643.530 504 C 643.181 498.775, 642.453 489.775, 641.911 484 C 641.368 478.225, 639.813 467.186, 638.455 459.468 C 637.097 451.750, 635.577 444.012, 635.078 442.272 L 634.171 439.108 645.335 435.393 C 651.476 433.349, 661.766 429.515, 668.202 426.872 C 674.638 424.229, 684.520 419.750, 690.163 416.918 C 695.806 414.086, 704.684 409.085, 709.891 405.805 C 715.098 402.524, 721.416 398.202, 723.930 396.200 C 726.443 394.198, 730.525 390.771, 733 388.584 C 735.475 386.396, 740.320 381.433, 743.768 377.553 C 747.215 373.674, 751.816 367.078, 753.992 362.896 C 756.169 358.714, 758.636 352.657, 759.475 349.436 C 760.314 346.215, 761 340.619, 761 337 C 761 333.381, 760.306 327.756, 759.458 324.500 C 758.610 321.244, 756.022 314.986, 753.708 310.595 C 750.722 304.928, 746.788 299.773, 740.159 292.838 C 735.021 287.463, 726.921 280.187, 722.159 276.669 C 717.396 273.151, 709.076 267.688, 703.668 264.530 C 698.261 261.371, 689.486 256.751, 684.168 254.263 C 678.851 251.775, 668.425 247.383, 661 244.503 C 653.575 241.623, 644.420 238.256, 640.655 237.020 C 634.161 234.889, 633.839 234.639, 634.384 232.137 C 634.699 230.687, 636.283 221.850, 637.904 212.500 C 639.525 203.150, 641.393 188.544, 642.056 180.043 C 642.760 171.004, 642.986 159.254, 642.599 151.745 C 642.235 144.683, 641.257 134.989, 640.426 130.202 C 639.594 125.416, 638.233 118.800, 637.402 115.500 C 636.571 112.200, 633.635 104.842, 630.878 99.148 C 626.872 90.875, 624.522 87.459, 619.182 82.141 C 614.851 77.828, 610.213 74.385, 606 72.357 C 602.425 70.636, 597.250 68.746, 594.500 68.157 C 591.750 67.567, 586.800 66.947, 583.500 66.777 C 580.200 66.608, 574.732 66.781, 571.349 67.163 M 570.105 95.504 C 566.587 96.290, 560.737 97.912, 557.105 99.108 C 553.472 100.305, 546.464 103.299, 541.531 105.762 C 536.598 108.225, 528.344 112.897, 523.189 116.145 C 518.035 119.392, 510.146 124.843, 505.659 128.257 C 501.171 131.672, 492.876 138.456, 487.224 143.334 L 476.949 152.202 483.224 158.864 C 486.676 162.528, 493.337 170.020, 498.027 175.513 C 502.717 181.006, 509.242 188.879, 512.527 193.008 C 515.812 197.137, 520.707 203.526, 523.404 207.205 C 528.243 213.806, 528.383 213.903, 533.904 214.535 C 536.982 214.887, 546.753 216.249, 555.617 217.562 C 564.481 218.875, 578.431 221.324, 586.617 223.003 C 594.803 224.683, 602.682 226.315, 604.126 226.629 C 606.579 227.163, 606.826 226.880, 607.858 222.350 C 608.466 219.683, 609.688 213.225, 610.572 208 C 611.456 202.775, 612.752 193.325, 613.451 187 C 614.150 180.675, 614.750 169.200, 614.782 161.500 C 614.815 153.800, 614.218 143.225, 613.455 138 C 612.692 132.775, 611.213 125.563, 610.169 121.974 C 609.124 118.385, 607.244 113.435, 605.990 110.974 C 604.737 108.513, 602.606 105.049, 601.256 103.275 C 599.905 101.501, 596.483 98.928, 593.650 97.557 C 590.698 96.129, 585.939 94.854, 582.500 94.570 C 579.038 94.284, 573.794 94.679, 570.105 95.504 M 323.627 96.403 C 321.498 97.198, 318.123 99.156, 316.127 100.755 C 313.963 102.489, 310.988 106.655, 308.751 111.081 C 306.690 115.161, 304.336 121.149, 303.520 124.387 C 302.705 127.625, 301.523 134.145, 300.893 138.876 C 300.170 144.314, 299.945 155.388, 300.283 168.989 C 300.707 186.067, 301.354 193.488, 303.426 205 C 304.861 212.975, 306.390 221.075, 306.822 223 C 307.468 225.871, 308.049 226.484, 310.055 226.410 C 311.400 226.361, 319.250 224.909, 327.500 223.184 C 335.750 221.459, 349.925 218.951, 359 217.612 C 368.075 216.272, 377.975 214.874, 381 214.507 L 386.500 213.838 395.656 201.669 C 400.692 194.976, 408.391 185.225, 412.766 180 C 417.140 174.775, 424.390 166.482, 428.876 161.572 L 437.033 152.644 434.267 149.710 C 432.745 148.096, 425.650 142.071, 418.500 136.321 C 411.350 130.571, 401.020 122.911, 395.545 119.300 C 390.069 115.688, 381.401 110.529, 376.282 107.834 C 371.163 105.140, 362.143 101.313, 356.237 99.329 C 347.908 96.530, 343.482 95.636, 336.500 95.340 C 330.273 95.076, 326.307 95.403, 323.627 96.403 M 448.571 181.342 C 443.941 186.379, 436.755 194.687, 432.602 199.805 C 428.448 204.923, 424.838 209.454, 424.578 209.874 C 424.318 210.294, 439.142 210.661, 457.520 210.690 L 490.934 210.741 486.238 205.121 C 483.656 202.029, 478.853 196.350, 475.566 192.500 C 472.278 188.650, 466.754 182.504, 463.289 178.842 L 456.990 172.184 448.571 181.342 M 434.500 239.121 C 422.950 239.463, 410.741 240.064, 407.369 240.456 L 401.237 241.169 393.286 253.334 C 388.913 260.025, 381.732 271.575, 377.329 279 C 372.926 286.425, 365.862 298.934, 361.631 306.797 C 357.401 314.661, 352.209 324.839, 350.095 329.417 L 346.250 337.739 356.422 357.620 C 362.017 368.554, 371.037 384.925, 376.465 394 C 381.894 403.075, 389.837 415.740, 394.116 422.143 L 401.897 433.787 416.698 434.643 C 424.839 435.115, 442.750 435.500, 456.500 435.500 C 470.250 435.500, 488.635 435.113, 497.356 434.640 L 513.212 433.779 522.472 419.640 C 527.565 411.863, 535.681 398.750, 540.508 390.500 C 545.334 382.250, 553.495 367.235, 558.642 357.134 C 563.789 347.032, 568 337.911, 568 336.864 C 568 335.817, 565.919 330.807, 563.375 325.730 C 560.832 320.654, 555.825 311.100, 552.250 304.500 C 548.675 297.900, 542.125 286.425, 537.694 279 C 533.263 271.575, 526.055 260.100, 521.676 253.500 C 517.296 246.900, 513.609 241.369, 513.483 241.210 C 513.356 241.050, 511.283 240.673, 508.876 240.372 C 506.469 240.070, 493.475 239.526, 480 239.162 C 466.525 238.798, 446.050 238.780, 434.500 239.121 M 353.500 246.642 C 349.100 247.398, 338.750 249.433, 330.500 251.162 C 322.250 252.892, 315.329 254.447, 315.121 254.617 C 314.912 254.787, 315.972 258.880, 317.477 263.713 C 318.981 268.546, 322.651 279.224, 325.633 287.443 C 328.614 295.662, 331.214 302.547, 331.411 302.744 C 331.608 302.941, 334.579 297.792, 338.013 291.301 C 341.447 284.810, 348.314 272.750, 353.273 264.500 C 358.232 256.250, 362.951 248.488, 363.759 247.250 C 365.105 245.192, 365.071 245.011, 363.365 245.133 C 362.339 245.207, 357.900 245.886, 353.500 246.642 M 550 245.321 C 550 245.585, 553.139 250.791, 556.975 256.891 C 560.812 262.990, 567.068 273.497, 570.879 280.240 C 574.690 286.983, 578.840 294.637, 580.103 297.250 C 581.366 299.863, 582.662 302, 582.984 302 C 583.305 302, 584.389 299.863, 585.392 297.250 C 586.394 294.637, 589.860 284.681, 593.092 275.124 C 596.325 265.568, 599.089 257.044, 599.235 256.183 C 599.435 254.999, 597.671 254.184, 592 252.842 C 587.875 251.866, 577.975 249.913, 570 248.501 C 562.025 247.089, 554.263 245.687, 552.750 245.387 C 551.237 245.087, 550 245.057, 550 245.321 M 278.500 265.083 C 274.100 266.671, 266.225 269.617, 261 271.629 C 255.775 273.641, 245.425 278.348, 238 282.090 C 230.575 285.832, 220.225 291.709, 215 295.150 C 209.775 298.591, 201.634 305.253, 196.909 309.953 C 190.905 315.927, 187.367 320.430, 185.159 324.910 C 182.701 329.898, 182 332.621, 182 337.188 C 182 341.764, 182.688 344.428, 185.121 349.279 C 187.240 353.504, 191.010 358.242, 196.871 364.045 C 201.617 368.745, 210.029 375.574, 215.564 379.220 C 221.099 382.865, 230.999 388.541, 237.564 391.833 C 244.129 395.125, 252.200 398.937, 255.500 400.304 C 258.800 401.672, 267.262 404.875, 274.304 407.421 C 281.347 409.967, 287.534 411.788, 288.054 411.466 C 288.574 411.145, 289 410.247, 289 409.471 C 289 408.695, 291.462 400.707, 294.471 391.720 C 297.480 382.732, 302.919 367.981, 306.558 358.939 C 310.197 349.898, 313.670 341.301, 314.274 339.835 C 315.224 337.533, 314.751 335.698, 310.790 326.335 C 308.269 320.376, 303.275 307.625, 299.693 298 C 296.111 288.375, 291.945 276.337, 290.435 271.250 C 288.926 266.163, 287.423 262.044, 287.095 262.098 C 286.768 262.151, 282.900 263.495, 278.500 265.083 M 626.519 263.274 C 626.300 263.948, 623.195 273.275, 619.619 284 C 616.043 294.725, 610.809 309.125, 607.988 316 C 605.166 322.875, 602.117 330.415, 601.211 332.755 C 599.905 336.130, 599.797 337.577, 600.686 339.755 C 601.303 341.265, 604.578 349.250, 607.964 357.500 C 611.350 365.750, 617.069 381.275, 620.673 392 C 624.277 402.725, 627.316 411.604, 627.426 411.730 C 627.537 411.857, 634.573 409.483, 643.063 406.456 C 651.554 403.428, 664.538 398.025, 671.918 394.449 C 679.298 390.872, 688.703 385.901, 692.820 383.402 C 696.936 380.903, 703.773 376.218, 708.013 372.990 C 712.253 369.763, 718.267 364.310, 721.377 360.873 C 724.487 357.436, 728.375 351.937, 730.016 348.652 C 732.277 344.127, 733 341.304, 733 337 C 733 332.696, 732.277 329.873, 730.016 325.348 C 728.375 322.063, 724.487 316.564, 721.377 313.127 C 718.267 309.690, 712.297 304.295, 708.111 301.139 C 703.925 297.982, 697.545 293.554, 693.933 291.300 C 690.322 289.045, 682.326 284.672, 676.164 281.582 C 670.003 278.492, 661.538 274.604, 657.354 272.942 C 653.170 271.280, 644.610 268.149, 638.333 265.984 C 630.216 263.185, 626.803 262.403, 626.519 263.274 M 446.072 281.491 C 442.537 282.292, 436.295 284.538, 432.201 286.482 C 426.681 289.103, 422.908 291.887, 417.598 297.258 C 413.578 301.325, 409.041 307.166, 407.251 310.581 C 405.497 313.926, 403.373 319.308, 402.531 322.542 C 401.689 325.775, 401 332.281, 401 337 C 401 341.719, 401.689 348.225, 402.531 351.458 C 403.373 354.692, 405.511 360.062, 407.281 363.392 C 409.052 366.722, 413.136 372.268, 416.359 375.717 C 419.581 379.166, 424.756 383.526, 427.859 385.406 C 430.961 387.286, 436.425 389.834, 440 391.069 C 445.057 392.815, 448.831 393.327, 457 393.375 C 464.720 393.420, 468.956 392.944, 473 391.579 C 476.025 390.557, 481.022 388.461, 484.105 386.920 C 487.188 385.378, 492.187 381.854, 495.213 379.088 C 498.240 376.322, 502.341 371.683, 504.327 368.780 C 506.314 365.876, 509.119 360.350, 510.560 356.500 C 512.381 351.637, 513.339 346.752, 513.697 340.500 C 514.064 334.093, 513.742 329.502, 512.578 324.565 C 511.679 320.750, 509.541 314.783, 507.829 311.303 C 506.116 307.824, 502.138 302.170, 498.988 298.739 C 495.839 295.307, 490.391 290.801, 486.881 288.724 C 483.372 286.646, 477.669 284.068, 474.209 282.994 C 470.750 281.919, 464.450 280.814, 460.209 280.537 C 455.295 280.217, 450.170 280.562, 446.072 281.491 M 574.983 386.226 C 570.417 394.627, 562.964 407.574, 558.421 414.997 C 553.878 422.420, 550.297 428.631, 550.464 428.798 C 550.632 428.965, 554.983 428.398, 560.134 427.538 C 565.285 426.678, 576.250 424.561, 584.500 422.834 C 592.750 421.106, 599.659 419.565, 599.854 419.409 C 600.048 419.254, 598.765 414.710, 597.003 409.313 C 595.240 403.916, 591.538 393.200, 588.775 385.500 C 586.011 377.800, 583.646 371.377, 583.518 371.226 C 583.390 371.075, 579.549 377.825, 574.983 386.226 M 326.703 384.250 C 324.229 390.988, 320.583 401.637, 318.602 407.916 C 316.620 414.195, 315.112 419.414, 315.250 419.512 C 315.387 419.611, 322.250 421.101, 330.500 422.823 C 338.750 424.544, 349.686 426.690, 354.803 427.590 C 359.920 428.491, 364.264 429.064, 364.458 428.864 C 364.651 428.664, 360.784 421.975, 355.863 414 C 350.942 406.025, 343.537 393.313, 339.406 385.750 C 335.276 378.188, 331.740 372, 331.549 372 C 331.358 372, 329.177 377.512, 326.703 384.250 M 604.500 446.993 C 603.400 447.405, 594.400 449.357, 584.500 451.330 C 574.600 453.304, 560.200 455.805, 552.500 456.888 C 544.800 457.971, 536.250 459.148, 533.500 459.502 C 528.778 460.111, 528.250 460.490, 524 466.322 C 521.525 469.719, 515.188 477.899, 509.917 484.499 C 504.647 491.100, 496.322 500.927, 491.417 506.338 C 486.513 511.749, 481.461 517.446, 480.190 518.999 L 477.881 521.822 486.690 529.545 C 491.536 533.793, 499.775 540.501, 505 544.451 C 510.225 548.402, 517.875 553.806, 522 556.461 C 526.125 559.116, 533.550 563.451, 538.500 566.094 C 543.450 568.737, 552.450 572.579, 558.500 574.632 C 568.341 577.972, 570.606 578.372, 580 578.432 C 589.003 578.490, 591.090 578.185, 594.636 576.288 C 596.911 575.071, 600.113 572.371, 601.753 570.288 C 603.392 568.205, 605.652 564.686, 606.775 562.470 C 607.898 560.253, 609.543 555.941, 610.431 552.886 C 611.319 549.831, 612.678 543.770, 613.450 539.416 C 614.347 534.368, 614.847 524.436, 614.831 512 C 614.817 501.275, 614.393 489.125, 613.889 485 C 613.385 480.875, 611.804 470.975, 610.375 463 C 608.946 455.025, 607.489 447.992, 607.138 447.372 C 606.757 446.697, 605.696 446.545, 604.500 446.993 M 307.579 448.750 C 307.274 449.712, 305.883 457.235, 304.489 465.466 C 303.095 473.697, 301.460 486.072, 300.857 492.966 C 300.249 499.921, 300.029 512.176, 300.363 520.500 C 300.712 529.188, 301.792 539.444, 302.930 544.872 C 304.010 550.027, 306.513 557.653, 308.491 561.819 C 310.486 566.019, 313.805 571.026, 315.940 573.058 C 318.726 575.708, 321.635 577.220, 326.454 578.525 C 332.340 580.118, 334.048 580.186, 341.116 579.104 C 345.515 578.430, 352.540 576.761, 356.725 575.395 C 360.911 574.029, 369.097 570.470, 374.918 567.487 C 380.738 564.503, 389.550 559.424, 394.500 556.200 C 399.450 552.975, 408.052 546.774, 413.615 542.419 C 419.178 538.063, 426.937 531.637, 430.857 528.138 L 437.985 521.777 432.097 515.638 C 428.858 512.262, 422.433 505.118, 417.819 499.763 C 413.205 494.408, 404.270 483.331, 397.965 475.147 L 386.500 460.268 377 459.082 C 371.775 458.430, 360.677 456.804, 352.337 455.468 C 343.998 454.132, 330.764 451.680, 322.929 450.020 C 315.094 448.359, 308.560 447, 308.409 447 C 308.258 447, 307.885 447.788, 307.579 448.750 M 428.163 468.486 C 430.339 471.244, 437.822 479.972, 444.792 487.883 L 457.464 502.266 463.883 495.383 C 467.413 491.597, 474.409 483.550, 479.431 477.500 C 484.452 471.450, 489.071 465.825, 489.695 465 C 490.698 463.674, 486.965 463.498, 457.518 463.486 L 424.206 463.473 428.163 468.486 M 641.571 657.571 C 640.707 658.436, 640 660.670, 640 662.536 C 640 664.868, 640.605 666.254, 641.934 666.965 C 642.998 667.534, 644.998 668, 646.378 668 C 647.837 668, 649.538 667.070, 650.443 665.777 C 651.299 664.555, 652 662.755, 652 661.777 C 652 660.800, 651.100 659.100, 650 658 C 648.900 656.900, 646.907 656, 645.571 656 C 644.236 656, 642.436 656.707, 641.571 657.571 M 152 696.890 L 152 737 157.500 737 L 163 737 163 721 L 163 705 172.250 705.008 L 181.500 705.015 190 720.989 L 198.500 736.964 204.357 736.982 C 208.639 736.995, 210.084 736.664, 209.731 735.750 C 209.465 735.063, 205.367 727.543, 200.624 719.039 C 195.881 710.536, 192.024 703.336, 192.054 703.039 C 192.084 702.743, 194.214 701.150, 196.787 699.500 C 199.370 697.844, 202.440 694.750, 203.642 692.592 C 204.840 690.443, 206.103 686.799, 206.448 684.495 C 206.794 682.190, 206.587 678.099, 205.988 675.402 C 205.389 672.706, 203.739 668.817, 202.321 666.761 C 200.698 664.407, 197.660 662, 194.121 660.266 C 188.724 657.621, 187.774 657.497, 170.250 657.146 L 152 656.781 152 696.890 M 464 697 L 464 737 469.500 737 L 475 737 475 706.755 L 475 676.509 484.157 690.505 C 489.193 698.202, 497.472 710.855, 502.554 718.623 C 507.636 726.391, 512.306 733.703, 512.932 734.873 C 513.880 736.644, 514.985 737, 519.535 737 L 525 737 525 698 C 525 676.550, 525 658.663, 525 658.250 C 525 657.837, 522.692 657.500, 519.871 657.500 L 514.741 657.500 514.687 687.767 C 514.657 704.413, 514.336 717.688, 513.972 717.267 C 513.609 716.845, 509.513 710.650, 504.870 703.500 C 500.228 696.350, 491.532 682.962, 485.547 673.750 L 474.664 657 469.332 657 L 464 657 464 697 M 163 680.892 L 163 696 172.980 696 C 179.830 696, 184.224 695.494, 186.993 694.386 C 189.211 693.499, 192.025 691.369, 193.246 689.654 C 194.904 687.326, 195.462 685.137, 195.448 681.018 C 195.435 677.331, 194.810 674.571, 193.566 672.699 C 192.541 671.158, 190.307 669.152, 188.602 668.240 C 186.415 667.072, 182.180 666.465, 174.250 666.184 L 163 665.784 163 680.892 M 640.416 677.917 C 640.187 678.146, 640 691.533, 640 707.667 L 640 737 645.500 737 L 651 737 651 707.597 L 651 678.193 645.916 677.847 C 643.120 677.656, 640.645 677.688, 640.416 677.917 M 660.999 678.203 C 660.999 678.590, 661.433 679.940, 661.962 681.203 C 662.491 682.466, 666.566 693.625, 671.016 706 C 675.467 718.375, 679.820 730.413, 680.690 732.750 C 682.203 736.815, 682.453 737, 686.429 737 C 690.374 737, 690.642 736.808, 691.671 733.250 C 692.267 731.188, 696.581 718.925, 701.258 706 C 705.934 693.075, 710.056 681.532, 710.416 680.349 C 711.019 678.371, 710.663 678.170, 705.986 677.849 L 700.900 677.500 693.626 699.881 C 686.887 720.612, 686.270 722.049, 685.247 719.381 C 684.640 717.796, 681.320 707.874, 677.868 697.331 L 671.593 678.162 666.295 677.831 C 663.381 677.649, 660.998 677.816, 660.999 678.203 M 237.500 686.350 C 235.850 687.107, 233.730 688.592, 232.788 689.650 C 231.847 690.708, 230.384 693.230, 229.538 695.254 C 228.692 697.279, 228 699.625, 228 700.468 C 228 701.774, 230.154 702, 242.611 702 L 257.223 702 256.526 698.285 C 256.142 696.241, 255.183 693.320, 254.393 691.794 C 253.604 690.268, 251.860 688.299, 250.517 687.419 C 249.175 686.540, 246.372 685.630, 244.288 685.397 C 242.205 685.164, 239.150 685.593, 237.500 686.350 M 738.500 685.911 C 737.400 686.401, 735.492 687.759, 734.261 688.930 C 733.029 690.100, 731.405 692.282, 730.651 693.779 C 729.897 695.276, 728.984 697.737, 728.621 699.250 L 727.962 702 742.481 702 L 757 702 757 698.950 C 757 697.273, 756.368 694.686, 755.595 693.200 C 754.822 691.715, 753.050 689.435, 751.657 688.134 C 750.029 686.613, 747.584 685.635, 744.812 685.394 C 742.441 685.188, 739.600 685.421, 738.500 685.911 M 302 708.615 C 301.175 708.754, 298.762 709.152, 296.638 709.500 C 294.514 709.848, 291.702 711.207, 290.388 712.521 C 288.599 714.310, 288 716.006, 288 719.280 C 288 722.602, 288.577 724.193, 290.402 725.908 C 291.723 727.149, 294.595 728.404, 296.785 728.698 C 298.975 728.992, 302.366 728.704, 304.320 728.059 C 306.275 727.414, 309.271 725.458, 310.978 723.711 C 313.851 720.773, 314.062 720.085, 313.792 714.518 L 313.500 708.500 308.500 708.432 C 305.750 708.394, 302.825 708.477, 302 708.615 M 561.622 709.053 C 558.442 709.586, 555.744 710.829, 553.872 712.622 C 551.819 714.590, 551 716.338, 551 718.753 C 551 720.611, 551.463 722.997, 552.030 724.055 C 552.596 725.114, 554.374 726.659, 555.980 727.490 C 557.586 728.320, 560.386 728.990, 562.200 728.978 C 564.015 728.966, 567.353 728.115, 569.617 727.086 C 571.882 726.058, 574.470 724.168, 575.367 722.886 C 576.457 721.331, 577 718.465, 577 714.277 L 577 708 571.750 708.118 C 568.862 708.182, 564.305 708.603, 561.622 709.053" stroke="none" fill="#f0f0f0" fill-opacity='0' fill-rule="evenodd"/></svg>