<svg xmlns="http://www.w3.org/2000/svg" width="348" height="348" viewBox="0 0 920 920" version="1.1"><path d="M 301.500 15.704 C 299.850 15.927, 294.900 17.190, 290.500 18.512 C 286.100 19.833, 279.683 22.621, 276.241 24.707 C 272.799 26.793, 267.683 30.483, 264.874 32.907 C 262.064 35.330, 257.744 40.055, 255.274 43.407 C 252.804 46.758, 249.313 52.425, 247.517 56 C 245.721 59.575, 243.128 65.650, 241.755 69.500 C 240.381 73.350, 238.187 81.675, 236.879 88 C 234.708 98.493, 234.506 101.820, 234.570 126 C 234.628 148.059, 235.011 154.930, 236.852 167 C 238.069 174.975, 240.201 187.125, 241.591 194 C 242.980 200.875, 244.791 209.137, 245.615 212.361 C 246.438 215.584, 246.974 218.304, 246.806 218.405 C 246.638 218.506, 238.175 221.195, 228 224.380 C 217.825 227.565, 204.100 232.419, 197.500 235.167 C 190.900 237.915, 179.552 243.239, 172.282 246.998 C 165.012 250.757, 155.112 256.398, 150.282 259.533 C 145.452 262.668, 138.350 267.739, 134.500 270.801 C 130.650 273.863, 124.538 279.362, 120.917 283.021 C 117.296 286.680, 112.243 292.603, 109.688 296.184 C 107.133 299.764, 103.498 305.821, 101.609 309.642 C 99.720 313.464, 97.365 319.270, 96.376 322.545 C 95.089 326.805, 94.566 331.915, 94.539 340.500 C 94.507 350.368, 94.916 353.825, 96.842 359.957 C 98.130 364.058, 100.666 370.358, 102.479 373.957 C 104.291 377.556, 107.962 383.425, 110.637 386.999 C 113.312 390.574, 118.825 396.768, 122.889 400.765 C 126.953 404.762, 133.582 410.519, 137.622 413.559 C 141.661 416.599, 150.036 422.156, 156.233 425.909 C 162.430 429.661, 172.268 435.021, 178.096 437.818 C 183.924 440.615, 194.949 445.346, 202.596 448.331 C 210.243 451.316, 221.450 455.347, 227.500 457.289 C 233.550 459.230, 240.450 461.337, 242.834 461.970 C 245.586 462.702, 246.992 463.578, 246.687 464.373 C 246.423 465.061, 245.047 470.996, 243.629 477.562 C 242.211 484.128, 240.178 494.675, 239.112 501 C 238.046 507.325, 236.578 517.225, 235.850 523 C 235.078 529.113, 234.549 542.900, 234.583 556 C 234.631 574.797, 235.006 580.475, 236.860 590.500 C 238.081 597.100, 240.435 606.499, 242.092 611.387 C 243.749 616.274, 246.260 622.574, 247.672 625.387 C 249.084 628.199, 252.175 633.232, 254.542 636.570 C 256.908 639.909, 261.584 645.177, 264.933 648.277 C 268.281 651.377, 273.829 655.474, 277.260 657.381 C 280.692 659.288, 286.525 661.818, 290.221 663.002 C 293.918 664.186, 301.343 665.493, 306.721 665.907 C 312.100 666.321, 318.300 666.528, 320.500 666.366 C 322.700 666.205, 326.750 665.807, 329.500 665.481 C 332.250 665.155, 338.202 663.983, 342.726 662.876 C 347.250 661.768, 354.864 659.285, 359.647 657.357 C 364.429 655.428, 371.977 652.025, 376.421 649.795 C 380.864 647.564, 389.450 642.604, 395.500 638.773 C 401.550 634.942, 410.550 628.829, 415.500 625.188 C 420.450 621.548, 428.550 615.206, 433.500 611.096 C 438.450 606.986, 446.452 600.031, 451.283 595.641 L 460.066 587.659 463.783 591.148 C 465.827 593.067, 469.975 596.922, 473 599.715 C 476.025 602.508, 481.875 607.604, 486 611.040 C 490.125 614.476, 497.807 620.552, 503.070 624.544 C 508.334 628.535, 516.836 634.556, 521.965 637.924 C 527.094 641.291, 535.837 646.476, 541.395 649.445 C 546.953 652.414, 555.420 656.457, 560.212 658.429 C 565.003 660.401, 574.228 663.399, 580.712 665.091 C 590.913 667.753, 594.250 668.170, 605.500 668.189 C 614.451 668.204, 620.524 667.690, 625 666.539 C 628.575 665.620, 635.146 663.117, 639.603 660.977 C 645.251 658.264, 650.015 654.929, 655.324 649.971 C 659.513 646.058, 665.034 639.710, 667.591 635.863 C 670.148 632.017, 673.690 625.411, 675.461 621.185 C 677.233 616.958, 679.619 609.900, 680.765 605.500 C 681.910 601.100, 683.444 594.125, 684.173 590 C 685.038 585.111, 685.496 573.970, 685.488 558 C 685.481 543.338, 684.950 529.685, 684.164 524 C 683.442 518.775, 681.975 509.325, 680.904 503 C 679.833 496.675, 677.824 486.325, 676.440 480 C 675.055 473.675, 673.696 467.749, 673.419 466.831 C 673.081 465.708, 673.668 464.942, 675.208 464.492 C 676.469 464.124, 685.823 461.127, 695.996 457.833 C 706.169 454.538, 718.221 450.300, 722.779 448.413 C 727.337 446.526, 736.398 442.309, 742.916 439.042 C 749.434 435.775, 758.662 430.801, 763.423 427.989 C 768.184 425.177, 776.449 419.575, 781.790 415.540 C 787.130 411.505, 795.152 404.446, 799.615 399.852 C 804.078 395.258, 810.015 387.994, 812.808 383.709 C 815.601 379.423, 819.233 372.425, 820.880 368.156 C 822.526 363.887, 824.412 357.295, 825.072 353.507 C 825.763 349.539, 826.034 342.950, 825.710 337.959 C 825.362 332.579, 824.146 326.304, 822.501 321.398 C 821.045 317.054, 818.469 311.025, 816.778 308 C 815.086 304.975, 811.881 300.025, 809.654 297 C 807.428 293.975, 803.107 288.857, 800.053 285.627 C 796.999 282.396, 791.330 277.156, 787.456 273.981 C 783.582 270.806, 775.932 265.316, 770.456 261.781 C 764.980 258.246, 757.125 253.513, 753 251.263 C 748.875 249.012, 740.775 245.075, 735 242.513 C 729.225 239.950, 718.875 235.698, 712 233.062 C 705.125 230.427, 695 226.869, 689.500 225.155 C 684 223.442, 678.004 221.743, 676.177 221.380 C 673.186 220.787, 672.920 220.460, 673.522 218.110 C 673.889 216.675, 675.498 209.572, 677.097 202.327 C 678.696 195.082, 680.906 183.157, 682.009 175.827 C 683.112 168.497, 684.545 154.479, 685.192 144.676 C 686.094 131.004, 686.094 123.202, 685.191 111.176 C 684.543 102.554, 683.140 91.412, 682.073 86.416 C 681.006 81.419, 679.176 74.444, 678.007 70.916 C 676.838 67.387, 674.011 60.741, 671.725 56.146 C 669.438 51.552, 665.062 44.809, 661.999 41.162 C 658.936 37.515, 653.855 32.457, 650.707 29.921 C 647.560 27.385, 642.137 23.922, 638.657 22.225 C 635.177 20.528, 629.443 18.337, 625.915 17.356 C 621.089 16.014, 615.907 15.577, 605 15.594 C 592.504 15.613, 589.072 15.990, 580.167 18.319 C 574.485 19.805, 566.015 22.603, 561.346 24.535 C 556.678 26.468, 549.177 29.899, 544.679 32.160 C 540.181 34.421, 532.450 38.733, 527.500 41.742 C 522.550 44.751, 513.775 50.649, 508 54.850 C 502.225 59.050, 493.450 65.848, 488.500 69.956 C 483.550 74.064, 474.944 81.579, 469.376 86.656 L 459.251 95.888 450.876 88.080 C 446.269 83.785, 438.450 76.803, 433.500 72.565 C 428.550 68.327, 420.325 61.705, 415.223 57.849 C 410.121 53.994, 400.671 47.459, 394.223 43.327 C 387.775 39.195, 377.550 33.405, 371.500 30.461 C 365.450 27.517, 355.996 23.562, 350.491 21.672 C 344.987 19.782, 336.245 17.507, 331.065 16.618 C 325.886 15.728, 317.789 15.067, 313.074 15.150 C 308.358 15.232, 303.150 15.482, 301.500 15.704 M 304.324 49.442 C 300.927 50.213, 295.752 52.393, 292.824 54.286 C 289.896 56.179, 286.519 58.802, 285.320 60.114 C 284.122 61.426, 281.518 65.200, 279.535 68.500 C 277.552 71.800, 274.816 78.023, 273.456 82.328 C 272.096 86.634, 270.314 94.284, 269.496 99.328 C 268.607 104.804, 268.010 115.149, 268.013 125 C 268.015 134.075, 268.655 146.900, 269.434 153.500 C 270.212 160.100, 271.556 169.775, 272.419 175 C 273.283 180.225, 275.206 190.282, 276.695 197.348 L 279.400 210.197 282.450 209.666 C 284.128 209.374, 290.675 208.026, 297 206.670 C 303.325 205.314, 315.700 203.053, 324.500 201.644 C 333.300 200.235, 347.025 198.369, 355 197.498 C 362.975 196.626, 370.961 195.687, 372.747 195.412 C 375.511 194.985, 377.233 193.244, 384.331 183.699 C 388.916 177.533, 398.073 165.740, 404.678 157.494 C 411.284 149.247, 420.246 138.524, 424.594 133.664 C 428.942 128.804, 433.400 123.694, 434.500 122.307 L 436.500 119.786 426 109.763 C 420.225 104.251, 409.650 95.043, 402.500 89.301 C 395.350 83.560, 385.675 76.333, 381 73.241 C 376.325 70.149, 368.450 65.487, 363.500 62.880 C 358.550 60.273, 352.025 57.152, 349 55.945 C 345.975 54.738, 339.753 52.702, 335.174 51.421 C 330.595 50.140, 323.170 48.855, 318.674 48.566 C 313.417 48.228, 308.296 48.541, 304.324 49.442 M 596.477 48.928 C 593.714 49.367, 588.764 50.483, 585.477 51.408 C 582.189 52.333, 577.025 54.045, 574 55.213 C 570.975 56.381, 565.125 59.020, 561 61.079 C 556.875 63.137, 549.554 67.312, 544.730 70.355 C 539.907 73.399, 531.807 79.017, 526.730 82.840 C 521.654 86.662, 513.450 93.255, 508.500 97.491 C 503.550 101.727, 496.021 108.566, 491.768 112.690 L 484.036 120.188 492.773 129.844 C 497.578 135.155, 504.888 143.550, 509.019 148.500 C 513.149 153.450, 518.282 159.689, 520.425 162.365 C 522.569 165.041, 528.563 172.912, 533.747 179.856 C 538.930 186.801, 543.506 193.082, 543.916 193.814 C 544.411 194.699, 550.853 195.942, 563.081 197.514 C 573.211 198.816, 584.875 200.365, 589 200.957 C 593.125 201.549, 599.200 202.496, 602.500 203.061 C 605.800 203.627, 615.652 205.454, 624.394 207.121 C 636.157 209.365, 640.475 209.849, 641.010 208.984 C 641.407 208.341, 643.590 198.294, 645.861 186.657 C 648.132 175.021, 650.713 158.525, 651.596 150 C 652.684 139.498, 653.035 129.664, 652.684 119.500 C 652.399 111.250, 651.428 100.503, 650.526 95.617 C 649.624 90.732, 648.183 84.657, 647.324 82.117 C 646.465 79.578, 644.840 75.532, 643.713 73.127 C 642.586 70.721, 639.974 66.505, 637.909 63.756 C 635.843 61.007, 632.041 57.256, 629.459 55.420 C 626.876 53.584, 622.679 51.396, 620.132 50.558 C 617.584 49.720, 612.350 48.831, 608.500 48.582 C 604.650 48.333, 599.239 48.489, 596.477 48.928 M 448.630 157.531 C 442.651 164.384, 433.924 174.831, 429.235 180.746 L 420.710 191.500 440.355 191.771 C 451.160 191.920, 468.835 191.920, 479.633 191.771 L 499.266 191.500 488.740 178.500 C 482.951 171.350, 474.277 161, 469.465 155.500 C 464.652 150, 460.441 145.403, 460.107 145.285 C 459.773 145.166, 454.608 150.677, 448.630 157.531 M 434 225.232 C 433.725 225.503, 424.950 226.010, 414.500 226.357 C 404.050 226.705, 395.372 226.992, 395.216 226.995 C 395.060 226.998, 391.049 232.960, 386.303 240.245 C 381.556 247.530, 373.783 259.793, 369.029 267.495 C 364.275 275.198, 358.103 285.550, 355.312 290.500 C 352.521 295.450, 348.890 301.975, 347.242 305 C 345.594 308.025, 340.733 317.430, 336.439 325.901 L 328.631 341.302 337.963 359.854 C 343.096 370.057, 352.685 387.652, 359.271 398.953 C 365.858 410.254, 375.804 426.602, 381.373 435.283 C 386.943 443.963, 392.400 452.155, 393.500 453.487 C 395.449 455.847, 396.010 455.929, 415.500 456.705 C 426.500 457.142, 450.800 457.423, 469.500 457.329 C 488.200 457.235, 504.625 456.931, 506 456.653 C 507.375 456.376, 512.226 456.115, 516.780 456.074 L 525.060 456 534.444 441.611 C 539.606 433.697, 548.519 419.410, 554.253 409.861 C 559.986 400.312, 567.399 387.550, 570.727 381.500 C 574.054 375.450, 579.977 364.117, 583.888 356.316 C 587.800 348.515, 591 341.821, 591 341.441 C 591 341.060, 587.013 332.818, 582.140 323.124 C 577.267 313.431, 568.878 297.850, 563.497 288.500 C 558.116 279.150, 550.212 265.875, 545.932 259 C 541.652 252.125, 535.303 242.225, 531.825 237 L 525.500 227.500 517 226.860 C 512.325 226.508, 491.850 225.887, 471.500 225.479 C 451.150 225.072, 434.275 224.960, 434 225.232 M 346 233.021 C 343.525 233.459, 336.550 234.583, 330.500 235.519 C 324.450 236.455, 312.805 238.504, 304.623 240.071 C 296.440 241.638, 289.610 243.057, 289.444 243.222 C 289.279 243.388, 291.950 251.843, 295.382 262.012 C 298.813 272.180, 303.754 285.516, 306.361 291.647 L 311.100 302.793 316.928 291.647 C 320.133 285.516, 326.338 274.425, 330.717 267 C 335.097 259.575, 340.915 249.900, 343.647 245.500 C 346.379 241.100, 349.428 236.262, 350.422 234.750 C 351.417 233.238, 351.841 232.050, 351.365 232.112 C 350.889 232.173, 348.475 232.582, 346 233.021 M 570.204 233.750 C 571.036 234.713, 574.858 240.675, 578.696 247 C 582.535 253.325, 589.281 265.025, 593.689 273 C 598.097 280.975, 603.399 290.784, 605.471 294.797 C 607.544 298.810, 609.361 301.960, 609.509 301.797 C 609.657 301.634, 611.346 297.675, 613.261 293 C 615.176 288.325, 618.801 278.875, 621.316 272 C 623.830 265.125, 627.142 255.816, 628.674 251.313 C 630.206 246.811, 631.212 242.879, 630.910 242.576 C 630.607 242.274, 624.541 240.897, 617.430 239.516 C 610.318 238.136, 597.300 235.881, 588.500 234.506 C 579.700 233.130, 571.643 232.004, 570.595 232.003 C 568.871 232, 568.834 232.166, 570.204 233.750 M 253.516 251.734 C 252.424 252.011, 246.799 253.777, 241.016 255.658 C 235.232 257.540, 225.550 260.920, 219.500 263.169 C 213.450 265.419, 201.300 270.737, 192.500 274.988 C 183.700 279.238, 171.551 286.043, 165.501 290.108 C 159.313 294.267, 150.729 301.261, 145.874 306.100 C 138.984 312.967, 136.388 316.430, 132.994 323.280 C 129.624 330.081, 128.642 333.275, 128.254 338.691 C 127.856 344.259, 128.229 346.858, 130.271 352.728 C 131.649 356.690, 134.830 362.810, 137.340 366.328 C 139.850 369.846, 145.188 375.767, 149.202 379.486 C 153.216 383.206, 161.225 389.389, 167 393.228 C 172.775 397.067, 184.700 403.718, 193.500 408.008 C 202.300 412.298, 214.675 417.700, 221 420.012 C 227.325 422.324, 235.200 425.108, 238.500 426.198 C 241.800 427.289, 247.234 428.986, 250.575 429.970 L 256.650 431.759 257.805 427.441 C 258.440 425.066, 261.479 416.008, 264.559 407.312 C 267.639 398.615, 273.239 384.075, 277.003 375 C 280.767 365.925, 285.623 354.643, 287.795 349.929 C 291.346 342.222, 291.612 341.107, 290.437 338.864 C 289.718 337.492, 285.754 328.449, 281.628 318.768 C 277.502 309.087, 271.894 295.167, 269.165 287.833 C 266.436 280.500, 262.485 269.212, 260.384 262.750 C 258.284 256.288, 256.325 251.052, 256.033 251.116 C 255.740 251.180, 254.607 251.458, 253.516 251.734 M 659.657 263.255 C 657.544 269.990, 653.559 281.350, 650.803 288.500 C 648.046 295.650, 643.413 307.125, 640.506 314 C 637.599 320.875, 633.678 329.875, 631.791 334 L 628.361 341.500 632.081 349.553 C 634.127 353.982, 638.813 364.977, 642.494 373.986 C 646.175 382.995, 651.369 396.471, 654.035 403.933 C 656.702 411.395, 659.882 420.710, 661.103 424.633 L 663.321 431.767 669.411 429.986 C 672.760 429.007, 679.325 426.983, 684 425.488 C 688.675 423.994, 698.056 420.558, 704.846 417.854 C 711.637 415.149, 722.212 410.507, 728.346 407.537 C 734.481 404.567, 743.431 399.744, 748.235 396.819 C 753.039 393.893, 760.805 388.434, 765.493 384.688 C 770.180 380.941, 776.431 374.866, 779.385 371.188 C 782.338 367.509, 785.779 362.475, 787.030 360 C 788.281 357.525, 789.906 353.250, 790.641 350.500 C 791.375 347.750, 791.982 343.628, 791.988 341.339 C 791.995 339.051, 791.147 334.439, 790.105 331.091 C 789.063 327.743, 786.715 322.640, 784.886 319.752 C 783.058 316.863, 778.848 311.632, 775.531 308.126 C 772.214 304.621, 766.125 299.178, 762 296.031 C 757.875 292.885, 750.225 287.743, 745 284.605 C 739.775 281.467, 731.310 276.884, 726.189 274.419 C 721.069 271.955, 711.394 267.757, 704.689 265.091 C 697.985 262.425, 686.115 258.164, 678.312 255.622 C 670.509 253.080, 663.984 251.002, 663.812 251.005 C 663.640 251.008, 661.771 256.520, 659.657 263.255 M 448.500 275.423 C 444.650 276.169, 438.888 277.771, 435.696 278.982 C 432.504 280.193, 426.563 283.411, 422.493 286.133 C 418.424 288.855, 412.825 293.651, 410.052 296.791 C 407.280 299.931, 403.249 305.875, 401.096 310 C 398.943 314.125, 396.368 320.200, 395.373 323.500 C 394.063 327.849, 393.565 332.802, 393.565 341.500 C 393.565 350.197, 394.061 355.137, 395.368 359.448 C 396.359 362.719, 398.540 368.119, 400.214 371.448 C 401.888 374.776, 405.414 380.200, 408.050 383.500 C 410.686 386.800, 415.131 391.300, 417.928 393.500 C 420.725 395.700, 426.273 399.170, 430.257 401.210 C 434.241 403.251, 440.650 405.614, 444.500 406.462 C 448.350 407.309, 453.834 408.154, 456.686 408.339 C 459.538 408.524, 464.866 408.274, 468.525 407.784 C 472.184 407.294, 478.319 405.760, 482.156 404.376 C 485.994 402.991, 491.818 400.285, 495.099 398.363 C 498.380 396.440, 504.133 391.767, 507.885 387.978 C 511.963 383.859, 516.137 378.357, 518.266 374.295 C 520.225 370.558, 522.788 364.637, 523.962 361.137 C 525.250 357.300, 526.317 350.949, 526.650 345.137 C 527.044 338.264, 526.744 333.349, 525.604 328 C 524.725 323.875, 522.279 316.900, 520.169 312.500 C 518.058 308.100, 514.013 301.715, 511.179 298.310 C 508.346 294.906, 503.153 290.070, 499.641 287.563 C 496.128 285.056, 490.834 281.900, 487.877 280.550 C 484.920 279.199, 479.800 277.393, 476.500 276.537 C 473.200 275.680, 467.125 274.774, 463 274.523 C 458.760 274.265, 452.458 274.656, 448.500 275.423 M 606.040 387.109 C 604.220 390.624, 599.802 398.675, 596.222 405 C 592.641 411.325, 585.899 422.800, 581.238 430.500 C 576.577 438.200, 571.842 445.799, 570.717 447.386 L 568.670 450.272 574.585 449.569 C 577.838 449.182, 587.398 447.753, 595.829 446.394 C 604.260 445.035, 615.479 443.033, 620.760 441.946 C 626.042 440.860, 630.553 439.781, 630.785 439.549 C 631.017 439.317, 629.973 435.386, 628.465 430.813 C 626.957 426.241, 623.698 417.100, 621.222 410.500 C 618.746 403.900, 616.141 396.925, 615.433 395 C 614.725 393.075, 613.067 389.074, 611.748 386.109 L 609.349 380.718 606.040 387.109 M 309.174 386.108 C 308.142 388.524, 305.004 396.575, 302.201 404 C 299.397 411.425, 295.327 422.565, 293.156 428.755 C 290.985 434.946, 289.511 440.198, 289.880 440.426 C 290.249 440.654, 296.597 442.019, 303.988 443.460 C 311.379 444.901, 324.829 447.188, 333.878 448.542 C 342.927 449.896, 350.524 450.809, 350.761 450.572 C 350.999 450.335, 349.868 448.196, 348.249 445.820 C 346.629 443.444, 339.480 431.600, 332.362 419.500 C 325.244 407.400, 317.685 394.125, 315.564 390 C 313.443 385.875, 311.560 382.324, 311.379 382.108 C 311.198 381.893, 310.206 383.693, 309.174 386.108 M 275.677 491.750 C 273.644 502.063, 271.266 515, 270.392 520.500 C 269.519 526, 268.568 539.813, 268.279 551.195 C 267.937 564.675, 268.169 574.785, 268.944 580.195 C 269.599 584.763, 271.041 592.100, 272.149 596.500 C 273.256 600.900, 275.807 607.650, 277.816 611.500 C 279.825 615.350, 283.551 620.597, 286.096 623.159 C 288.641 625.721, 292.635 628.793, 294.972 629.986 C 297.310 631.178, 302.299 632.795, 306.060 633.580 C 309.821 634.364, 314.383 634.807, 316.199 634.565 C 318.014 634.323, 322.182 633.828, 325.460 633.464 C 328.739 633.101, 335.430 631.493, 340.331 629.892 C 345.231 628.291, 353.753 624.700, 359.268 621.913 C 364.783 619.126, 373.617 614.032, 378.898 610.593 C 384.179 607.154, 393 600.830, 398.500 596.540 C 404 592.250, 412.100 585.547, 416.500 581.644 C 420.900 577.740, 427.287 571.894, 430.693 568.652 L 436.886 562.758 426.506 551.390 C 420.796 545.137, 410.801 533.379, 404.294 525.261 C 397.787 517.142, 388.650 505.265, 383.990 498.866 L 375.515 487.232 368.008 486.562 C 363.878 486.194, 351.054 484.544, 339.508 482.896 C 327.963 481.247, 310.320 478.347, 300.303 476.449 C 290.285 474.552, 281.478 473, 280.731 473 C 279.767 473, 278.301 478.436, 275.677 491.750 M 630.500 474.617 C 627.200 475.364, 618.425 477.122, 611 478.524 C 603.575 479.926, 594.350 481.523, 590.500 482.072 C 586.650 482.622, 578.550 483.710, 572.500 484.490 C 566.450 485.270, 557.647 486.209, 552.938 486.577 L 544.376 487.245 535.457 499.339 C 530.552 505.990, 521.314 517.973, 514.928 525.966 C 508.543 533.960, 498.971 545.313, 493.659 551.196 C 488.347 557.079, 484 562.295, 484 562.788 C 484 563.280, 486.828 566.342, 490.284 569.591 C 493.740 572.841, 499.027 577.772, 502.034 580.548 C 505.040 583.325, 511.105 588.514, 515.512 592.080 C 519.919 595.646, 527.551 601.425, 532.472 604.923 C 537.393 608.421, 544.813 613.291, 548.960 615.747 C 553.107 618.202, 558.975 621.462, 562 622.991 C 565.025 624.520, 571.550 627.201, 576.500 628.948 C 581.450 630.695, 589.877 632.779, 595.228 633.580 C 600.578 634.381, 606.203 634.839, 607.728 634.598 C 609.252 634.357, 612.525 633.845, 615 633.460 C 617.475 633.075, 621.300 631.854, 623.500 630.747 C 625.700 629.640, 629.258 627.350, 631.406 625.659 C 633.554 623.968, 637.011 619.957, 639.087 616.744 C 641.163 613.532, 643.994 607.888, 645.378 604.202 C 646.762 600.516, 648.637 594.125, 649.544 590 C 650.612 585.139, 651.375 575.579, 651.712 562.832 C 652.030 550.740, 651.778 539.185, 651.057 532.832 C 650.411 527.150, 648.780 515.750, 647.431 507.500 C 646.083 499.250, 644.292 489.350, 643.452 485.500 C 642.612 481.650, 641.660 477.262, 641.337 475.750 C 640.907 473.735, 640.182 473.035, 638.625 473.130 C 637.456 473.202, 633.800 473.871, 630.500 474.617 M 420.609 491.177 C 420.840 491.549, 425.184 496.998, 430.264 503.285 C 435.344 509.572, 444 519.930, 449.500 526.303 C 455 532.676, 459.725 537.887, 460 537.884 C 460.275 537.880, 465.087 532.603, 470.694 526.157 C 476.300 519.711, 484.960 509.350, 489.937 503.134 C 494.914 496.917, 499.172 491.531, 499.398 491.165 C 499.624 490.799, 481.895 490.500, 460 490.500 C 438.105 490.500, 420.379 490.805, 420.609 491.177 M 115 805.473 L 115 899.068 125.750 898.784 L 136.500 898.500 136.763 863.174 L 137.026 827.847 156.624 828.174 L 176.223 828.500 178.861 831.693 C 180.313 833.448, 191.151 849.873, 202.947 868.193 C 214.743 886.512, 225.093 902.048, 225.947 902.718 C 226.998 903.542, 232.109 903.947, 241.750 903.968 C 249.588 903.986, 256 903.801, 256 903.558 C 256 903.315, 249.470 893.172, 241.490 881.018 C 233.509 868.865, 222.077 851.549, 216.086 842.540 L 205.192 826.158 212.600 824.510 C 216.674 823.604, 223.141 821.294, 226.971 819.378 C 231.945 816.890, 235.515 814.124, 239.466 809.697 C 242.509 806.289, 246.522 800.575, 248.385 797 C 250.247 793.425, 252.552 787.350, 253.506 783.500 C 254.788 778.332, 255.098 774.235, 254.692 767.847 C 254.390 763.088, 253.167 755.888, 251.974 751.847 C 250.781 747.806, 248.386 741.806, 246.653 738.513 C 244.919 735.220, 241.003 730.023, 237.952 726.965 C 234.642 723.648, 229.801 720.154, 225.952 718.306 C 222.403 716.602, 217.700 714.627, 215.500 713.917 C 212.532 712.959, 199.051 712.530, 163.250 712.252 L 115 711.878 115 805.473 M 748 745.466 L 748 764.932 737.289 765.216 L 726.578 765.500 725.960 768.534 C 725.619 770.202, 725.543 774.365, 725.791 777.784 L 726.240 784 737.578 784 L 748.916 784 749.208 835.750 L 749.500 887.500 751.863 892.256 C 753.163 894.872, 755.638 898.206, 757.363 899.664 C 759.088 901.123, 762.401 903.161, 764.724 904.193 C 767.047 905.226, 771.862 906.342, 775.424 906.675 C 779.140 907.022, 784.585 906.757, 788.200 906.052 C 791.665 905.377, 796.628 903.672, 799.230 902.264 C 801.831 900.856, 804.233 898.842, 804.567 897.789 C 804.926 896.658, 803.837 892.828, 801.907 888.437 C 800.109 884.347, 798.325 881, 797.942 881 C 797.558 881, 796.686 881.674, 796.003 882.497 C 795.319 883.320, 792.609 884.633, 789.979 885.414 C 786.949 886.313, 783.967 886.556, 781.841 886.077 C 779.995 885.661, 777.484 884.694, 776.259 883.930 C 775.035 883.165, 773.350 880.834, 772.516 878.749 C 771.239 875.557, 771 867.796, 771 829.508 L 771 784.056 784.750 783.778 L 798.500 783.500 798.784 772.750 L 799.068 762 784.534 762 L 770 762 770 744 L 770 726 759 726 L 748 726 748 745.466 M 147.750 734.784 L 137 735.068 137 770.394 L 137 805.720 167.750 805.577 C 197.325 805.440, 198.721 805.346, 204.282 803.133 C 207.463 801.868, 211.963 799.392, 214.282 797.633 C 216.602 795.873, 219.956 792.269, 221.736 789.624 C 223.516 786.979, 225.535 782.944, 226.223 780.657 C 226.911 778.371, 227.430 773.350, 227.377 769.500 C 227.314 764.910, 226.533 760.555, 225.107 756.853 C 223.912 753.747, 221.125 749.151, 218.914 746.640 C 216.530 743.931, 212.373 740.834, 208.697 739.028 C 203.363 736.406, 201.038 735.907, 192 735.440 C 186.225 735.142, 176.325 734.808, 170 734.699 C 163.675 734.590, 153.662 734.628, 147.750 734.784 M 653.500 760.557 C 652.400 760.811, 649.025 761.504, 646 762.095 C 642.975 762.687, 636.744 764.966, 632.154 767.161 C 625.829 770.184, 622.053 772.889, 616.565 778.325 C 612.582 782.271, 607.740 788.227, 605.805 791.559 C 603.870 794.892, 601.300 800.256, 600.094 803.479 C 598.888 806.702, 597.248 812.442, 596.451 816.235 C 595.653 820.028, 595 827.112, 595 831.977 C 595 836.843, 595.634 844.126, 596.409 848.162 C 597.184 852.198, 599.001 858.650, 600.447 862.500 C 601.893 866.350, 604.710 871.969, 606.706 874.987 C 608.702 878.005, 612.622 882.912, 615.418 885.891 C 618.213 888.870, 623.425 893.199, 627 895.511 C 630.575 897.824, 635.975 900.625, 639 901.737 C 642.025 902.849, 647.870 904.322, 651.990 905.010 C 656.671 905.792, 662.896 906.021, 668.591 905.621 C 673.602 905.269, 680.132 904.281, 683.101 903.427 C 686.071 902.573, 690.522 900.948, 692.994 899.817 C 695.466 898.686, 699.307 896.509, 701.529 894.980 C 703.752 893.450, 707.918 889.828, 710.786 886.930 C 713.653 884.031, 715.966 881.399, 715.925 881.080 C 715.883 880.761, 712.487 877.639, 708.378 874.142 L 700.907 867.785 694.984 873.433 C 691.727 876.540, 686.548 880.233, 683.474 881.641 C 680.400 883.048, 674.986 884.696, 671.443 885.303 C 666.695 886.116, 663.251 886.107, 658.352 885.267 C 654.695 884.641, 648.810 882.704, 645.273 880.963 C 641.594 879.151, 636.599 875.517, 633.597 872.467 C 630.712 869.536, 626.961 864.519, 625.260 861.319 C 623.560 858.118, 621.455 852.735, 620.584 849.356 C 619.699 845.923, 619.015 839.304, 619.035 834.356 C 619.054 829.485, 619.700 821.964, 620.470 817.642 C 621.240 813.321, 623.031 807.413, 624.450 804.514 C 625.868 801.615, 629.276 796.959, 632.024 794.168 C 634.879 791.267, 639.692 787.824, 643.260 786.130 C 646.692 784.501, 652.170 782.680, 655.434 782.084 C 658.697 781.488, 663.495 781, 666.095 781 C 668.695 781, 673.449 781.820, 676.661 782.823 C 679.872 783.825, 684.336 785.808, 686.580 787.228 C 688.825 788.649, 692.467 791.653, 694.674 793.905 C 696.882 796.157, 699.282 798, 700.009 798 C 700.736 798, 704.293 795.188, 707.915 791.750 C 711.537 788.313, 714.634 785.211, 714.797 784.858 C 714.961 784.505, 712.594 781.516, 709.539 778.215 C 705.712 774.082, 701.573 770.962, 696.241 768.193 C 691.984 765.982, 685.624 763.430, 682.108 762.522 C 678.593 761.615, 671.168 760.697, 665.608 760.483 C 660.049 760.269, 654.600 760.302, 653.500 760.557 M 338 762.516 C 334.425 763.247, 329.668 764.506, 327.429 765.315 C 325.190 766.123, 320.938 768.011, 317.980 769.510 C 315.023 771.009, 310.177 774.067, 307.212 776.306 C 304.246 778.545, 299.434 783.425, 296.518 787.152 C 293.603 790.878, 289.856 797.206, 288.193 801.214 C 286.529 805.221, 284.410 812.100, 283.483 816.500 C 282.541 820.972, 281.782 829.130, 281.762 835 C 281.743 840.775, 282.276 848.425, 282.948 852 C 283.619 855.575, 285.509 861.898, 287.147 866.051 C 288.785 870.203, 292.399 876.638, 295.178 880.349 C 297.958 884.060, 302.982 889.322, 306.343 892.041 C 309.704 894.761, 315.614 898.546, 319.477 900.452 C 323.340 902.359, 329.650 904.690, 333.500 905.632 C 338.256 906.797, 344.506 907.337, 353 907.319 C 360.571 907.303, 368.322 906.672, 372.657 905.719 C 376.594 904.854, 383.291 902.540, 387.541 900.577 C 391.790 898.613, 397.663 895.093, 400.591 892.753 C 403.519 890.414, 406.189 887.716, 406.522 886.758 C 406.925 885.604, 405.529 882.904, 402.388 878.758 C 399.780 875.316, 397.532 872.343, 397.391 872.151 C 397.251 871.959, 394.223 873.880, 390.664 876.420 C 387.105 878.960, 381.337 882.325, 377.846 883.898 C 374.356 885.471, 369.115 887.262, 366.201 887.879 C 363.286 888.495, 357.886 888.995, 354.201 888.988 C 350.515 888.982, 345.045 888.323, 342.045 887.525 C 339.045 886.726, 333.793 884.696, 330.374 883.012 C 326.438 881.075, 322.303 877.923, 319.105 874.424 C 316.326 871.384, 312.727 866.107, 311.107 862.698 C 309.487 859.289, 307.451 853.735, 306.581 850.356 C 305.711 846.976, 305 843.714, 305 843.106 C 305 842.311, 320.631 842, 360.500 842 L 416 842 416.211 835.250 C 416.327 831.538, 416.294 826.057, 416.138 823.071 C 415.982 820.085, 414.717 814.010, 413.326 809.571 C 411.935 805.132, 409.181 798.350, 407.205 794.500 C 404.727 789.671, 401.115 785.015, 395.557 779.489 C 389.963 773.926, 385.465 770.482, 380.842 768.221 C 377.180 766.430, 370.696 764.073, 366.432 762.983 C 361.944 761.835, 355.695 761.040, 351.590 761.094 C 347.691 761.146, 341.575 761.786, 338 762.516 M 493 761.659 C 491.625 761.864, 487.350 762.754, 483.500 763.636 C 479.650 764.519, 473.575 766.726, 470 768.540 C 466.425 770.354, 462.103 772.887, 460.396 774.169 C 458.689 775.451, 455.418 778.194, 453.126 780.265 L 448.960 784.031 454.130 791.765 C 456.974 796.019, 459.447 799.677, 459.626 799.892 C 459.805 800.108, 462.350 798.235, 465.282 795.731 C 468.213 793.226, 472.946 789.801, 475.799 788.118 C 478.652 786.436, 483.577 784.283, 486.743 783.334 C 490.489 782.211, 495.819 781.618, 502 781.636 C 507.803 781.653, 513.665 782.303, 517.064 783.306 C 520.124 784.209, 524.452 786.269, 526.681 787.884 C 528.918 789.504, 531.672 792.766, 532.827 795.160 C 533.977 797.547, 535.406 802.662, 536.002 806.526 C 536.597 810.390, 536.953 817.515, 536.792 822.360 L 536.500 831.170 531.738 827.530 C 529.119 825.528, 523.719 822.347, 519.738 820.460 C 515.757 818.574, 510.076 816.574, 507.114 816.015 C 504.151 815.457, 498.301 815.008, 494.114 815.017 C 489.926 815.027, 483.358 815.700, 479.517 816.514 C 475.677 817.327, 470.052 819.203, 467.017 820.682 C 463.983 822.162, 459.021 825.876, 455.991 828.936 C 452.961 831.996, 449.254 837.048, 447.753 840.163 C 446.252 843.278, 444.477 849.015, 443.808 852.913 C 442.864 858.417, 442.857 861.813, 443.775 868.115 C 444.426 872.577, 446.068 878.654, 447.425 881.617 C 448.782 884.581, 452.178 889.423, 454.973 892.378 C 457.767 895.332, 462.629 899.113, 465.777 900.780 C 468.925 902.446, 473.847 904.498, 476.716 905.341 C 479.586 906.183, 485.005 907.175, 488.761 907.545 C 492.557 907.919, 498.677 907.730, 502.544 907.119 C 506.370 906.514, 511.097 905.569, 513.048 905.018 C 515 904.468, 521.525 900.862, 527.548 897.006 L 538.500 889.995 539 894.747 L 539.500 899.500 548.798 899.368 C 553.913 899.296, 558.287 899.046, 558.519 898.814 C 558.751 898.582, 559.220 880.191, 559.560 857.946 C 559.908 835.195, 559.761 811.499, 559.224 803.784 C 558.409 792.082, 557.871 789.258, 555.565 784.544 C 554.078 781.505, 550.981 777.169, 548.681 774.909 C 546.381 772.649, 542.744 769.901, 540.597 768.802 C 538.451 767.703, 534.861 766.157, 532.620 765.366 C 530.379 764.575, 525.385 763.470, 521.523 762.909 C 517.660 762.349, 510.225 761.755, 505 761.588 C 499.775 761.422, 494.375 761.454, 493 761.659 M 341.179 783.007 C 338.802 783.509, 334.302 785.175, 331.179 786.710 C 328.056 788.244, 322.766 792.200, 319.425 795.500 C 315.613 799.264, 312.172 803.922, 310.189 808 C 308.405 811.671, 306.745 817.003, 306.377 820.250 C 305.789 825.429, 305.912 826.010, 307.612 826.103 C 308.651 826.159, 328.568 826.272, 351.874 826.353 L 394.248 826.500 393.702 819.985 C 393.401 816.401, 392.207 811.062, 391.048 808.121 C 389.888 805.179, 387.566 800.776, 385.887 798.336 C 384.208 795.896, 380.734 792.354, 378.167 790.464 C 375.600 788.575, 371.170 786.141, 368.323 785.056 C 365.249 783.884, 359.564 782.882, 354.323 782.588 C 349.470 782.316, 343.556 782.505, 341.179 783.007 M 490.760 832.494 C 487.603 833.294, 483.286 834.834, 481.165 835.916 C 479.045 836.997, 475.832 839.567, 474.024 841.626 C 472.216 843.685, 469.906 847.199, 468.890 849.435 C 467.648 852.170, 467.037 855.876, 467.022 860.761 C 467.006 865.988, 467.564 869.221, 469.012 872.303 C 470.119 874.657, 472.706 878.324, 474.762 880.451 C 476.818 882.577, 480.905 885.424, 483.844 886.775 C 487.636 888.519, 491.638 889.386, 497.617 889.759 C 503.899 890.151, 507.758 889.829, 512.772 888.495 C 516.473 887.511, 521.566 885.676, 524.090 884.417 C 526.615 883.158, 530.065 880.552, 531.757 878.624 C 533.768 876.334, 535.194 873.281, 535.875 869.810 C 536.449 866.890, 536.905 861.080, 536.890 856.901 C 536.869 851.208, 536.380 848.510, 534.943 846.146 C 533.887 844.410, 530.656 841.484, 527.762 839.644 C 524.868 837.804, 519.800 835.292, 516.500 834.061 C 513.198 832.829, 507.353 831.647, 503.500 831.431 C 499.346 831.198, 494.167 831.630, 490.760 832.494" stroke="none" fill="#63dcfc" fill-rule="evenodd"/><path d="M 0 460.001 L 0 920.002 460.250 919.751 L 920.500 919.500 920.751 459.750 L 921.002 0 460.501 0 L 0 0 0 460.001 M 0.496 460.500 C 0.496 713.500, 0.610 816.851, 0.750 690.168 C 0.890 563.486, 0.890 356.486, 0.750 230.168 C 0.610 103.851, 0.496 207.500, 0.496 460.500 M 301.500 15.704 C 299.850 15.927, 294.900 17.190, 290.500 18.512 C 286.100 19.833, 279.683 22.621, 276.241 24.707 C 272.799 26.793, 267.683 30.483, 264.874 32.907 C 262.064 35.330, 257.744 40.055, 255.274 43.407 C 252.804 46.758, 249.313 52.425, 247.517 56 C 245.721 59.575, 243.128 65.650, 241.755 69.500 C 240.381 73.350, 238.187 81.675, 236.879 88 C 234.708 98.493, 234.506 101.820, 234.570 126 C 234.628 148.059, 235.011 154.930, 236.852 167 C 238.069 174.975, 240.201 187.125, 241.591 194 C 242.980 200.875, 244.791 209.137, 245.615 212.361 C 246.438 215.584, 246.974 218.304, 246.806 218.405 C 246.638 218.506, 238.175 221.195, 228 224.380 C 217.825 227.565, 204.100 232.419, 197.500 235.167 C 190.900 237.915, 179.552 243.239, 172.282 246.998 C 165.012 250.757, 155.112 256.398, 150.282 259.533 C 145.452 262.668, 138.350 267.739, 134.500 270.801 C 130.650 273.863, 124.538 279.362, 120.917 283.021 C 117.296 286.680, 112.243 292.603, 109.688 296.184 C 107.133 299.764, 103.498 305.821, 101.609 309.642 C 99.720 313.464, 97.365 319.270, 96.376 322.545 C 95.089 326.805, 94.566 331.915, 94.539 340.500 C 94.507 350.368, 94.916 353.825, 96.842 359.957 C 98.130 364.058, 100.666 370.358, 102.479 373.957 C 104.291 377.556, 107.962 383.425, 110.637 386.999 C 113.312 390.574, 118.825 396.768, 122.889 400.765 C 126.953 404.762, 133.582 410.519, 137.622 413.559 C 141.661 416.599, 150.036 422.156, 156.233 425.909 C 162.430 429.661, 172.268 435.021, 178.096 437.818 C 183.924 440.615, 194.949 445.346, 202.596 448.331 C 210.243 451.316, 221.450 455.347, 227.500 457.289 C 233.550 459.230, 240.450 461.337, 242.834 461.970 C 245.586 462.702, 246.992 463.578, 246.687 464.373 C 246.423 465.061, 245.047 470.996, 243.629 477.562 C 242.211 484.128, 240.178 494.675, 239.112 501 C 238.046 507.325, 236.578 517.225, 235.850 523 C 235.078 529.113, 234.549 542.900, 234.583 556 C 234.631 574.797, 235.006 580.475, 236.860 590.500 C 238.081 597.100, 240.435 606.499, 242.092 611.387 C 243.749 616.274, 246.260 622.574, 247.672 625.387 C 249.084 628.199, 252.175 633.232, 254.542 636.570 C 256.908 639.909, 261.584 645.177, 264.933 648.277 C 268.281 651.377, 273.829 655.474, 277.260 657.381 C 280.692 659.288, 286.525 661.818, 290.221 663.002 C 293.918 664.186, 301.343 665.493, 306.721 665.907 C 312.100 666.321, 318.300 666.528, 320.500 666.366 C 322.700 666.205, 326.750 665.807, 329.500 665.481 C 332.250 665.155, 338.202 663.983, 342.726 662.876 C 347.250 661.768, 354.864 659.285, 359.647 657.357 C 364.429 655.428, 371.977 652.025, 376.421 649.795 C 380.864 647.564, 389.450 642.604, 395.500 638.773 C 401.550 634.942, 410.550 628.829, 415.500 625.188 C 420.450 621.548, 428.550 615.206, 433.500 611.096 C 438.450 606.986, 446.452 600.031, 451.283 595.641 L 460.066 587.659 463.783 591.148 C 465.827 593.067, 469.975 596.922, 473 599.715 C 476.025 602.508, 481.875 607.604, 486 611.040 C 490.125 614.476, 497.807 620.552, 503.070 624.544 C 508.334 628.535, 516.836 634.556, 521.965 637.924 C 527.094 641.291, 535.837 646.476, 541.395 649.445 C 546.953 652.414, 555.420 656.457, 560.212 658.429 C 565.003 660.401, 574.228 663.399, 580.712 665.091 C 590.913 667.753, 594.250 668.170, 605.500 668.189 C 614.451 668.204, 620.524 667.690, 625 666.539 C 628.575 665.620, 635.146 663.117, 639.603 660.977 C 645.251 658.264, 650.015 654.929, 655.324 649.971 C 659.513 646.058, 665.034 639.710, 667.591 635.863 C 670.148 632.017, 673.690 625.411, 675.461 621.185 C 677.233 616.958, 679.619 609.900, 680.765 605.500 C 681.910 601.100, 683.444 594.125, 684.173 590 C 685.038 585.111, 685.496 573.970, 685.488 558 C 685.481 543.338, 684.950 529.685, 684.164 524 C 683.442 518.775, 681.975 509.325, 680.904 503 C 679.833 496.675, 677.824 486.325, 676.440 480 C 675.055 473.675, 673.696 467.749, 673.419 466.831 C 673.081 465.708, 673.668 464.942, 675.208 464.492 C 676.469 464.124, 685.823 461.127, 695.996 457.833 C 706.169 454.538, 718.221 450.300, 722.779 448.413 C 727.337 446.526, 736.398 442.309, 742.916 439.042 C 749.434 435.775, 758.662 430.801, 763.423 427.989 C 768.184 425.177, 776.449 419.575, 781.790 415.540 C 787.130 411.505, 795.152 404.446, 799.615 399.852 C 804.078 395.258, 810.015 387.994, 812.808 383.709 C 815.601 379.423, 819.233 372.425, 820.880 368.156 C 822.526 363.887, 824.412 357.295, 825.072 353.507 C 825.763 349.539, 826.034 342.950, 825.710 337.959 C 825.362 332.579, 824.146 326.304, 822.501 321.398 C 821.045 317.054, 818.469 311.025, 816.778 308 C 815.086 304.975, 811.881 300.025, 809.654 297 C 807.428 293.975, 803.107 288.857, 800.053 285.627 C 796.999 282.396, 791.330 277.156, 787.456 273.981 C 783.582 270.806, 775.932 265.316, 770.456 261.781 C 764.980 258.246, 757.125 253.513, 753 251.263 C 748.875 249.012, 740.775 245.075, 735 242.513 C 729.225 239.950, 718.875 235.698, 712 233.062 C 705.125 230.427, 695 226.869, 689.500 225.155 C 684 223.442, 678.004 221.743, 676.177 221.380 C 673.186 220.787, 672.920 220.460, 673.522 218.110 C 673.889 216.675, 675.498 209.572, 677.097 202.327 C 678.696 195.082, 680.906 183.157, 682.009 175.827 C 683.112 168.497, 684.545 154.479, 685.192 144.676 C 686.094 131.004, 686.094 123.202, 685.191 111.176 C 684.543 102.554, 683.140 91.412, 682.073 86.416 C 681.006 81.419, 679.176 74.444, 678.007 70.916 C 676.838 67.387, 674.011 60.741, 671.725 56.146 C 669.438 51.552, 665.062 44.809, 661.999 41.162 C 658.936 37.515, 653.855 32.457, 650.707 29.921 C 647.560 27.385, 642.137 23.922, 638.657 22.225 C 635.177 20.528, 629.443 18.337, 625.915 17.356 C 621.089 16.014, 615.907 15.577, 605 15.594 C 592.504 15.613, 589.072 15.990, 580.167 18.319 C 574.485 19.805, 566.015 22.603, 561.346 24.535 C 556.678 26.468, 549.177 29.899, 544.679 32.160 C 540.181 34.421, 532.450 38.733, 527.500 41.742 C 522.550 44.751, 513.775 50.649, 508 54.850 C 502.225 59.050, 493.450 65.848, 488.500 69.956 C 483.550 74.064, 474.944 81.579, 469.376 86.656 L 459.251 95.888 450.876 88.080 C 446.269 83.785, 438.450 76.803, 433.500 72.565 C 428.550 68.327, 420.325 61.705, 415.223 57.849 C 410.121 53.994, 400.671 47.459, 394.223 43.327 C 387.775 39.195, 377.550 33.405, 371.500 30.461 C 365.450 27.517, 355.996 23.562, 350.491 21.672 C 344.987 19.782, 336.245 17.507, 331.065 16.618 C 325.886 15.728, 317.789 15.067, 313.074 15.150 C 308.358 15.232, 303.150 15.482, 301.500 15.704 M 304.324 49.442 C 300.927 50.213, 295.752 52.393, 292.824 54.286 C 289.896 56.179, 286.519 58.802, 285.320 60.114 C 284.122 61.426, 281.518 65.200, 279.535 68.500 C 277.552 71.800, 274.816 78.023, 273.456 82.328 C 272.096 86.634, 270.314 94.284, 269.496 99.328 C 268.607 104.804, 268.010 115.149, 268.013 125 C 268.015 134.075, 268.655 146.900, 269.434 153.500 C 270.212 160.100, 271.556 169.775, 272.419 175 C 273.283 180.225, 275.206 190.282, 276.695 197.348 L 279.400 210.197 282.450 209.666 C 284.128 209.374, 290.675 208.026, 297 206.670 C 303.325 205.314, 315.700 203.053, 324.500 201.644 C 333.300 200.235, 347.025 198.369, 355 197.498 C 362.975 196.626, 370.961 195.687, 372.747 195.412 C 375.511 194.985, 377.233 193.244, 384.331 183.699 C 388.916 177.533, 398.073 165.740, 404.678 157.494 C 411.284 149.247, 420.246 138.524, 424.594 133.664 C 428.942 128.804, 433.400 123.694, 434.500 122.307 L 436.500 119.786 426 109.763 C 420.225 104.251, 409.650 95.043, 402.500 89.301 C 395.350 83.560, 385.675 76.333, 381 73.241 C 376.325 70.149, 368.450 65.487, 363.500 62.880 C 358.550 60.273, 352.025 57.152, 349 55.945 C 345.975 54.738, 339.753 52.702, 335.174 51.421 C 330.595 50.140, 323.170 48.855, 318.674 48.566 C 313.417 48.228, 308.296 48.541, 304.324 49.442 M 596.477 48.928 C 593.714 49.367, 588.764 50.483, 585.477 51.408 C 582.189 52.333, 577.025 54.045, 574 55.213 C 570.975 56.381, 565.125 59.020, 561 61.079 C 556.875 63.137, 549.554 67.312, 544.730 70.355 C 539.907 73.399, 531.807 79.017, 526.730 82.840 C 521.654 86.662, 513.450 93.255, 508.500 97.491 C 503.550 101.727, 496.021 108.566, 491.768 112.690 L 484.036 120.188 492.773 129.844 C 497.578 135.155, 504.888 143.550, 509.019 148.500 C 513.149 153.450, 518.282 159.689, 520.425 162.365 C 522.569 165.041, 528.563 172.912, 533.747 179.856 C 538.930 186.801, 543.506 193.082, 543.916 193.814 C 544.411 194.699, 550.853 195.942, 563.081 197.514 C 573.211 198.816, 584.875 200.365, 589 200.957 C 593.125 201.549, 599.200 202.496, 602.500 203.061 C 605.800 203.627, 615.652 205.454, 624.394 207.121 C 636.157 209.365, 640.475 209.849, 641.010 208.984 C 641.407 208.341, 643.590 198.294, 645.861 186.657 C 648.132 175.021, 650.713 158.525, 651.596 150 C 652.684 139.498, 653.035 129.664, 652.684 119.500 C 652.399 111.250, 651.428 100.503, 650.526 95.617 C 649.624 90.732, 648.183 84.657, 647.324 82.117 C 646.465 79.578, 644.840 75.532, 643.713 73.127 C 642.586 70.721, 639.974 66.505, 637.909 63.756 C 635.843 61.007, 632.041 57.256, 629.459 55.420 C 626.876 53.584, 622.679 51.396, 620.132 50.558 C 617.584 49.720, 612.350 48.831, 608.500 48.582 C 604.650 48.333, 599.239 48.489, 596.477 48.928 M 448.630 157.531 C 442.651 164.384, 433.924 174.831, 429.235 180.746 L 420.710 191.500 440.355 191.771 C 451.160 191.920, 468.835 191.920, 479.633 191.771 L 499.266 191.500 488.740 178.500 C 482.951 171.350, 474.277 161, 469.465 155.500 C 464.652 150, 460.441 145.403, 460.107 145.285 C 459.773 145.166, 454.608 150.677, 448.630 157.531 M 434 225.232 C 433.725 225.503, 424.950 226.010, 414.500 226.357 C 404.050 226.705, 395.372 226.992, 395.216 226.995 C 395.060 226.998, 391.049 232.960, 386.303 240.245 C 381.556 247.530, 373.783 259.793, 369.029 267.495 C 364.275 275.198, 358.103 285.550, 355.312 290.500 C 352.521 295.450, 348.890 301.975, 347.242 305 C 345.594 308.025, 340.733 317.430, 336.439 325.901 L 328.631 341.302 337.963 359.854 C 343.096 370.057, 352.685 387.652, 359.271 398.953 C 365.858 410.254, 375.804 426.602, 381.373 435.283 C 386.943 443.963, 392.400 452.155, 393.500 453.487 C 395.449 455.847, 396.010 455.929, 415.500 456.705 C 426.500 457.142, 450.800 457.423, 469.500 457.329 C 488.200 457.235, 504.625 456.931, 506 456.653 C 507.375 456.376, 512.226 456.115, 516.780 456.074 L 525.060 456 534.444 441.611 C 539.606 433.697, 548.519 419.410, 554.253 409.861 C 559.986 400.312, 567.399 387.550, 570.727 381.500 C 574.054 375.450, 579.977 364.117, 583.888 356.316 C 587.800 348.515, 591 341.821, 591 341.441 C 591 341.060, 587.013 332.818, 582.140 323.124 C 577.267 313.431, 568.878 297.850, 563.497 288.500 C 558.116 279.150, 550.212 265.875, 545.932 259 C 541.652 252.125, 535.303 242.225, 531.825 237 L 525.500 227.500 517 226.860 C 512.325 226.508, 491.850 225.887, 471.500 225.479 C 451.150 225.072, 434.275 224.960, 434 225.232 M 346 233.021 C 343.525 233.459, 336.550 234.583, 330.500 235.519 C 324.450 236.455, 312.805 238.504, 304.623 240.071 C 296.440 241.638, 289.610 243.057, 289.444 243.222 C 289.279 243.388, 291.950 251.843, 295.382 262.012 C 298.813 272.180, 303.754 285.516, 306.361 291.647 L 311.100 302.793 316.928 291.647 C 320.133 285.516, 326.338 274.425, 330.717 267 C 335.097 259.575, 340.915 249.900, 343.647 245.500 C 346.379 241.100, 349.428 236.262, 350.422 234.750 C 351.417 233.238, 351.841 232.050, 351.365 232.112 C 350.889 232.173, 348.475 232.582, 346 233.021 M 570.204 233.750 C 571.036 234.713, 574.858 240.675, 578.696 247 C 582.535 253.325, 589.281 265.025, 593.689 273 C 598.097 280.975, 603.399 290.784, 605.471 294.797 C 607.544 298.810, 609.361 301.960, 609.509 301.797 C 609.657 301.634, 611.346 297.675, 613.261 293 C 615.176 288.325, 618.801 278.875, 621.316 272 C 623.830 265.125, 627.142 255.816, 628.674 251.313 C 630.206 246.811, 631.212 242.879, 630.910 242.576 C 630.607 242.274, 624.541 240.897, 617.430 239.516 C 610.318 238.136, 597.300 235.881, 588.500 234.506 C 579.700 233.130, 571.643 232.004, 570.595 232.003 C 568.871 232, 568.834 232.166, 570.204 233.750 M 253.516 251.734 C 252.424 252.011, 246.799 253.777, 241.016 255.658 C 235.232 257.540, 225.550 260.920, 219.500 263.169 C 213.450 265.419, 201.300 270.737, 192.500 274.988 C 183.700 279.238, 171.551 286.043, 165.501 290.108 C 159.313 294.267, 150.729 301.261, 145.874 306.100 C 138.984 312.967, 136.388 316.430, 132.994 323.280 C 129.624 330.081, 128.642 333.275, 128.254 338.691 C 127.856 344.259, 128.229 346.858, 130.271 352.728 C 131.649 356.690, 134.830 362.810, 137.340 366.328 C 139.850 369.846, 145.188 375.767, 149.202 379.486 C 153.216 383.206, 161.225 389.389, 167 393.228 C 172.775 397.067, 184.700 403.718, 193.500 408.008 C 202.300 412.298, 214.675 417.700, 221 420.012 C 227.325 422.324, 235.200 425.108, 238.500 426.198 C 241.800 427.289, 247.234 428.986, 250.575 429.970 L 256.650 431.759 257.805 427.441 C 258.440 425.066, 261.479 416.008, 264.559 407.312 C 267.639 398.615, 273.239 384.075, 277.003 375 C 280.767 365.925, 285.623 354.643, 287.795 349.929 C 291.346 342.222, 291.612 341.107, 290.437 338.864 C 289.718 337.492, 285.754 328.449, 281.628 318.768 C 277.502 309.087, 271.894 295.167, 269.165 287.833 C 266.436 280.500, 262.485 269.212, 260.384 262.750 C 258.284 256.288, 256.325 251.052, 256.033 251.116 C 255.740 251.180, 254.607 251.458, 253.516 251.734 M 659.657 263.255 C 657.544 269.990, 653.559 281.350, 650.803 288.500 C 648.046 295.650, 643.413 307.125, 640.506 314 C 637.599 320.875, 633.678 329.875, 631.791 334 L 628.361 341.500 632.081 349.553 C 634.127 353.982, 638.813 364.977, 642.494 373.986 C 646.175 382.995, 651.369 396.471, 654.035 403.933 C 656.702 411.395, 659.882 420.710, 661.103 424.633 L 663.321 431.767 669.411 429.986 C 672.760 429.007, 679.325 426.983, 684 425.488 C 688.675 423.994, 698.056 420.558, 704.846 417.854 C 711.637 415.149, 722.212 410.507, 728.346 407.537 C 734.481 404.567, 743.431 399.744, 748.235 396.819 C 753.039 393.893, 760.805 388.434, 765.493 384.688 C 770.180 380.941, 776.431 374.866, 779.385 371.188 C 782.338 367.509, 785.779 362.475, 787.030 360 C 788.281 357.525, 789.906 353.250, 790.641 350.500 C 791.375 347.750, 791.982 343.628, 791.988 341.339 C 791.995 339.051, 791.147 334.439, 790.105 331.091 C 789.063 327.743, 786.715 322.640, 784.886 319.752 C 783.058 316.863, 778.848 311.632, 775.531 308.126 C 772.214 304.621, 766.125 299.178, 762 296.031 C 757.875 292.885, 750.225 287.743, 745 284.605 C 739.775 281.467, 731.310 276.884, 726.189 274.419 C 721.069 271.955, 711.394 267.757, 704.689 265.091 C 697.985 262.425, 686.115 258.164, 678.312 255.622 C 670.509 253.080, 663.984 251.002, 663.812 251.005 C 663.640 251.008, 661.771 256.520, 659.657 263.255 M 448.500 275.423 C 444.650 276.169, 438.888 277.771, 435.696 278.982 C 432.504 280.193, 426.563 283.411, 422.493 286.133 C 418.424 288.855, 412.825 293.651, 410.052 296.791 C 407.280 299.931, 403.249 305.875, 401.096 310 C 398.943 314.125, 396.368 320.200, 395.373 323.500 C 394.063 327.849, 393.565 332.802, 393.565 341.500 C 393.565 350.197, 394.061 355.137, 395.368 359.448 C 396.359 362.719, 398.540 368.119, 400.214 371.448 C 401.888 374.776, 405.414 380.200, 408.050 383.500 C 410.686 386.800, 415.131 391.300, 417.928 393.500 C 420.725 395.700, 426.273 399.170, 430.257 401.210 C 434.241 403.251, 440.650 405.614, 444.500 406.462 C 448.350 407.309, 453.834 408.154, 456.686 408.339 C 459.538 408.524, 464.866 408.274, 468.525 407.784 C 472.184 407.294, 478.319 405.760, 482.156 404.376 C 485.994 402.991, 491.818 400.285, 495.099 398.363 C 498.380 396.440, 504.133 391.767, 507.885 387.978 C 511.963 383.859, 516.137 378.357, 518.266 374.295 C 520.225 370.558, 522.788 364.637, 523.962 361.137 C 525.250 357.300, 526.317 350.949, 526.650 345.137 C 527.044 338.264, 526.744 333.349, 525.604 328 C 524.725 323.875, 522.279 316.900, 520.169 312.500 C 518.058 308.100, 514.013 301.715, 511.179 298.310 C 508.346 294.906, 503.153 290.070, 499.641 287.563 C 496.128 285.056, 490.834 281.900, 487.877 280.550 C 484.920 279.199, 479.800 277.393, 476.500 276.537 C 473.200 275.680, 467.125 274.774, 463 274.523 C 458.760 274.265, 452.458 274.656, 448.500 275.423 M 606.040 387.109 C 604.220 390.624, 599.802 398.675, 596.222 405 C 592.641 411.325, 585.899 422.800, 581.238 430.500 C 576.577 438.200, 571.842 445.799, 570.717 447.386 L 568.670 450.272 574.585 449.569 C 577.838 449.182, 587.398 447.753, 595.829 446.394 C 604.260 445.035, 615.479 443.033, 620.760 441.946 C 626.042 440.860, 630.553 439.781, 630.785 439.549 C 631.017 439.317, 629.973 435.386, 628.465 430.813 C 626.957 426.241, 623.698 417.100, 621.222 410.500 C 618.746 403.900, 616.141 396.925, 615.433 395 C 614.725 393.075, 613.067 389.074, 611.748 386.109 L 609.349 380.718 606.040 387.109 M 309.174 386.108 C 308.142 388.524, 305.004 396.575, 302.201 404 C 299.397 411.425, 295.327 422.565, 293.156 428.755 C 290.985 434.946, 289.511 440.198, 289.880 440.426 C 290.249 440.654, 296.597 442.019, 303.988 443.460 C 311.379 444.901, 324.829 447.188, 333.878 448.542 C 342.927 449.896, 350.524 450.809, 350.761 450.572 C 350.999 450.335, 349.868 448.196, 348.249 445.820 C 346.629 443.444, 339.480 431.600, 332.362 419.500 C 325.244 407.400, 317.685 394.125, 315.564 390 C 313.443 385.875, 311.560 382.324, 311.379 382.108 C 311.198 381.893, 310.206 383.693, 309.174 386.108 M 275.677 491.750 C 273.644 502.063, 271.266 515, 270.392 520.500 C 269.519 526, 268.568 539.813, 268.279 551.195 C 267.937 564.675, 268.169 574.785, 268.944 580.195 C 269.599 584.763, 271.041 592.100, 272.149 596.500 C 273.256 600.900, 275.807 607.650, 277.816 611.500 C 279.825 615.350, 283.551 620.597, 286.096 623.159 C 288.641 625.721, 292.635 628.793, 294.972 629.986 C 297.310 631.178, 302.299 632.795, 306.060 633.580 C 309.821 634.364, 314.383 634.807, 316.199 634.565 C 318.014 634.323, 322.182 633.828, 325.460 633.464 C 328.739 633.101, 335.430 631.493, 340.331 629.892 C 345.231 628.291, 353.753 624.700, 359.268 621.913 C 364.783 619.126, 373.617 614.032, 378.898 610.593 C 384.179 607.154, 393 600.830, 398.500 596.540 C 404 592.250, 412.100 585.547, 416.500 581.644 C 420.900 577.740, 427.287 571.894, 430.693 568.652 L 436.886 562.758 426.506 551.390 C 420.796 545.137, 410.801 533.379, 404.294 525.261 C 397.787 517.142, 388.650 505.265, 383.990 498.866 L 375.515 487.232 368.008 486.562 C 363.878 486.194, 351.054 484.544, 339.508 482.896 C 327.963 481.247, 310.320 478.347, 300.303 476.449 C 290.285 474.552, 281.478 473, 280.731 473 C 279.767 473, 278.301 478.436, 275.677 491.750 M 630.500 474.617 C 627.200 475.364, 618.425 477.122, 611 478.524 C 603.575 479.926, 594.350 481.523, 590.500 482.072 C 586.650 482.622, 578.550 483.710, 572.500 484.490 C 566.450 485.270, 557.647 486.209, 552.938 486.577 L 544.376 487.245 535.457 499.339 C 530.552 505.990, 521.314 517.973, 514.928 525.966 C 508.543 533.960, 498.971 545.313, 493.659 551.196 C 488.347 557.079, 484 562.295, 484 562.788 C 484 563.280, 486.828 566.342, 490.284 569.591 C 493.740 572.841, 499.027 577.772, 502.034 580.548 C 505.040 583.325, 511.105 588.514, 515.512 592.080 C 519.919 595.646, 527.551 601.425, 532.472 604.923 C 537.393 608.421, 544.813 613.291, 548.960 615.747 C 553.107 618.202, 558.975 621.462, 562 622.991 C 565.025 624.520, 571.550 627.201, 576.500 628.948 C 581.450 630.695, 589.877 632.779, 595.228 633.580 C 600.578 634.381, 606.203 634.839, 607.728 634.598 C 609.252 634.357, 612.525 633.845, 615 633.460 C 617.475 633.075, 621.300 631.854, 623.500 630.747 C 625.700 629.640, 629.258 627.350, 631.406 625.659 C 633.554 623.968, 637.011 619.957, 639.087 616.744 C 641.163 613.532, 643.994 607.888, 645.378 604.202 C 646.762 600.516, 648.637 594.125, 649.544 590 C 650.612 585.139, 651.375 575.579, 651.712 562.832 C 652.030 550.740, 651.778 539.185, 651.057 532.832 C 650.411 527.150, 648.780 515.750, 647.431 507.500 C 646.083 499.250, 644.292 489.350, 643.452 485.500 C 642.612 481.650, 641.660 477.262, 641.337 475.750 C 640.907 473.735, 640.182 473.035, 638.625 473.130 C 637.456 473.202, 633.800 473.871, 630.500 474.617 M 420.609 491.177 C 420.840 491.549, 425.184 496.998, 430.264 503.285 C 435.344 509.572, 444 519.930, 449.500 526.303 C 455 532.676, 459.725 537.887, 460 537.884 C 460.275 537.880, 465.087 532.603, 470.694 526.157 C 476.300 519.711, 484.960 509.350, 489.937 503.134 C 494.914 496.917, 499.172 491.531, 499.398 491.165 C 499.624 490.799, 481.895 490.500, 460 490.500 C 438.105 490.500, 420.379 490.805, 420.609 491.177 M 115 805.473 L 115 899.068 125.750 898.784 L 136.500 898.500 136.763 863.174 L 137.026 827.847 156.624 828.174 L 176.223 828.500 178.861 831.693 C 180.313 833.448, 191.151 849.873, 202.947 868.193 C 214.743 886.512, 225.093 902.048, 225.947 902.718 C 226.998 903.542, 232.109 903.947, 241.750 903.968 C 249.588 903.986, 256 903.801, 256 903.558 C 256 903.315, 249.470 893.172, 241.490 881.018 C 233.509 868.865, 222.077 851.549, 216.086 842.540 L 205.192 826.158 212.600 824.510 C 216.674 823.604, 223.141 821.294, 226.971 819.378 C 231.945 816.890, 235.515 814.124, 239.466 809.697 C 242.509 806.289, 246.522 800.575, 248.385 797 C 250.247 793.425, 252.552 787.350, 253.506 783.500 C 254.788 778.332, 255.098 774.235, 254.692 767.847 C 254.390 763.088, 253.167 755.888, 251.974 751.847 C 250.781 747.806, 248.386 741.806, 246.653 738.513 C 244.919 735.220, 241.003 730.023, 237.952 726.965 C 234.642 723.648, 229.801 720.154, 225.952 718.306 C 222.403 716.602, 217.700 714.627, 215.500 713.917 C 212.532 712.959, 199.051 712.530, 163.250 712.252 L 115 711.878 115 805.473 M 748 745.466 L 748 764.932 737.289 765.216 L 726.578 765.500 725.960 768.534 C 725.619 770.202, 725.543 774.365, 725.791 777.784 L 726.240 784 737.578 784 L 748.916 784 749.208 835.750 L 749.500 887.500 751.863 892.256 C 753.163 894.872, 755.638 898.206, 757.363 899.664 C 759.088 901.123, 762.401 903.161, 764.724 904.193 C 767.047 905.226, 771.862 906.342, 775.424 906.675 C 779.140 907.022, 784.585 906.757, 788.200 906.052 C 791.665 905.377, 796.628 903.672, 799.230 902.264 C 801.831 900.856, 804.233 898.842, 804.567 897.789 C 804.926 896.658, 803.837 892.828, 801.907 888.437 C 800.109 884.347, 798.325 881, 797.942 881 C 797.558 881, 796.686 881.674, 796.003 882.497 C 795.319 883.320, 792.609 884.633, 789.979 885.414 C 786.949 886.313, 783.967 886.556, 781.841 886.077 C 779.995 885.661, 777.484 884.694, 776.259 883.930 C 775.035 883.165, 773.350 880.834, 772.516 878.749 C 771.239 875.557, 771 867.796, 771 829.508 L 771 784.056 784.750 783.778 L 798.500 783.500 798.784 772.750 L 799.068 762 784.534 762 L 770 762 770 744 L 770 726 759 726 L 748 726 748 745.466 M 147.750 734.784 L 137 735.068 137 770.394 L 137 805.720 167.750 805.577 C 197.325 805.440, 198.721 805.346, 204.282 803.133 C 207.463 801.868, 211.963 799.392, 214.282 797.633 C 216.602 795.873, 219.956 792.269, 221.736 789.624 C 223.516 786.979, 225.535 782.944, 226.223 780.657 C 226.911 778.371, 227.430 773.350, 227.377 769.500 C 227.314 764.910, 226.533 760.555, 225.107 756.853 C 223.912 753.747, 221.125 749.151, 218.914 746.640 C 216.530 743.931, 212.373 740.834, 208.697 739.028 C 203.363 736.406, 201.038 735.907, 192 735.440 C 186.225 735.142, 176.325 734.808, 170 734.699 C 163.675 734.590, 153.662 734.628, 147.750 734.784 M 653.500 760.557 C 652.400 760.811, 649.025 761.504, 646 762.095 C 642.975 762.687, 636.744 764.966, 632.154 767.161 C 625.829 770.184, 622.053 772.889, 616.565 778.325 C 612.582 782.271, 607.740 788.227, 605.805 791.559 C 603.870 794.892, 601.300 800.256, 600.094 803.479 C 598.888 806.702, 597.248 812.442, 596.451 816.235 C 595.653 820.028, 595 827.112, 595 831.977 C 595 836.843, 595.634 844.126, 596.409 848.162 C 597.184 852.198, 599.001 858.650, 600.447 862.500 C 601.893 866.350, 604.710 871.969, 606.706 874.987 C 608.702 878.005, 612.622 882.912, 615.418 885.891 C 618.213 888.870, 623.425 893.199, 627 895.511 C 630.575 897.824, 635.975 900.625, 639 901.737 C 642.025 902.849, 647.870 904.322, 651.990 905.010 C 656.671 905.792, 662.896 906.021, 668.591 905.621 C 673.602 905.269, 680.132 904.281, 683.101 903.427 C 686.071 902.573, 690.522 900.948, 692.994 899.817 C 695.466 898.686, 699.307 896.509, 701.529 894.980 C 703.752 893.450, 707.918 889.828, 710.786 886.930 C 713.653 884.031, 715.966 881.399, 715.925 881.080 C 715.883 880.761, 712.487 877.639, 708.378 874.142 L 700.907 867.785 694.984 873.433 C 691.727 876.540, 686.548 880.233, 683.474 881.641 C 680.400 883.048, 674.986 884.696, 671.443 885.303 C 666.695 886.116, 663.251 886.107, 658.352 885.267 C 654.695 884.641, 648.810 882.704, 645.273 880.963 C 641.594 879.151, 636.599 875.517, 633.597 872.467 C 630.712 869.536, 626.961 864.519, 625.260 861.319 C 623.560 858.118, 621.455 852.735, 620.584 849.356 C 619.699 845.923, 619.015 839.304, 619.035 834.356 C 619.054 829.485, 619.700 821.964, 620.470 817.642 C 621.240 813.321, 623.031 807.413, 624.450 804.514 C 625.868 801.615, 629.276 796.959, 632.024 794.168 C 634.879 791.267, 639.692 787.824, 643.260 786.130 C 646.692 784.501, 652.170 782.680, 655.434 782.084 C 658.697 781.488, 663.495 781, 666.095 781 C 668.695 781, 673.449 781.820, 676.661 782.823 C 679.872 783.825, 684.336 785.808, 686.580 787.228 C 688.825 788.649, 692.467 791.653, 694.674 793.905 C 696.882 796.157, 699.282 798, 700.009 798 C 700.736 798, 704.293 795.188, 707.915 791.750 C 711.537 788.313, 714.634 785.211, 714.797 784.858 C 714.961 784.505, 712.594 781.516, 709.539 778.215 C 705.712 774.082, 701.573 770.962, 696.241 768.193 C 691.984 765.982, 685.624 763.430, 682.108 762.522 C 678.593 761.615, 671.168 760.697, 665.608 760.483 C 660.049 760.269, 654.600 760.302, 653.500 760.557 M 338 762.516 C 334.425 763.247, 329.668 764.506, 327.429 765.315 C 325.190 766.123, 320.938 768.011, 317.980 769.510 C 315.023 771.009, 310.177 774.067, 307.212 776.306 C 304.246 778.545, 299.434 783.425, 296.518 787.152 C 293.603 790.878, 289.856 797.206, 288.193 801.214 C 286.529 805.221, 284.410 812.100, 283.483 816.500 C 282.541 820.972, 281.782 829.130, 281.762 835 C 281.743 840.775, 282.276 848.425, 282.948 852 C 283.619 855.575, 285.509 861.898, 287.147 866.051 C 288.785 870.203, 292.399 876.638, 295.178 880.349 C 297.958 884.060, 302.982 889.322, 306.343 892.041 C 309.704 894.761, 315.614 898.546, 319.477 900.452 C 323.340 902.359, 329.650 904.690, 333.500 905.632 C 338.256 906.797, 344.506 907.337, 353 907.319 C 360.571 907.303, 368.322 906.672, 372.657 905.719 C 376.594 904.854, 383.291 902.540, 387.541 900.577 C 391.790 898.613, 397.663 895.093, 400.591 892.753 C 403.519 890.414, 406.189 887.716, 406.522 886.758 C 406.925 885.604, 405.529 882.904, 402.388 878.758 C 399.780 875.316, 397.532 872.343, 397.391 872.151 C 397.251 871.959, 394.223 873.880, 390.664 876.420 C 387.105 878.960, 381.337 882.325, 377.846 883.898 C 374.356 885.471, 369.115 887.262, 366.201 887.879 C 363.286 888.495, 357.886 888.995, 354.201 888.988 C 350.515 888.982, 345.045 888.323, 342.045 887.525 C 339.045 886.726, 333.793 884.696, 330.374 883.012 C 326.438 881.075, 322.303 877.923, 319.105 874.424 C 316.326 871.384, 312.727 866.107, 311.107 862.698 C 309.487 859.289, 307.451 853.735, 306.581 850.356 C 305.711 846.976, 305 843.714, 305 843.106 C 305 842.311, 320.631 842, 360.500 842 L 416 842 416.211 835.250 C 416.327 831.538, 416.294 826.057, 416.138 823.071 C 415.982 820.085, 414.717 814.010, 413.326 809.571 C 411.935 805.132, 409.181 798.350, 407.205 794.500 C 404.727 789.671, 401.115 785.015, 395.557 779.489 C 389.963 773.926, 385.465 770.482, 380.842 768.221 C 377.180 766.430, 370.696 764.073, 366.432 762.983 C 361.944 761.835, 355.695 761.040, 351.590 761.094 C 347.691 761.146, 341.575 761.786, 338 762.516 M 493 761.659 C 491.625 761.864, 487.350 762.754, 483.500 763.636 C 479.650 764.519, 473.575 766.726, 470 768.540 C 466.425 770.354, 462.103 772.887, 460.396 774.169 C 458.689 775.451, 455.418 778.194, 453.126 780.265 L 448.960 784.031 454.130 791.765 C 456.974 796.019, 459.447 799.677, 459.626 799.892 C 459.805 800.108, 462.350 798.235, 465.282 795.731 C 468.213 793.226, 472.946 789.801, 475.799 788.118 C 478.652 786.436, 483.577 784.283, 486.743 783.334 C 490.489 782.211, 495.819 781.618, 502 781.636 C 507.803 781.653, 513.665 782.303, 517.064 783.306 C 520.124 784.209, 524.452 786.269, 526.681 787.884 C 528.918 789.504, 531.672 792.766, 532.827 795.160 C 533.977 797.547, 535.406 802.662, 536.002 806.526 C 536.597 810.390, 536.953 817.515, 536.792 822.360 L 536.500 831.170 531.738 827.530 C 529.119 825.528, 523.719 822.347, 519.738 820.460 C 515.757 818.574, 510.076 816.574, 507.114 816.015 C 504.151 815.457, 498.301 815.008, 494.114 815.017 C 489.926 815.027, 483.358 815.700, 479.517 816.514 C 475.677 817.327, 470.052 819.203, 467.017 820.682 C 463.983 822.162, 459.021 825.876, 455.991 828.936 C 452.961 831.996, 449.254 837.048, 447.753 840.163 C 446.252 843.278, 444.477 849.015, 443.808 852.913 C 442.864 858.417, 442.857 861.813, 443.775 868.115 C 444.426 872.577, 446.068 878.654, 447.425 881.617 C 448.782 884.581, 452.178 889.423, 454.973 892.378 C 457.767 895.332, 462.629 899.113, 465.777 900.780 C 468.925 902.446, 473.847 904.498, 476.716 905.341 C 479.586 906.183, 485.005 907.175, 488.761 907.545 C 492.557 907.919, 498.677 907.730, 502.544 907.119 C 506.370 906.514, 511.097 905.569, 513.048 905.018 C 515 904.468, 521.525 900.862, 527.548 897.006 L 538.500 889.995 539 894.747 L 539.500 899.500 548.798 899.368 C 553.913 899.296, 558.287 899.046, 558.519 898.814 C 558.751 898.582, 559.220 880.191, 559.560 857.946 C 559.908 835.195, 559.761 811.499, 559.224 803.784 C 558.409 792.082, 557.871 789.258, 555.565 784.544 C 554.078 781.505, 550.981 777.169, 548.681 774.909 C 546.381 772.649, 542.744 769.901, 540.597 768.802 C 538.451 767.703, 534.861 766.157, 532.620 765.366 C 530.379 764.575, 525.385 763.470, 521.523 762.909 C 517.660 762.349, 510.225 761.755, 505 761.588 C 499.775 761.422, 494.375 761.454, 493 761.659 M 341.179 783.007 C 338.802 783.509, 334.302 785.175, 331.179 786.710 C 328.056 788.244, 322.766 792.200, 319.425 795.500 C 315.613 799.264, 312.172 803.922, 310.189 808 C 308.405 811.671, 306.745 817.003, 306.377 820.250 C 305.789 825.429, 305.912 826.010, 307.612 826.103 C 308.651 826.159, 328.568 826.272, 351.874 826.353 L 394.248 826.500 393.702 819.985 C 393.401 816.401, 392.207 811.062, 391.048 808.121 C 389.888 805.179, 387.566 800.776, 385.887 798.336 C 384.208 795.896, 380.734 792.354, 378.167 790.464 C 375.600 788.575, 371.170 786.141, 368.323 785.056 C 365.249 783.884, 359.564 782.882, 354.323 782.588 C 349.470 782.316, 343.556 782.505, 341.179 783.007 M 490.760 832.494 C 487.603 833.294, 483.286 834.834, 481.165 835.916 C 479.045 836.997, 475.832 839.567, 474.024 841.626 C 472.216 843.685, 469.906 847.199, 468.890 849.435 C 467.648 852.170, 467.037 855.876, 467.022 860.761 C 467.006 865.988, 467.564 869.221, 469.012 872.303 C 470.119 874.657, 472.706 878.324, 474.762 880.451 C 476.818 882.577, 480.905 885.424, 483.844 886.775 C 487.636 888.519, 491.638 889.386, 497.617 889.759 C 503.899 890.151, 507.758 889.829, 512.772 888.495 C 516.473 887.511, 521.566 885.676, 524.090 884.417 C 526.615 883.158, 530.065 880.552, 531.757 878.624 C 533.768 876.334, 535.194 873.281, 535.875 869.810 C 536.449 866.890, 536.905 861.080, 536.890 856.901 C 536.869 851.208, 536.380 848.510, 534.943 846.146 C 533.887 844.410, 530.656 841.484, 527.762 839.644 C 524.868 837.804, 519.800 835.292, 516.500 834.061 C 513.198 832.829, 507.353 831.647, 503.500 831.431 C 499.346 831.198, 494.167 831.630, 490.760 832.494" stroke="none" fill="#f0f0f0" fill-opacity='0' fill-rule="evenodd"/></svg>