<svg xmlns="http://www.w3.org/2000/svg" width="348" height="348" viewBox="0 0 348 348" version="1.1"><path d="M 183 258.500 C 183 263.725, 182.826 268, 182.614 268 C 182.402 268, 180.940 267.328, 179.364 266.506 C 177.789 265.685, 175.358 265.010, 173.962 265.006 C 172.566 265.003, 169.418 266.012, 166.966 267.250 C 164.049 268.723, 161.760 270.850, 160.344 273.408 C 159.154 275.557, 157.885 279.281, 157.525 281.685 C 157.164 284.088, 157.403 288.624, 158.055 291.765 C 158.976 296.204, 160.106 298.341, 163.126 301.361 C 166.873 305.108, 167.208 305.230, 172.513 304.790 C 176.422 304.466, 178.716 303.676, 180.434 302.062 C 181.764 300.813, 183.335 300.089, 183.926 300.454 C 184.517 300.819, 185 301.766, 185 302.559 C 185 303.352, 185.338 304.048, 185.750 304.107 C 186.162 304.166, 188.188 304.309, 190.250 304.426 L 194 304.637 194 276.818 L 194 249 188.500 249 L 183 249 183 258.500 M 75 277.277 L 75 304.554 81 304.621 L 87 304.689 87 294.281 L 87 283.873 90.250 284.187 C 93.150 284.466, 94.003 285.362, 98.171 292.500 C 100.739 296.900, 103.450 301.336, 104.195 302.358 C 105.236 303.787, 107.104 304.286, 112.275 304.517 C 115.974 304.681, 119 304.569, 119 304.267 C 119 303.964, 116.461 299.618, 113.359 294.608 C 110.256 289.599, 106.769 284.647, 105.609 283.605 C 104.231 282.367, 103.916 281.564, 104.700 281.288 C 105.360 281.057, 107.056 279.957, 108.470 278.845 C 109.883 277.733, 111.736 275.477, 112.587 273.831 C 113.439 272.185, 114.197 268.941, 114.272 266.621 C 114.348 264.302, 113.858 261.076, 113.184 259.452 C 112.510 257.828, 110.506 255.512, 108.729 254.303 C 106.953 253.095, 103.475 251.644, 101 251.078 C 98.525 250.512, 91.662 250.038, 85.750 250.024 L 75 250 75 277.277 M 87 267.500 L 87 276 91.865 276 C 95.203 276, 97.522 275.377, 99.253 274.016 C 100.640 272.925, 102.077 270.830, 102.445 269.362 C 102.814 267.894, 102.609 265.470, 101.990 263.976 C 101.371 262.482, 99.749 260.751, 98.385 260.130 C 97.022 259.508, 93.902 259, 91.453 259 L 87 259 87 267.500 M 132.500 265.959 C 130.850 266.348, 128.073 267.409, 126.329 268.318 C 124.585 269.226, 122.269 271.218, 121.182 272.744 C 120.096 274.270, 118.710 277.364, 118.103 279.619 C 117.331 282.483, 117.302 285.318, 118.004 289.022 C 118.557 291.938, 120.193 295.875, 121.639 297.771 C 123.085 299.667, 126.120 302.059, 128.384 303.087 C 130.648 304.115, 134.525 304.963, 137 304.972 C 139.475 304.981, 143.187 304.520, 145.248 303.948 C 147.310 303.375, 150.154 301.911, 151.569 300.694 L 154.141 298.482 151.600 296.094 C 149.100 293.745, 148.988 293.733, 144.746 295.353 C 142.374 296.259, 139.176 297, 137.640 297 C 135.885 297, 133.759 295.913, 131.923 294.077 C 130.315 292.469, 129 290.219, 129 289.077 C 129 287.085, 129.512 287, 141.500 287 L 154 287 154 282.712 C 154 280.237, 153.049 276.562, 151.750 274.020 C 150.301 271.183, 148.255 268.998, 146 267.878 C 144.075 266.922, 140.925 265.941, 139 265.697 C 137.075 265.453, 134.150 265.571, 132.500 265.959 M 201.175 280.750 C 201.458 292.406, 201.900 296.178, 203.283 298.733 C 204.246 300.511, 206.354 302.649, 207.967 303.483 C 209.581 304.317, 212.611 304.998, 214.700 304.996 C 216.790 304.994, 219.973 304.094, 221.774 302.996 C 223.575 301.898, 225.487 301, 226.024 301 C 226.561 301, 227 301.627, 227 302.393 C 227 303.159, 227.563 303.972, 228.250 304.200 C 228.938 304.428, 231.053 304.589, 232.950 304.557 L 236.401 304.500 236.450 285.250 L 236.500 266 230.750 266 L 225 266 225 280.379 L 225 294.757 222.095 295.961 C 220.497 296.622, 218.146 297.015, 216.870 296.832 C 215.594 296.649, 213.970 295.375, 213.261 294 C 212.360 292.253, 212.051 287.659, 212.236 278.748 L 212.500 265.996 206.658 265.998 L 200.817 266 201.175 280.750 M 246.412 275.262 L 252.825 284.524 246.412 294.289 C 242.886 299.661, 240 304.170, 240 304.311 C 240 304.451, 242.363 304.499, 245.250 304.416 C 248.137 304.334, 250.799 304.206, 251.164 304.133 C 251.529 304.060, 253.464 301.075, 255.463 297.500 C 257.462 293.925, 259.526 291, 260.049 291 C 260.572 291, 261.024 291.563, 261.054 292.250 C 261.084 292.938, 262.773 295.957, 264.808 298.959 L 268.507 304.419 274.653 304.544 L 280.798 304.669 275.256 296.085 C 272.208 291.363, 269.235 286.737, 268.651 285.805 C 267.792 284.436, 268.791 282.371, 273.853 275.055 L 280.117 266 274.272 266 L 268.426 266 264.620 272.617 L 260.815 279.234 256.852 272.617 L 252.889 266 246.444 266 L 239.999 266 246.412 275.262 M 131.073 275.635 C 129.933 277.084, 129 278.884, 129 279.635 C 129 280.667, 130.829 281, 136.500 281 C 143.333 281, 144 280.822, 144 279 C 144 277.900, 143.100 276.100, 142 275 C 140.778 273.778, 138.667 273, 136.573 273 C 134.061 273, 132.591 273.704, 131.073 275.635 M 171.923 275.923 C 169.297 278.549, 169 279.501, 169 285.288 C 169 290.291, 169.463 292.319, 171.073 294.365 C 172.212 295.814, 174.035 297, 175.122 297 C 176.210 297, 178.427 296.313, 180.050 295.474 C 182.996 293.951, 183 293.937, 183 284.635 C 183 275.625, 182.917 275.283, 180.453 274.161 C 179.052 273.522, 177.217 273, 176.376 273 C 175.535 273, 173.531 274.315, 171.923 275.923" stroke="none" fill="#2e2e2e" fill-rule="evenodd"/><path d="M 160.164 40.550 C 156.129 41.925, 150.279 44.679, 147.164 46.671 C 144.049 48.663, 138.878 53.015, 135.673 56.340 C 131.458 60.715, 128.505 65.168, 124.997 72.444 C 122.330 77.975, 119.125 86.550, 117.876 91.500 C 116.080 98.614, 115.599 103.329, 115.581 114 C 115.567 121.425, 116.130 130.200, 116.830 133.500 C 117.530 136.800, 119.254 143.100, 120.660 147.500 C 122.066 151.900, 125.185 159.482, 127.590 164.349 C 130.966 171.180, 131.740 173.617, 130.982 175.034 C 130.442 176.043, 130.002 178.586, 130.004 180.684 C 130.006 182.783, 130.902 185.967, 131.995 187.759 C 133.088 189.552, 135.448 191.939, 137.241 193.065 C 139.711 194.616, 141.727 195.021, 145.570 194.738 C 148.513 194.522, 151.728 193.555, 153.235 192.433 C 154.663 191.370, 156.560 189.278, 157.451 187.785 C 158.342 186.292, 159.111 183.114, 159.159 180.723 C 159.207 178.333, 158.494 174.922, 157.574 173.144 C 156.655 171.366, 154.462 169.033, 152.701 167.960 C 150.941 166.886, 147.819 166.006, 145.764 166.004 C 142.201 166, 141.888 165.722, 138.986 159.973 C 137.313 156.657, 134.633 150.020, 133.032 145.223 C 131.431 140.425, 129.584 132.450, 128.928 127.500 C 128.229 122.223, 127.991 114.364, 128.353 108.500 C 128.692 103, 129.907 95.132, 131.053 91.016 C 132.199 86.900, 134.753 80.456, 136.730 76.695 C 138.706 72.934, 142.327 67.628, 144.777 64.903 C 147.227 62.178, 151.128 58.837, 153.446 57.479 C 155.763 56.121, 160.324 54.057, 163.580 52.892 C 167.531 51.479, 172.046 50.751, 177.155 50.703 C 183.841 50.641, 185.639 51.040, 191.365 53.859 C 195.708 55.997, 199.458 58.843, 202.477 62.293 C 204.983 65.157, 208.828 71.120, 211.021 75.545 C 213.214 79.970, 215.757 87.041, 216.672 91.258 L 218.336 98.927 224.418 100.755 C 230.330 102.532, 230.509 102.531, 230.828 100.728 C 231.008 99.709, 230.412 95.190, 229.503 90.687 C 228.594 86.184, 226.688 79.575, 225.268 76 C 223.848 72.425, 220.934 66.714, 218.791 63.310 C 216.649 59.905, 212.181 54.605, 208.862 51.533 C 205.544 48.461, 200.730 44.884, 198.164 43.585 C 195.599 42.286, 191.056 40.498, 188.068 39.612 C 185.081 38.725, 179.231 38.012, 175.068 38.026 C 169.674 38.044, 165.393 38.769, 160.164 40.550 M 157.500 100.412 C 155.850 101.145, 153.550 102.815, 152.389 104.123 C 151.227 105.430, 149.765 108.028, 149.139 109.897 C 148.333 112.305, 148.300 114.401, 149.027 117.101 C 149.591 119.195, 151.199 122.271, 152.599 123.936 C 154.097 125.716, 156.850 127.421, 159.283 128.076 C 162.391 128.913, 164.416 128.892, 167.420 127.992 C 169.630 127.330, 172.856 125.225, 174.631 123.288 C 177.815 119.811, 177.911 119.782, 185.874 119.898 C 190.291 119.963, 197.189 120.646, 201.203 121.417 C 205.216 122.188, 211.425 123.812, 215 125.026 C 218.575 126.241, 225.026 129.089, 229.336 131.356 C 233.646 133.622, 240.621 138.256, 244.836 141.652 C 249.051 145.048, 254.400 150.291, 256.722 153.302 C 259.044 156.313, 262.475 161.865, 264.346 165.639 C 266.218 169.412, 268.315 174.923, 269.007 177.885 C 269.753 181.082, 270.023 185.848, 269.671 189.617 C 269.307 193.522, 268.005 198.161, 266.289 201.670 C 264.755 204.807, 261.435 209.496, 258.911 212.089 C 256.386 214.682, 252.017 217.971, 249.201 219.398 C 246.385 220.825, 240.913 222.536, 237.041 223.200 C 231.684 224.118, 228.146 224.137, 222.250 223.277 C 217.987 222.656, 212.025 221.321, 209 220.310 L 203.500 218.474 197.824 222.951 C 194.701 225.414, 192.344 227.747, 192.584 228.136 C 192.824 228.525, 196.504 229.980, 200.760 231.371 C 205.017 232.761, 211.170 234.371, 214.434 234.949 C 217.697 235.527, 222.720 236, 225.596 236 C 228.471 236, 234.351 235.337, 238.662 234.526 C 243.517 233.613, 249.603 231.491, 254.652 228.950 C 259.862 226.328, 264.854 222.814, 268.483 219.214 C 271.606 216.115, 275.215 211.762, 276.502 209.540 C 277.789 207.318, 279.608 202.832, 280.544 199.571 C 281.841 195.053, 282.128 191.244, 281.751 183.571 C 281.390 176.231, 280.577 171.672, 278.755 166.758 C 277.380 163.051, 274.735 157.475, 272.877 154.369 C 271.020 151.263, 266.215 145.210, 262.201 140.919 C 258.186 136.628, 251.843 130.849, 248.103 128.077 C 244.364 125.305, 237.749 121.264, 233.402 119.098 C 229.056 116.932, 222.800 114.261, 219.500 113.163 C 216.200 112.065, 209.900 110.422, 205.500 109.511 C 201.100 108.601, 192.670 107.597, 186.767 107.279 C 177.151 106.762, 175.885 106.473, 174.592 104.501 C 173.799 103.290, 171.586 101.557, 169.674 100.649 C 167.762 99.742, 164.916 99.018, 163.349 99.039 C 161.782 99.061, 159.150 99.678, 157.500 100.412 M 95.148 138.481 C 90.683 142.747, 85.224 149.096, 83.017 152.590 C 80.810 156.084, 77.875 162.309, 76.494 166.424 C 75.113 170.538, 73.718 177.189, 73.395 181.202 C 72.999 186.128, 73.324 190.938, 74.397 196 C 75.270 200.125, 77.349 206.277, 79.017 209.672 C 80.963 213.633, 84.099 217.721, 87.774 221.085 C 90.923 223.968, 96.200 227.588, 99.500 229.130 C 102.800 230.671, 108.425 232.687, 112 233.610 C 116.097 234.667, 122.197 235.264, 128.500 235.224 C 135.738 235.179, 141.144 234.477, 148.074 232.683 C 153.339 231.320, 161.190 228.730, 165.520 226.927 C 169.849 225.125, 177.251 221.069, 181.968 217.914 C 186.684 214.759, 193.510 209.284, 197.135 205.746 C 200.761 202.209, 206.078 195.981, 208.952 191.907 C 211.825 187.833, 215.034 182.834, 216.084 180.799 C 217.427 178.191, 219.314 176.513, 222.469 175.117 C 225.141 173.935, 227.786 171.798, 229.028 169.818 C 230.670 167.201, 231.032 165.285, 230.741 160.749 C 230.440 156.052, 229.842 154.444, 227.478 151.977 C 225.886 150.315, 222.920 148.457, 220.888 147.848 C 218.856 147.239, 215.620 147.036, 213.698 147.397 C 211.776 147.758, 209.023 148.980, 207.581 150.115 C 206.140 151.249, 204.294 153.465, 203.480 155.039 C 202.666 156.613, 202 159.617, 202 161.715 C 202 163.813, 202.876 167.164, 203.947 169.162 L 205.894 172.794 202.404 178.590 C 200.485 181.777, 196.804 186.855, 194.225 189.873 C 191.646 192.892, 186.019 198.143, 181.721 201.542 C 177.422 204.941, 169.539 209.992, 164.203 212.768 C 158.866 215.543, 151.411 218.757, 147.635 219.910 C 143.859 221.063, 137.077 222.290, 132.564 222.637 C 127.667 223.013, 121.585 222.785, 117.483 222.070 C 113.702 221.412, 108.277 219.770, 105.428 218.422 C 102.578 217.075, 98.135 213.714, 95.554 210.954 C 92.972 208.194, 89.654 203.363, 88.180 200.218 C 85.833 195.211, 85.500 193.257, 85.500 184.500 C 85.500 175.269, 85.753 173.966, 88.788 167.557 C 90.596 163.738, 93.740 158.563, 95.775 156.057 C 97.809 153.551, 101.231 149.891, 103.378 147.924 L 107.283 144.347 106.013 138.924 C 105.314 135.941, 104.410 132.876, 104.004 132.112 C 103.461 131.091, 101.123 132.773, 95.148 138.481 M 188.480 248.717 L 193.969 249.099 194.258 276.799 L 194.547 304.500 194.523 276.500 L 194.500 248.500 188.745 248.418 L 182.990 248.336 188.480 248.717 M 74.397 264 C 74.397 271.975, 74.553 275.238, 74.743 271.250 C 74.932 267.262, 74.932 260.738, 74.743 256.750 C 74.553 252.762, 74.397 256.025, 74.397 264 M 102.158 267 C 102.158 268.375, 102.385 268.938, 102.662 268.250 C 102.940 267.563, 102.940 266.438, 102.662 265.750 C 102.385 265.063, 102.158 265.625, 102.158 267 M 212.389 279.500 C 212.390 286.650, 212.550 289.444, 212.742 285.708 C 212.935 281.973, 212.934 276.123, 212.739 272.708 C 212.545 269.294, 212.387 272.350, 212.389 279.500 M 175.750 273.662 C 176.438 273.940, 177.563 273.940, 178.250 273.662 C 178.938 273.385, 178.375 273.158, 177 273.158 C 175.625 273.158, 175.063 273.385, 175.750 273.662 M 74.382 290.500 C 74.384 297.100, 74.546 299.670, 74.741 296.211 C 74.937 292.752, 74.936 287.352, 74.738 284.211 C 74.540 281.070, 74.380 283.900, 74.382 290.500 M 117.158 288 C 117.158 289.375, 117.385 289.938, 117.662 289.250 C 117.940 288.563, 117.940 287.438, 117.662 286.750 C 117.385 286.063, 117.158 286.625, 117.158 288 M 214.226 295.579 C 215.176 296.570, 216.168 297.166, 216.431 296.903 C 216.694 296.640, 215.917 295.829, 214.705 295.100 C 212.598 293.835, 212.577 293.857, 214.226 295.579 M 161.500 301 C 162.495 302.100, 163.535 303, 163.810 303 C 164.085 303, 163.495 302.100, 162.500 301 C 161.505 299.900, 160.465 299, 160.190 299 C 159.915 299, 160.505 299.900, 161.500 301" stroke="none" fill="#5c3d8a" fill-rule="evenodd"/><path d="M 0 174.003 L 0 348.006 174.250 347.753 L 348.500 347.500 348.753 173.750 L 349.006 0 174.503 0 L 0 0 0 174.003 M 0.489 174.500 C 0.489 270.200, 0.606 309.202, 0.750 261.171 C 0.894 213.140, 0.894 134.840, 0.750 87.171 C 0.606 39.502, 0.489 78.800, 0.489 174.500 M 160.164 40.550 C 156.129 41.925, 150.279 44.679, 147.164 46.671 C 144.049 48.663, 138.878 53.015, 135.673 56.340 C 131.458 60.715, 128.505 65.168, 124.997 72.444 C 122.330 77.975, 119.125 86.550, 117.876 91.500 C 116.080 98.614, 115.599 103.329, 115.581 114 C 115.567 121.425, 116.130 130.200, 116.830 133.500 C 117.530 136.800, 119.254 143.100, 120.660 147.500 C 122.066 151.900, 125.185 159.482, 127.590 164.349 C 130.966 171.180, 131.740 173.617, 130.982 175.034 C 130.442 176.043, 130.002 178.586, 130.004 180.684 C 130.006 182.783, 130.902 185.967, 131.995 187.759 C 133.088 189.552, 135.448 191.939, 137.241 193.065 C 139.711 194.616, 141.727 195.021, 145.570 194.738 C 148.513 194.522, 151.728 193.555, 153.235 192.433 C 154.663 191.370, 156.560 189.278, 157.451 187.785 C 158.342 186.292, 159.111 183.114, 159.159 180.723 C 159.207 178.333, 158.494 174.922, 157.574 173.144 C 156.655 171.366, 154.462 169.033, 152.701 167.960 C 150.941 166.886, 147.819 166.006, 145.764 166.004 C 142.201 166, 141.888 165.722, 138.986 159.973 C 137.313 156.657, 134.633 150.020, 133.032 145.223 C 131.431 140.425, 129.584 132.450, 128.928 127.500 C 128.229 122.223, 127.991 114.364, 128.353 108.500 C 128.692 103, 129.907 95.132, 131.053 91.016 C 132.199 86.900, 134.753 80.456, 136.730 76.695 C 138.706 72.934, 142.327 67.628, 144.777 64.903 C 147.227 62.178, 151.128 58.837, 153.446 57.479 C 155.763 56.121, 160.324 54.057, 163.580 52.892 C 167.531 51.479, 172.046 50.751, 177.155 50.703 C 183.841 50.641, 185.639 51.040, 191.365 53.859 C 195.708 55.997, 199.458 58.843, 202.477 62.293 C 204.983 65.157, 208.828 71.120, 211.021 75.545 C 213.214 79.970, 215.757 87.041, 216.672 91.258 L 218.336 98.927 224.418 100.755 C 230.330 102.532, 230.509 102.531, 230.828 100.728 C 231.008 99.709, 230.412 95.190, 229.503 90.687 C 228.594 86.184, 226.688 79.575, 225.268 76 C 223.848 72.425, 220.934 66.714, 218.791 63.310 C 216.649 59.905, 212.181 54.605, 208.862 51.533 C 205.544 48.461, 200.730 44.884, 198.164 43.585 C 195.599 42.286, 191.056 40.498, 188.068 39.612 C 185.081 38.725, 179.231 38.012, 175.068 38.026 C 169.674 38.044, 165.393 38.769, 160.164 40.550 M 157.500 100.412 C 155.850 101.145, 153.550 102.815, 152.389 104.123 C 151.227 105.430, 149.765 108.028, 149.139 109.897 C 148.333 112.305, 148.300 114.401, 149.027 117.101 C 149.591 119.195, 151.199 122.271, 152.599 123.936 C 154.097 125.716, 156.850 127.421, 159.283 128.076 C 162.391 128.913, 164.416 128.892, 167.420 127.992 C 169.630 127.330, 172.856 125.225, 174.631 123.288 C 177.815 119.811, 177.911 119.782, 185.874 119.898 C 190.291 119.963, 197.189 120.646, 201.203 121.417 C 205.216 122.188, 211.425 123.812, 215 125.026 C 218.575 126.241, 225.026 129.089, 229.336 131.356 C 233.646 133.622, 240.621 138.256, 244.836 141.652 C 249.051 145.048, 254.400 150.291, 256.722 153.302 C 259.044 156.313, 262.475 161.865, 264.346 165.639 C 266.218 169.412, 268.315 174.923, 269.007 177.885 C 269.753 181.082, 270.023 185.848, 269.671 189.617 C 269.307 193.522, 268.005 198.161, 266.289 201.670 C 264.755 204.807, 261.435 209.496, 258.911 212.089 C 256.386 214.682, 252.017 217.971, 249.201 219.398 C 246.385 220.825, 240.913 222.536, 237.041 223.200 C 231.684 224.118, 228.146 224.137, 222.250 223.277 C 217.987 222.656, 212.025 221.321, 209 220.310 L 203.500 218.474 197.824 222.951 C 194.701 225.414, 192.344 227.747, 192.584 228.136 C 192.824 228.525, 196.504 229.980, 200.760 231.371 C 205.017 232.761, 211.170 234.371, 214.434 234.949 C 217.697 235.527, 222.720 236, 225.596 236 C 228.471 236, 234.351 235.337, 238.662 234.526 C 243.517 233.613, 249.603 231.491, 254.652 228.950 C 259.862 226.328, 264.854 222.814, 268.483 219.214 C 271.606 216.115, 275.215 211.762, 276.502 209.540 C 277.789 207.318, 279.608 202.832, 280.544 199.571 C 281.841 195.053, 282.128 191.244, 281.751 183.571 C 281.390 176.231, 280.577 171.672, 278.755 166.758 C 277.380 163.051, 274.735 157.475, 272.877 154.369 C 271.020 151.263, 266.215 145.210, 262.201 140.919 C 258.186 136.628, 251.843 130.849, 248.103 128.077 C 244.364 125.305, 237.749 121.264, 233.402 119.098 C 229.056 116.932, 222.800 114.261, 219.500 113.163 C 216.200 112.065, 209.900 110.422, 205.500 109.511 C 201.100 108.601, 192.670 107.597, 186.767 107.279 C 177.151 106.762, 175.885 106.473, 174.592 104.501 C 173.799 103.290, 171.586 101.557, 169.674 100.649 C 167.762 99.742, 164.916 99.018, 163.349 99.039 C 161.782 99.061, 159.150 99.678, 157.500 100.412 M 95.148 138.481 C 90.683 142.747, 85.224 149.096, 83.017 152.590 C 80.810 156.084, 77.875 162.309, 76.494 166.424 C 75.113 170.538, 73.718 177.189, 73.395 181.202 C 72.999 186.128, 73.324 190.938, 74.397 196 C 75.270 200.125, 77.349 206.277, 79.017 209.672 C 80.963 213.633, 84.099 217.721, 87.774 221.085 C 90.923 223.968, 96.200 227.588, 99.500 229.130 C 102.800 230.671, 108.425 232.687, 112 233.610 C 116.097 234.667, 122.197 235.264, 128.500 235.224 C 135.738 235.179, 141.144 234.477, 148.074 232.683 C 153.339 231.320, 161.190 228.730, 165.520 226.927 C 169.849 225.125, 177.251 221.069, 181.968 217.914 C 186.684 214.759, 193.510 209.284, 197.135 205.746 C 200.761 202.209, 206.078 195.981, 208.952 191.907 C 211.825 187.833, 215.034 182.834, 216.084 180.799 C 217.427 178.191, 219.314 176.513, 222.469 175.117 C 225.141 173.935, 227.786 171.798, 229.028 169.818 C 230.670 167.201, 231.032 165.285, 230.741 160.749 C 230.440 156.052, 229.842 154.444, 227.478 151.977 C 225.886 150.315, 222.920 148.457, 220.888 147.848 C 218.856 147.239, 215.620 147.036, 213.698 147.397 C 211.776 147.758, 209.023 148.980, 207.581 150.115 C 206.140 151.249, 204.294 153.465, 203.480 155.039 C 202.666 156.613, 202 159.617, 202 161.715 C 202 163.813, 202.876 167.164, 203.947 169.162 L 205.894 172.794 202.404 178.590 C 200.485 181.777, 196.804 186.855, 194.225 189.873 C 191.646 192.892, 186.019 198.143, 181.721 201.542 C 177.422 204.941, 169.539 209.992, 164.203 212.768 C 158.866 215.543, 151.411 218.757, 147.635 219.910 C 143.859 221.063, 137.077 222.290, 132.564 222.637 C 127.667 223.013, 121.585 222.785, 117.483 222.070 C 113.702 221.412, 108.277 219.770, 105.428 218.422 C 102.578 217.075, 98.135 213.714, 95.554 210.954 C 92.972 208.194, 89.654 203.363, 88.180 200.218 C 85.833 195.211, 85.500 193.257, 85.500 184.500 C 85.500 175.269, 85.753 173.966, 88.788 167.557 C 90.596 163.738, 93.740 158.563, 95.775 156.057 C 97.809 153.551, 101.231 149.891, 103.378 147.924 L 107.283 144.347 106.013 138.924 C 105.314 135.941, 104.410 132.876, 104.004 132.112 C 103.461 131.091, 101.123 132.773, 95.148 138.481 M 183 257.891 L 183 267.881 180.250 266.447 C 178.738 265.658, 176.067 265.010, 174.315 265.006 C 172.563 265.003, 169.863 265.480, 168.315 266.067 C 166.767 266.653, 164.428 268.116, 163.118 269.317 C 161.808 270.517, 159.905 273.300, 158.890 275.500 C 157.815 277.830, 157.037 281.797, 157.028 285 C 157.019 288.025, 157.509 292.295, 158.118 294.488 C 158.730 296.693, 160.741 299.906, 162.614 301.672 C 164.477 303.429, 167.239 305.017, 168.751 305.201 C 170.263 305.384, 173.035 305.220, 174.911 304.836 C 176.787 304.452, 179.514 303.257, 180.971 302.179 C 183.617 300.223, 183.622 300.223, 184.560 302.360 C 185.298 304.040, 186.524 304.566, 190.266 304.805 L 195.031 305.111 194.766 276.805 L 194.500 248.500 188.750 248.200 L 183 247.900 183 257.891 M 74.225 277.156 L 74.500 304.500 80.715 304.797 L 86.929 305.094 87.215 294.797 C 87.466 285.709, 87.705 284.515, 89.250 284.625 C 90.213 284.694, 91.576 284.806, 92.281 284.875 C 92.985 284.944, 96.023 289.287, 99.031 294.527 C 102.454 300.489, 105.264 304.251, 106.542 304.583 C 107.665 304.874, 111.122 304.974, 114.224 304.806 L 119.865 304.500 113.902 295 C 110.623 289.775, 107.082 284.641, 106.033 283.591 C 104.156 281.712, 104.177 281.654, 107.288 279.985 C 109.034 279.049, 111.505 276.321, 112.804 273.895 C 114.629 270.489, 115.060 268.414, 114.719 264.676 C 114.477 262.022, 113.403 258.678, 112.333 257.244 C 111.262 255.810, 108.612 253.706, 106.443 252.569 C 103.111 250.820, 100.289 250.447, 88.225 250.156 L 73.949 249.811 74.225 277.156 M 87.471 260.216 C 87.158 261.031, 87.036 264.804, 87.201 268.599 C 87.495 275.373, 87.553 275.506, 90.371 275.828 C 91.950 276.009, 94.324 275.885, 95.646 275.553 C 96.969 275.221, 98.939 274.061, 100.025 272.975 C 101.330 271.670, 102 269.650, 102 267.023 C 102 263.969, 101.463 262.694, 99.685 261.529 C 98.412 260.695, 95.271 259.725, 92.705 259.373 C 89.081 258.876, 87.913 259.064, 87.471 260.216 M 128.500 266.890 C 126.300 267.905, 123.509 269.814, 122.298 271.132 C 121.086 272.449, 119.399 275.194, 118.548 277.232 C 117.696 279.269, 117.004 282.863, 117.010 285.218 C 117.015 287.621, 118.073 291.763, 119.420 294.655 C 121.232 298.547, 122.931 300.462, 126.355 302.468 C 129.992 304.599, 132.162 305.125, 137.327 305.125 C 140.913 305.125, 145.257 304.456, 147.133 303.616 C 148.985 302.785, 151.322 301.445, 152.327 300.636 C 154.056 299.246, 154.064 299.027, 152.462 296.583 C 151.532 295.162, 149.977 294, 149.007 294 C 148.038 294, 145.542 294.711, 143.460 295.581 C 141.155 296.544, 138.426 296.927, 136.476 296.561 C 134.715 296.231, 132.573 295.182, 131.715 294.230 C 130.858 293.279, 129.847 291.262, 129.470 289.750 L 128.783 287 141.512 287 L 154.240 287 153.805 280.987 C 153.526 277.119, 152.659 273.997, 151.377 272.237 C 150.280 270.731, 147.401 268.488, 144.980 267.250 C 142.519 265.993, 138.794 265.010, 136.538 265.022 C 134.317 265.034, 130.700 265.875, 128.500 266.890 M 201 280.550 C 201 291.440, 201.372 295.819, 202.480 297.961 C 203.294 299.535, 205.155 301.763, 206.615 302.912 C 208.523 304.413, 210.708 304.999, 214.385 304.996 C 217.625 304.994, 220.630 304.304, 222.582 303.113 C 225.599 301.273, 225.690 301.273, 226.841 303.117 C 227.709 304.507, 229.193 305, 232.508 305 L 237 305 237 285.500 L 237 266 231 266 L 225 266 225 280.051 L 225 294.102 221.405 295.604 C 218.181 296.951, 217.563 296.943, 215.405 295.530 C 213.055 293.990, 213 293.636, 213 279.977 L 213 266 207 266 L 201 266 201 280.550 M 240.604 267.250 C 241 267.938, 243.727 271.944, 246.663 276.152 C 249.598 280.361, 252 284.061, 252 284.375 C 252 284.688, 249.108 289.345, 245.573 294.722 L 239.147 304.500 244.204 304.807 C 246.986 304.976, 249.834 304.894, 250.534 304.625 C 251.235 304.357, 253.587 301.165, 255.762 297.534 L 259.716 290.931 263.618 297.715 L 267.521 304.500 274.260 304.796 C 277.967 304.958, 281 304.861, 281 304.580 C 281 304.299, 278.065 299.590, 274.478 294.114 L 267.955 284.160 272.645 277.330 C 275.225 273.573, 278.238 269.488, 279.342 268.250 L 281.349 266 274.716 266 L 268.084 266 265.370 270.750 C 263.877 273.363, 262.213 276.080, 261.672 276.790 C 260.937 277.754, 259.724 276.553, 256.870 272.040 L 253.051 266 246.466 266 C 241.481 266, 240.057 266.304, 240.604 267.250 M 133.229 273.669 C 132.530 273.951, 131.292 275.468, 130.479 277.041 C 129.666 278.614, 129 280.144, 129 280.441 C 129 280.737, 132.236 280.839, 136.191 280.666 C 140.452 280.479, 143.539 279.884, 143.765 279.204 C 143.976 278.573, 143.010 276.919, 141.619 275.528 C 140.229 274.138, 138.058 273.036, 136.795 273.079 C 135.533 273.122, 133.928 273.388, 133.229 273.669 M 171.371 276.557 C 170.449 277.963, 169.491 281.238, 169.242 283.835 C 168.957 286.804, 169.365 289.939, 170.343 292.279 C 171.273 294.505, 172.621 296.046, 173.699 296.115 C 174.690 296.178, 176.400 296.137, 177.500 296.022 C 178.600 295.908, 180.287 295.111, 181.250 294.252 C 182.646 293.006, 183 291.040, 183 284.545 C 183 279.543, 182.537 275.937, 181.800 275.200 C 181.140 274.540, 178.900 274, 176.823 274 C 173.875 274, 172.678 274.561, 171.371 276.557" stroke="none" fill="#f3f3f3" fill-opacity='0' fill-rule="evenodd"/></svg>