<?xml version="1.0" standalone="no"?>
<!DOCTYPE svg PUBLIC "-//W3C//DTD SVG 20010904//EN"
 "http://www.w3.org/TR/2001/REC-SVG-20010904/DTD/svg10.dtd">
<svg version="1.0" xmlns="http://www.w3.org/2000/svg"
 width="679.000000pt" height="512.000000pt" viewBox="0 0 679.000000 512.000000"
 preserveAspectRatio="xMidYMid meet">

<g transform="translate(0.000000,512.000000) scale(0.100000,-0.100000)"
fill="#fff" stroke="none">
<path d="M1248 4190 c-76 -13 -154 -55 -214 -114 -64 -64 -101 -138 -115 -228
-6 -39 -9 -549 -7 -1333 l3 -1270 23 -57 c44 -109 131 -196 240 -240 l57 -23
2235 0 2235 0 57 23 c109 44 196 131 240 240 l23 57 0 1315 0 1315 -23 56
c-45 111 -129 196 -239 241 l-58 23 -2205 1 c-1213 1 -2226 -2 -2252 -6z
m4251 -214 c-147 -137 -2024 -1756 -2033 -1754 -7 2 -467 399 -1024 883
l-1011 880 2037 5 c1120 3 2039 4 2041 2 3 -1 -2 -8 -10 -16z m-3697 -588
c885 -769 943 -821 943 -829 0 -4 -20 -25 -45 -46 -180 -156 -887 -771 -1174
-1022 l-349 -304 -23 29 c-13 15 -28 50 -34 77 -14 65 -13 2475 1 2536 8 38
43 101 54 101 3 0 285 -244 627 -542z m3987 514 c11 -16 25 -49 30 -73 14 -61
15 -2471 1 -2536 -6 -27 -21 -61 -34 -77 l-22 -29 -470 408 c-258 225 -534
466 -614 535 -80 70 -221 193 -315 275 -93 81 -170 151 -170 155 0 4 173 158
385 343 212 184 563 490 780 680 217 190 398 346 402 346 4 1 16 -12 27 -27z
m-2550 -1759 c124 -106 228 -193 231 -193 3 0 128 105 279 234 l274 233 181
-156 c100 -86 429 -370 731 -630 303 -261 557 -480 565 -487 12 -12 -316 -14
-2028 -16 -1123 -2 -2041 0 -2040 4 2 3 255 223 563 489 308 266 641 553 740
640 l180 156 49 -41 c28 -23 151 -128 275 -233z"/>
<path d="M3380 3000 c0 -5 5 -10 10 -10 6 0 10 5 10 10 0 6 -4 10 -10 10 -5 0
-10 -4 -10 -10z"/>
</g>
</svg>
