<svg xmlns="http://www.w3.org/2000/svg" width="348" height="348" viewBox="0 0 348 348" version="1.1"><path d="M 217.445 36.284 C 217.174 36.990, 217.086 45.652, 217.251 55.534 L 217.549 73.500 217.775 54.833 C 217.942 41.010, 218.324 36.036, 219.250 35.662 C 220.229 35.267, 220.222 35.141, 219.219 35.079 C 218.514 35.036, 217.716 35.578, 217.445 36.284 M 126.645 75.885 C 120.125 79.645, 114.404 83.347, 113.931 84.111 C 112.823 85.904, 112.978 110.978, 114.111 113.159 C 115.147 115.152, 137.222 128, 139.611 128 C 141.510 128, 164.102 115.308, 165.235 113.605 C 165.639 112.997, 165.976 106.118, 165.985 98.318 L 166 84.136 163.250 82.225 C 158.948 79.236, 140.479 68.997, 139.436 69.024 C 138.921 69.037, 133.165 72.125, 126.645 75.885 M 96.417 102.500 C 96.418 112.950, 96.566 117.089, 96.746 111.698 C 96.926 106.307, 96.925 97.757, 96.744 92.698 C 96.563 87.639, 96.416 92.050, 96.417 102.500 M 275.250 94.220 C 271.917 95.828, 272.078 101.623, 275.500 103.182 C 279.410 104.964, 283 102.906, 283 98.882 C 283 97.044, 282.267 95.164, 281.250 94.392 C 279.166 92.810, 278.229 92.784, 275.250 94.220 M 78.310 99.500 C 78.315 102.800, 78.502 104.029, 78.725 102.232 C 78.947 100.435, 78.943 97.735, 78.715 96.232 C 78.486 94.729, 78.304 96.200, 78.310 99.500 M 200.116 99.191 C 200.052 101.771, 200.356 104.102, 200.791 104.371 C 201.226 104.640, 201.425 103.204, 201.233 101.180 C 200.647 94.996, 200.238 94.267, 200.116 99.191 M 216.982 99.702 C 216.717 102.563, 216.866 104.536, 217.314 104.088 C 217.762 103.639, 217.979 101.298, 217.796 98.886 L 217.463 94.500 216.982 99.702 M 166.899 131.351 C 147.223 141.866, 98.889 170.713, 96.250 173.518 L 93 176.971 93 221.909 L 93 266.847 95.494 269.811 C 98.135 272.949, 115.577 283.511, 122.770 286.328 C 127.933 288.349, 137.854 288.506, 142.329 286.636 C 146.463 284.909, 150.635 279.987, 152.019 275.205 C 152.729 272.754, 152.991 257.290, 152.796 229.500 L 152.500 187.500 147.672 187.192 C 144.971 187.020, 142.218 187.404, 141.422 188.064 C 140.235 189.050, 140 195.976, 140 229.948 L 140 270.651 137.439 273.057 C 133.156 277.081, 128.814 276.232, 116.073 268.880 L 105.016 262.500 105.008 221.992 L 105 181.484 138.734 161.992 C 157.287 151.271, 173.375 142.399, 174.484 142.275 C 175.599 142.150, 191.686 150.869, 210.500 161.794 L 244.500 181.540 244.500 221.969 L 244.500 262.399 210.181 282.200 C 191.305 293.090, 175.327 302, 174.673 302 C 174.019 302, 169.662 299.760, 164.992 297.023 C 160.321 294.286, 155.993 292.036, 155.374 292.023 C 153.597 291.987, 143 296.889, 143 297.748 C 143 298.173, 148.963 302.108, 156.250 306.493 C 175.784 318.246, 171.323 319.222, 216 293.420 C 243.805 277.361, 253.036 271.549, 254.750 269.022 C 256.998 265.707, 257 265.673, 257 222 L 257 178.296 254.727 174.922 C 252.438 171.527, 250.161 170.130, 197.590 139.881 C 176.593 127.799, 174.588 127.242, 166.899 131.351 M 284.367 140.918 C 279.859 143.667, 278 146.836, 278 151.772 C 278 156.805, 280.119 161.458, 283.150 163.080 C 292.903 168.300, 302.812 163.582, 303.698 153.297 C 304.624 142.552, 293.436 135.388, 284.367 140.918 M 286.152 142.672 C 279.230 146.131, 278.161 155.433, 284.111 160.440 C 289.933 165.339, 298.849 162.573, 301.064 155.181 C 302.442 150.581, 301.090 146.821, 297 143.885 C 293.234 141.181, 289.883 140.807, 286.152 142.672 M 286 152.445 C 286 158.494, 286.299 160, 287.500 160 C 288.500 160, 289 159, 289 157 C 289 152.939, 292.707 152.649, 293.184 156.673 C 293.358 158.143, 294.035 159.521, 294.690 159.736 C 295.547 160.017, 295.826 158.086, 295.690 152.813 L 295.500 145.500 290.750 145.195 L 286 144.890 286 152.445 M 289 148.927 C 289 150.358, 289.642 151, 291.073 151 C 293.636 151, 293.345 147.690, 290.739 147.188 C 289.539 146.957, 289 147.496, 289 148.927 M 181 186.500 C 168.944 189.236, 162.048 196.603, 162.016 206.782 C 161.996 213.344, 163.803 217.815, 167.852 221.222 C 171.908 224.635, 178.623 226.501, 193.933 228.470 C 208.620 230.358, 214.612 232.607, 215.616 236.608 C 216.575 240.426, 214.304 244.092, 209.534 246.429 C 206.364 247.982, 203.539 248.344, 195.048 248.287 C 180.349 248.188, 175.070 245.687, 172.950 237.815 L 171.923 234 165.838 234 L 159.752 234 160.211 239.535 C 161.401 253.882, 177.469 262.413, 200 260.662 C 219.557 259.142, 229.386 251.400, 229.367 237.530 C 229.348 223.706, 223.344 219.713, 196.318 215.550 C 178.286 212.772, 175.743 211.593, 176.193 206.222 C 176.434 203.350, 177.230 202.074, 179.898 200.282 C 182.869 198.286, 184.545 198, 193.247 198 C 206.045 198, 209.453 199.452, 212.397 206.160 L 214.500 210.953 220.750 210.976 C 227.913 211.003, 228.022 210.804, 225.499 202.308 C 223.529 195.675, 217.242 189.745, 209.845 187.542 C 202.027 185.214, 188.776 184.735, 181 186.500" stroke="none" fill="#80bd02" fill-rule="evenodd"/><path d="M 218 54.500 C 218 74.084, 217.801 74.829, 213.441 71.532 C 210.084 68.993, 207.397 69.806, 195.034 77.102 L 183 84.205 183 98.980 C 183 109.589, 183.352 114.043, 184.250 114.776 C 187.356 117.314, 208.503 129.042, 209.511 128.786 C 210.131 128.629, 216.114 125.350, 222.808 121.500 L 234.978 114.500 234.989 79.284 L 235 44.068 227.750 40.047 C 223.762 37.836, 219.938 36.020, 219.250 36.013 C 218.295 36.003, 218 40.360, 218 54.500 M 57.779 75.415 C 51.882 78.876, 46.369 82.278, 45.529 82.976 C 44.256 84.033, 44 87.405, 44 103.122 C 44 125.150, 43.459 124.399, 54.500 117.710 L 61.500 113.470 61.784 103.356 L 62.067 93.242 66.331 90.980 L 70.594 88.719 74.797 91.372 L 79 94.025 79 103.883 L 79 113.741 86.132 117.871 C 90.055 120.142, 93.880 122, 94.632 122 C 95.742 122, 96 118.342, 96 102.589 L 96 83.179 83.750 76.093 C 77.013 72.196, 70.825 69.033, 70 69.065 C 69.175 69.096, 63.675 71.954, 57.779 75.415 M 265 76.265 L 252.500 83.522 252.224 98.671 L 251.949 113.821 264.343 120.910 C 271.160 124.810, 277.359 127.994, 278.119 127.987 C 280.421 127.965, 294.002 120.020, 293.966 118.716 C 293.947 118.047, 288.547 114.436, 281.966 110.691 L 270 103.883 270.008 98.691 C 270.016 93.647, 270.132 93.437, 274.109 91.278 L 278.201 89.056 282.093 91.278 C 285.439 93.189, 285.988 93.990, 286.008 97 C 286.051 103.628, 286.998 103.777, 295.903 98.557 L 304 93.810 303.999 88.655 L 303.998 83.500 291.837 76.500 C 285.148 72.650, 279.186 69.389, 278.588 69.253 C 277.990 69.118, 271.875 72.273, 265 76.265 M 203.732 92.536 C 200.377 94.816, 200 95.514, 200 99.451 C 200 103.614, 200.225 103.955, 204.598 106.399 L 209.197 108.969 213.598 106.390 C 217.735 103.965, 218 103.547, 218 99.441 C 218 95.516, 217.621 94.814, 214.268 92.536 C 212.215 91.141, 209.845 90, 209 90 C 208.155 90, 205.785 91.141, 203.732 92.536" stroke="none" fill="#333333" fill-rule="evenodd"/><path d="M 0 174.003 L 0 348.006 174.250 347.753 L 348.500 347.500 348.753 173.750 L 349.006 0 174.503 0 L 0 0 0 174.003 M 0.489 174.500 C 0.489 270.200, 0.606 309.202, 0.750 261.171 C 0.894 213.140, 0.894 134.840, 0.750 87.171 C 0.606 39.502, 0.489 78.800, 0.489 174.500 M 217.667 35.667 C 217.300 36.033, 217 44.592, 217 54.687 L 217 73.041 212.932 70.965 L 208.864 68.890 196.182 76.201 L 183.500 83.513 183.226 99.051 L 182.951 114.589 195.417 121.794 C 202.273 125.757, 208.405 129, 209.044 129 C 209.682 129, 215.789 125.785, 222.615 121.855 L 235.025 114.711 234.762 79.136 L 234.500 43.561 227 39.291 C 219.037 34.756, 218.706 34.628, 217.667 35.667 M 56.250 76.149 L 44 83.253 44 102.568 C 44 113.191, 44.399 122.129, 44.888 122.431 C 45.376 122.732, 49.426 120.911, 53.888 118.383 L 62 113.787 62.008 103.643 L 62.015 93.500 66.038 91.203 L 70.060 88.906 74.030 91.137 C 77.889 93.306, 78.003 93.524, 78.095 98.934 C 78.242 107.509, 78.689 112.688, 79.380 113.806 C 79.726 114.366, 83.441 116.708, 87.635 119.010 C 93.649 122.310, 95.442 122.910, 96.115 121.848 C 96.585 121.106, 96.976 112.357, 96.985 102.405 C 96.998 86.396, 96.798 84.138, 95.250 82.815 C 92.115 80.138, 71.846 68.999, 70.151 69.023 C 69.243 69.035, 62.987 72.242, 56.250 76.149 M 126.645 75.885 C 120.125 79.645, 114.404 83.347, 113.931 84.111 C 112.823 85.904, 112.978 110.978, 114.111 113.159 C 115.147 115.152, 137.222 128, 139.611 128 C 141.510 128, 164.102 115.308, 165.235 113.605 C 165.639 112.997, 165.976 106.118, 165.985 98.318 L 166 84.136 163.250 82.225 C 158.948 79.236, 140.479 68.997, 139.436 69.024 C 138.921 69.037, 133.165 72.125, 126.645 75.885 M 265.996 75.546 C 259.724 79.147, 254.010 82.577, 253.297 83.169 C 252.341 83.962, 252 88.150, 252 99.099 C 252 113.409, 252.083 114.007, 254.250 115.399 C 255.488 116.194, 261.407 119.562, 267.405 122.882 L 278.311 128.920 286.131 124.710 C 290.432 122.395, 294.167 119.952, 294.431 119.283 C 294.721 118.549, 289.955 115.213, 282.409 110.869 L 269.907 103.671 270.203 98.726 C 270.476 94.190, 270.808 93.605, 274.231 91.641 L 277.962 89.500 281.731 91.500 C 285.084 93.279, 285.534 93.975, 285.810 97.804 C 285.981 100.177, 286.708 102.334, 287.429 102.611 C 288.148 102.887, 292.059 101.157, 296.118 98.767 L 303.500 94.420 303.795 88.859 L 304.091 83.297 291.689 76.148 C 284.868 72.217, 278.862 69, 278.343 69 C 277.823 69, 272.267 71.946, 265.996 75.546 M 204.699 92.094 C 200.967 94.064, 200.904 94.193, 201.199 99.274 C 201.482 104.132, 201.738 104.581, 205.407 106.634 L 209.315 108.820 213.157 106.277 C 216.721 103.919, 217 103.389, 217 98.966 C 217 94.562, 216.728 94.037, 213.443 92.099 C 209.183 89.585, 209.453 89.586, 204.699 92.094 M 275.250 94.220 C 271.917 95.828, 272.078 101.623, 275.500 103.182 C 279.410 104.964, 283 102.906, 283 98.882 C 283 97.044, 282.267 95.164, 281.250 94.392 C 279.166 92.810, 278.229 92.784, 275.250 94.220 M 166.899 131.351 C 147.223 141.866, 98.889 170.713, 96.250 173.518 L 93 176.971 93 221.909 L 93 266.847 95.494 269.811 C 98.135 272.949, 115.577 283.511, 122.770 286.328 C 127.933 288.349, 137.854 288.506, 142.329 286.636 C 146.463 284.909, 150.635 279.987, 152.019 275.205 C 152.729 272.754, 152.991 257.290, 152.796 229.500 L 152.500 187.500 147.672 187.192 C 144.971 187.020, 142.218 187.404, 141.422 188.064 C 140.235 189.050, 140 195.976, 140 229.948 L 140 270.651 137.439 273.057 C 133.156 277.081, 128.814 276.232, 116.073 268.880 L 105.016 262.500 105.008 221.992 L 105 181.484 138.734 161.992 C 157.287 151.271, 173.375 142.399, 174.484 142.275 C 175.599 142.150, 191.686 150.869, 210.500 161.794 L 244.500 181.540 244.500 221.969 L 244.500 262.399 210.181 282.200 C 191.305 293.090, 175.327 302, 174.673 302 C 174.019 302, 169.662 299.760, 164.992 297.023 C 160.321 294.286, 155.993 292.036, 155.374 292.023 C 153.597 291.987, 143 296.889, 143 297.748 C 143 298.173, 148.963 302.108, 156.250 306.493 C 175.784 318.246, 171.323 319.222, 216 293.420 C 243.805 277.361, 253.036 271.549, 254.750 269.022 C 256.998 265.707, 257 265.673, 257 222 L 257 178.296 254.727 174.922 C 252.438 171.527, 250.161 170.130, 197.590 139.881 C 176.593 127.799, 174.588 127.242, 166.899 131.351 M 284.367 140.918 C 279.859 143.667, 278 146.836, 278 151.772 C 278 156.805, 280.119 161.458, 283.150 163.080 C 292.903 168.300, 302.812 163.582, 303.698 153.297 C 304.624 142.552, 293.436 135.388, 284.367 140.918 M 286.152 142.672 C 279.230 146.131, 278.161 155.433, 284.111 160.440 C 289.933 165.339, 298.849 162.573, 301.064 155.181 C 302.442 150.581, 301.090 146.821, 297 143.885 C 293.234 141.181, 289.883 140.807, 286.152 142.672 M 286 152.445 C 286 158.494, 286.299 160, 287.500 160 C 288.500 160, 289 159, 289 157 C 289 152.939, 292.707 152.649, 293.184 156.673 C 293.358 158.143, 294.035 159.521, 294.690 159.736 C 295.547 160.017, 295.826 158.086, 295.690 152.813 L 295.500 145.500 290.750 145.195 L 286 144.890 286 152.445 M 289 148.927 C 289 150.358, 289.642 151, 291.073 151 C 293.636 151, 293.345 147.690, 290.739 147.188 C 289.539 146.957, 289 147.496, 289 148.927 M 181 186.500 C 168.944 189.236, 162.048 196.603, 162.016 206.782 C 161.996 213.344, 163.803 217.815, 167.852 221.222 C 171.908 224.635, 178.623 226.501, 193.933 228.470 C 208.620 230.358, 214.612 232.607, 215.616 236.608 C 216.575 240.426, 214.304 244.092, 209.534 246.429 C 206.364 247.982, 203.539 248.344, 195.048 248.287 C 180.349 248.188, 175.070 245.687, 172.950 237.815 L 171.923 234 165.838 234 L 159.752 234 160.211 239.535 C 161.401 253.882, 177.469 262.413, 200 260.662 C 219.557 259.142, 229.386 251.400, 229.367 237.530 C 229.348 223.706, 223.344 219.713, 196.318 215.550 C 178.286 212.772, 175.743 211.593, 176.193 206.222 C 176.434 203.350, 177.230 202.074, 179.898 200.282 C 182.869 198.286, 184.545 198, 193.247 198 C 206.045 198, 209.453 199.452, 212.397 206.160 L 214.500 210.953 220.750 210.976 C 227.913 211.003, 228.022 210.804, 225.499 202.308 C 223.529 195.675, 217.242 189.745, 209.845 187.542 C 202.027 185.214, 188.776 184.735, 181 186.500" stroke="none" fill="#f3f4f3" fill-opacity='0' fill-rule="evenodd"/></svg>