<?xml version="1.0" standalone="no"?>
<!DOCTYPE svg PUBLIC "-//W3C//DTD SVG 20010904//EN"
 "http://www.w3.org/TR/2001/REC-SVG-20010904/DTD/svg10.dtd">
<svg version="1.0" xmlns="http://www.w3.org/2000/svg"
 width="360.000000pt" height="380.000000pt" viewBox="0 0 360.000000 380.000000"
 preserveAspectRatio="xMidYMid meet">

<g transform="translate(0.000000,380.000000) scale(0.100000,-0.100000)"
fill="#fff" stroke="none">
<path d="M1535 3779 c-381 -23 -751 -119 -969 -252 -121 -73 -179 -121 -246
-205 -150 -185 -238 -406 -285 -718 -23 -147 -32 -696 -15 -861 62 -617 320
-995 782 -1149 l78 -26 0 -226 c0 -200 3 -232 19 -268 25 -56 54 -74 117 -74
40 0 59 6 91 29 39 28 264 269 354 379 l44 53 53 -6 c97 -12 475 -6 625 9 359
37 670 120 847 226 307 185 476 464 534 885 37 260 47 640 25 890 -26 302
-110 576 -237 775 -48 76 -164 193 -242 245 -242 160 -613 267 -1005 289 -184
11 -439 13 -570 5z m525 -269 c522 -38 880 -175 1045 -400 106 -145 184 -384
215 -660 26 -227 7 -689 -36 -900 -62 -303 -213 -520 -444 -639 -225 -116
-653 -191 -1092 -191 l-187 0 -78 -92 c-160 -191 -372 -434 -411 -471 -28 -27
-47 -38 -63 -35 l-24 3 -3 346 -2 346 -43 12 c-23 7 -82 32 -132 56 -294 144
-452 390 -510 798 -22 153 -22 602 0 792 31 265 103 474 217 628 143 192 406
321 783 382 208 34 508 44 765 25z"/>
<path d="M1752 3094 c-25 -17 -28 -33 -9 -58 11 -15 35 -20 117 -27 240 -21
422 -108 584 -280 133 -141 204 -318 227 -558 6 -64 15 -122 21 -128 15 -18
43 -16 64 4 14 15 16 30 10 112 -12 165 -47 303 -109 426 -143 287 -424 477
-760 514 -122 14 -118 14 -145 -5z"/>
<path d="M1062 2980 c-82 -37 -199 -147 -237 -223 -46 -94 -29 -170 100 -427
250 -497 505 -773 950 -1025 151 -86 300 -157 401 -191 72 -24 84 -25 130 -15
29 7 73 26 98 43 60 39 153 148 184 216 44 97 22 135 -155 270 -186 141 -287
184 -363 152 -17 -7 -53 -41 -81 -76 -28 -36 -59 -69 -69 -74 -72 -39 -258 35
-409 161 -103 85 -205 230 -261 368 -48 117 -40 144 61 226 110 89 115 143 26
289 -66 110 -203 283 -242 307 -38 24 -79 24 -133 -1z"/>
<path d="M1838 2850 c-22 -13 -23 -53 -4 -69 8 -7 45 -17 83 -22 143 -20 258
-74 348 -164 96 -96 154 -231 155 -360 0 -89 20 -116 70 -100 29 9 33 41 21
145 -39 320 -265 534 -606 574 -28 4 -58 2 -67 -4z"/>
<path d="M1898 2576 c-18 -41 -1 -59 69 -72 125 -23 182 -80 206 -208 13 -71
31 -93 67 -81 28 9 34 45 20 119 -28 152 -132 246 -289 262 -58 7 -61 6 -73
-20z"/>
</g>
</svg>
