<?xml version="1.0" standalone="no"?>
<!DOCTYPE svg PUBLIC "-//W3C//DTD SVG 20010904//EN"
 "http://www.w3.org/TR/2001/REC-SVG-20010904/DTD/svg10.dtd">
<svg version="1.0" xmlns="http://www.w3.org/2000/svg"
 width="348.000000pt" height="348.000000pt" viewBox="0 0 348.000000 348.000000"
 preserveAspectRatio="xMidYMid meet">

<g transform="translate(0.000000,348.000000) scale(0.100000,-0.100000)"
fill="#fff" stroke="none">
<path d="M1634 3040 c-493 -41 -931 -375 -1107 -845 -52 -138 -69 -229 -74
-405 -4 -127 -1 -187 11 -260 20 -113 72 -272 120 -367 l34 -69 -89 -328 c-50
-180 -88 -330 -85 -334 3 -3 157 34 341 83 l335 88 77 -35 c103 -47 225 -85
337 -104 127 -23 387 -14 506 16 260 65 470 186 648 374 232 245 353 549 354
886 0 274 -71 510 -225 740 -64 96 -241 273 -337 337 -256 171 -545 247 -846
223z m288 -230 c333 -48 648 -286 798 -603 69 -145 92 -241 97 -417 4 -120 2
-175 -11 -244 -83 -436 -425 -778 -864 -862 -40 -8 -129 -14 -197 -14 -193 0
-351 39 -511 125 l-82 44 -198 -53 c-110 -29 -200 -52 -202 -50 -2 1 19 85 47
187 28 101 51 191 51 200 0 9 -16 42 -35 74 -45 75 -88 178 -115 278 -28 102
-38 330 -20 443 78 485 485 863 970 900 97 8 175 5 272 -8z"/>
<path d="M1240 2333 c-19 -10 -53 -42 -77 -71 -57 -70 -77 -139 -71 -253 4
-81 8 -96 51 -181 58 -117 155 -247 272 -364 144 -144 275 -228 475 -302 83
-30 107 -35 190 -36 88 -1 100 1 162 32 108 53 155 121 160 231 1 25 -4 47
-13 55 -8 8 -78 44 -157 81 -106 50 -148 65 -161 59 -11 -5 -47 -44 -81 -86
-46 -58 -68 -78 -85 -78 -34 0 -180 77 -252 133 -34 26 -80 68 -103 94 -52 59
-130 173 -130 191 0 7 23 41 50 75 28 34 53 72 56 85 7 25 -108 313 -132 332
-25 21 -116 23 -154 3z"/>
</g>
</svg>
