<?xml version="1.0" standalone="no"?>
<!DOCTYPE svg PUBLIC "-//W3C//DTD SVG 20010904//EN"
 "http://www.w3.org/TR/2001/REC-SVG-20010904/DTD/svg10.dtd">
<svg version="1.0" xmlns="http://www.w3.org/2000/svg"
 width="360.000000pt" height="360.000000pt" viewBox="0 0 360.000000 360.000000"
 preserveAspectRatio="xMidYMid meet">

<g transform="translate(0.000000,360.000000) scale(0.100000,-0.100000)"
fill="#000000" stroke="none">
<path d="M1665 3243 c-84 -8 -214 -36 -316 -69 -504 -163 -879 -600 -975
-1137 -21 -120 -22 -351 -1 -472 64 -362 252 -681 532 -900 193 -151 396 -243
640 -291 124 -24 384 -25 515 0 579 107 1035 551 1161 1131 26 117 36 351 20
470 -80 604 -505 1084 -1090 1230 -152 38 -332 52 -486 38z m565 -682 l0 -159
-125 -4 c-164 -4 -160 0 -160 -161 l0 -122 143 -3 c92 -2 142 -6 142 -13 0
-25 -22 -256 -26 -276 -4 -22 -8 -23 -134 -23 l-130 0 0 -470 0 -470 -185 0
-185 0 0 470 0 470 -100 0 -100 0 0 155 0 155 100 0 100 0 0 164 c0 231 29
315 132 384 71 46 152 61 351 61 l177 1 0 -159z"/>
</g>
</svg>
