<?xml version="1.0" standalone="no"?>
<!DOCTYPE svg PUBLIC "-//W3C//DTD SVG 20010904//EN"
 "http://www.w3.org/TR/2001/REC-SVG-20010904/DTD/svg10.dtd">
<svg version="1.0" xmlns="http://www.w3.org/2000/svg"
 width="380.000000pt" height="133.000000pt" viewBox="0 0 380.000000 133.000000"
 preserveAspectRatio="xMidYMid meet">

<g transform="translate(0.000000,133.000000) scale(0.100000,-0.100000)"
fill="#000000" stroke="none">
<path d="M1655 1319 c-254 -36 -379 -135 -430 -343 -23 -96 -24 -363 -1 -460
34 -142 103 -232 222 -288 l64 -30 0 -81 c0 -90 4 -101 39 -112 21 -6 34 3
101 74 l77 81 89 0 c167 0 339 32 433 80 24 12 62 41 86 65 79 82 112 184 122
380 12 266 -45 455 -164 536 -127 88 -406 131 -638 98z m330 -89 c215 -30 318
-106 360 -265 35 -133 28 -375 -14 -484 -39 -104 -106 -159 -232 -192 -85 -22
-270 -43 -316 -36 -31 5 -37 2 -84 -56 -82 -99 -140 -158 -150 -152 -5 4 -9
59 -9 124 l0 118 -49 23 c-94 43 -156 126 -180 240 -12 56 -16 287 -5 350 32
195 127 286 339 325 85 16 245 18 340 5z"/>
<path d="M1810 1076 c0 -12 9 -16 33 -16 66 0 134 -29 190 -80 62 -56 92 -116
102 -202 5 -42 12 -58 22 -58 13 0 14 10 8 58 -16 131 -76 221 -179 272 -76
38 -176 53 -176 26z"/>
<path d="M1531 1015 c-53 -48 -58 -78 -27 -148 70 -160 168 -284 285 -361 87
-58 208 -116 242 -116 32 0 83 40 105 83 15 28 15 32 -3 56 -26 34 -123 100
-149 101 -11 0 -33 -14 -49 -30 -16 -16 -38 -30 -49 -30 -61 0 -169 90 -207
173 -25 56 -24 62 11 94 43 38 39 69 -18 145 -59 79 -83 85 -141 33z"/>
<path d="M1842 989 c3 -8 20 -17 39 -20 96 -16 169 -98 169 -191 0 -19 4 -28
13 -25 7 3 11 21 10 51 -3 96 -87 182 -190 194 -36 4 -45 2 -41 -9z"/>
<path d="M1862 899 c2 -8 16 -15 30 -17 31 -4 65 -38 70 -71 1 -14 9 -27 17
-29 21 -7 7 76 -17 100 -24 24 -107 38 -100 17z"/>
<path d="M431 1225 c-154 -43 -290 -156 -359 -297 -46 -95 -62 -160 -62 -258
0 -86 15 -159 48 -233 l25 -58 -38 -140 c-20 -77 -35 -142 -33 -145 3 -2 65
11 137 31 73 19 140 35 148 35 9 0 46 -12 82 -27 86 -34 244 -44 338 -20 258
67 441 297 443 558 0 75 -33 200 -71 268 -69 124 -182 221 -314 271 -78 30
-262 38 -344 15z m318 -104 c159 -64 273 -198 308 -365 45 -217 -88 -453 -304
-537 -119 -45 -290 -35 -396 24 l-37 21 -86 -23 c-48 -12 -88 -20 -91 -17 -2
2 6 41 18 86 l22 83 -26 51 c-101 200 -63 424 99 575 62 59 139 103 211 121
65 16 221 5 282 -19z"/>
<path d="M326 900 c-30 -37 -42 -105 -26 -154 37 -113 184 -265 305 -315 145
-61 263 -25 265 80 0 23 -9 30 -71 57 l-71 32 -38 -43 -38 -42 -43 24 c-68 37
-117 79 -150 127 l-30 44 26 33 c14 19 25 38 25 43 0 5 -12 39 -27 76 -26 67
-27 68 -64 68 -29 0 -43 -6 -63 -30z"/>
<path d="M3244 738 l-19 -23 23 19 c21 18 27 26 19 26 -2 0 -12 -10 -23 -22z"/>
<path d="M2503 670 c0 -47 2 -66 4 -42 2 23 2 61 0 85 -2 23 -4 4 -4 -43z"/>
<path d="M3154 658 l-19 -23 23 19 c21 18 27 26 19 26 -2 0 -12 -10 -23 -22z"/>
<path d="M3039 553 c-13 -16 -12 -17 4 -4 16 13 21 21 13 21 -2 0 -10 -8 -17
-17z"/>
<path d="M3021 504 c0 -11 3 -14 6 -6 3 7 2 16 -1 19 -3 4 -6 -2 -5 -13z"/>
<path d="M3038 33 c7 -3 16 -2 19 1 4 3 -2 6 -13 5 -11 0 -14 -3 -6 -6z"/>
<path d="M3228 33 c7 -3 16 -2 19 1 4 3 -2 6 -13 5 -11 0 -14 -3 -6 -6z"/>
</g>
</svg>
